<ttFont>
    <TTGlyph name=".notdef" xMin="177" yMin="0" xMax="1593" yMax="1416">
      <contour>
        <pt x="1593" y="1416" on="1"/>
        <pt x="1593" y="0" on="1"/>
        <pt x="177" y="0" on="1"/>
        <pt x="177" y="1416" on="1"/>
      </contour>
      <contour>
        <pt x="883" y="605" on="1"/>
        <pt x="1220" y="252" on="1"/>
        <pt x="1333" y="365" on="1"/>
        <pt x="985" y="708" on="1"/>
        <pt x="1333" y="1042" on="1"/>
        <pt x="1214" y="1158" on="1"/>
        <pt x="886" y="807" on="1"/>
        <pt x="553" y="1159" on="1"/>
        <pt x="439" y="1043" on="1"/>
        <pt x="783" y="705" on="1"/>
        <pt x="440" y="387" on="1"/>
        <pt x="559" y="252" on="1"/>
      </contour>
    </TTGlyph>
    <TTGlyph name="A" xMin="-34" yMin="0" xMax="1448" yMax="1534">
      <contour>
        <pt x="93" y="133" on="1"/>
        <pt x="586" y="1534" on="1"/>
        <pt x="824" y="1534" on="1"/>
        <pt x="1321" y="133" on="1"/>
        <pt x="1448" y="109" on="1"/>
        <pt x="1448" y="0" on="1"/>
        <pt x="899" y="0" on="1"/>
        <pt x="899" y="109" on="1"/>
        <pt x="1062" y="133" on="1"/>
        <pt x="967" y="425" on="1"/>
        <pt x="379" y="425" on="1"/>
        <pt x="288" y="133" on="1"/>
        <pt x="459" y="109" on="1"/>
        <pt x="459" y="0" on="1"/>
        <pt x="-33" y="0" on="1"/>
        <pt x="-34" y="109" on="1"/>
      </contour>
      <contour>
        <pt x="926" y="552" on="1"/>
        <pt x="712" y="1209" on="1"/>
        <pt x="668" y="1377" on="1"/>
        <pt x="624" y="1207" on="1"/>
        <pt x="419" y="552" on="1"/>
      </contour>
    </TTGlyph>
    <TTGlyph name="AE" xMin="-176" yMin="0" xMax="1861" yMax="1522">
      <contour>
        <pt x="814" y="130" on="1"/>
        <pt x="814" y="434" on="1"/>
        <pt x="297" y="434" on="1"/>
        <pt x="175" y="130" on="1"/>
        <pt x="327" y="106" on="1"/>
        <pt x="327" y="0" on="1"/>
        <pt x="-176" y="0" on="1"/>
        <pt x="-176" y="106" on="1"/>
        <pt x="-28" y="132" on="1"/>
        <pt x="526" y="1388" on="1"/>
        <pt x="262" y="1413" on="1"/>
        <pt x="262" y="1522" on="1"/>
        <pt x="1689" y="1522" on="1"/>
        <pt x="1720" y="1202" on="1"/>
        <pt x="1593" y="1202" on="1"/>
        <pt x="1527" y="1397" on="1"/>
        <pt x="1047" y="1409" on="1"/>
        <pt x="1047" y="841" on="1"/>
        <pt x="1371" y="847" on="1"/>
        <pt x="1401" y="1012" on="1"/>
        <pt x="1528" y="1012" on="1"/>
        <pt x="1528" y="544" on="1"/>
        <pt x="1401" y="544" on="1"/>
        <pt x="1371" y="715" on="1"/>
        <pt x="1047" y="720" on="1"/>
        <pt x="1047" y="123" on="1"/>
        <pt x="1603" y="146" on="1"/>
        <pt x="1729" y="398" on="1"/>
        <pt x="1861" y="360" on="1"/>
        <pt x="1786" y="0" on="1"/>
        <pt x="644" y="0" on="1"/>
        <pt x="644" y="107" on="1"/>
      </contour>
      <contour>
        <pt x="814" y="564" on="1"/>
        <pt x="814" y="1400" on="1"/>
        <pt x="689" y="1400" on="1"/>
        <pt x="582" y="1140" on="1"/>
        <pt x="350" y="564" on="1"/>
      </contour>
    </TTGlyph>
    <TTGlyph name="AEacute" xMin="-176" yMin="0" xMax="1861" yMax="2012">
      <component glyphName="acute.cap" x="322" y="0" flags="0x0"/>
      <component glyphName="AE" x="0" y="0" flags="0x0"/>
    </TTGlyph>
    <TTGlyph name="Aacute" xMin="-34" yMin="0" xMax="1448" yMax="2012">
      <component glyphName="A" x="0" y="0" flags="0x0"/>
      <component glyphName="acute.cap" x="64" y="0" flags="0x0"/>
    </TTGlyph>
    <TTGlyph name="Abreve" xMin="-34" yMin="0" xMax="1448" yMax="1998">
      <component glyphName="A" x="0" y="0" flags="0x0"/>
      <component glyphName="breve.cap" x="203" y="0" flags="0x0"/>
    </TTGlyph>
    <TTGlyph name="Acircumflex" xMin="-34" yMin="0" xMax="1448" yMax="2013">
      <component glyphName="A" x="0" y="0" flags="0x0"/>
      <component glyphName="circumflex.cap" x="182" y="0" flags="0x0"/>
    </TTGlyph>
    <TTGlyph name="Adieresis" xMin="-34" yMin="0" xMax="1448" yMax="1983">
      <component glyphName="A" x="0" y="0" flags="0x0"/>
      <component glyphName="dieresis.cap" x="203" y="0" flags="0x0"/>
    </TTGlyph>
    <TTGlyph name="Agrave" xMin="-34" yMin="0" xMax="1448" yMax="2012">
      <component glyphName="A" x="0" y="0" flags="0x0"/>
      <component glyphName="grave.cap" x="309" y="0" flags="0x0"/>
    </TTGlyph>
    <TTGlyph name="Amacron" xMin="-34" yMin="0" xMax="1448" yMax="1904">
      <component glyphName="A" x="0" y="0" flags="0x0"/>
      <component glyphName="macron.cap" x="373" y="0" flags="0x0"/>
    </TTGlyph>
    <TTGlyph name="Aogonek" xMin="-34" yMin="-511" xMax="1448" yMax="1534">
      <contour>
        <pt x="93" y="133" on="1"/>
        <pt x="586" y="1534" on="1"/>
        <pt x="824" y="1534" on="1"/>
        <pt x="1321" y="133" on="1"/>
        <pt x="1448" y="109" on="1"/>
        <pt x="1448" y="0" on="1"/>
        <pt x="1291" y="0" on="1"/>
        <pt x="1228" y="-27" on="0"/>
        <pt x="1125" y="-113" on="0"/>
        <pt x="1066" y="-207" on="0"/>
        <pt x="1066" y="-245" on="1"/>
        <pt x="1066" y="-307" on="0"/>
        <pt x="1149" y="-365" on="0"/>
        <pt x="1216" y="-365" on="1"/>
        <pt x="1282" y="-365" on="0"/>
        <pt x="1358" y="-332" on="1"/>
        <pt x="1358" y="-442" on="1"/>
        <pt x="1316" y="-474" on="0"/>
        <pt x="1184" y="-511" on="0"/>
        <pt x="1120" y="-511" on="1"/>
        <pt x="1009" y="-511" on="0"/>
        <pt x="859" y="-415" on="0"/>
        <pt x="859" y="-315" on="1"/>
        <pt x="859" y="-260" on="0"/>
        <pt x="935" y="-136" on="0"/>
        <pt x="1063" y="-30" on="0"/>
        <pt x="1137" y="0" on="1"/>
        <pt x="899" y="0" on="1"/>
        <pt x="899" y="109" on="1"/>
        <pt x="1062" y="133" on="1"/>
        <pt x="967" y="425" on="1"/>
        <pt x="379" y="425" on="1"/>
        <pt x="288" y="133" on="1"/>
        <pt x="459" y="109" on="1"/>
        <pt x="459" y="0" on="1"/>
        <pt x="-33" y="0" on="1"/>
        <pt x="-34" y="109" on="1"/>
      </contour>
      <contour>
        <pt x="926" y="552" on="1"/>
        <pt x="712" y="1209" on="1"/>
        <pt x="668" y="1377" on="1"/>
        <pt x="624" y="1207" on="1"/>
        <pt x="419" y="552" on="1"/>
      </contour>
    </TTGlyph>
    <TTGlyph name="Aring" xMin="-34" yMin="0" xMax="1448" yMax="2014">
      <contour>
        <pt x="1448" y="109" on="1"/>
        <pt x="1448" y="0" on="1"/>
        <pt x="899" y="0" on="1"/>
        <pt x="899" y="109" on="1"/>
        <pt x="1062" y="133" on="1"/>
        <pt x="967" y="425" on="1"/>
        <pt x="379" y="425" on="1"/>
        <pt x="288" y="133" on="1"/>
        <pt x="459" y="109" on="1"/>
        <pt x="459" y="0" on="1"/>
        <pt x="-33" y="0" on="1"/>
        <pt x="-34" y="109" on="1"/>
        <pt x="93" y="133" on="1"/>
        <pt x="581" y="1520" on="1"/>
        <pt x="481" y="1545" on="0"/>
        <pt x="381" y="1672" on="0"/>
        <pt x="381" y="1758" on="1"/>
        <pt x="381" y="1839" on="0"/>
        <pt x="477" y="1955" on="0"/>
        <pt x="634" y="2014" on="0"/>
        <pt x="725" y="2014" on="1"/>
        <pt x="726" y="2014" on="1"/>
        <pt x="830" y="2014" on="0"/>
        <pt x="975" y="1949" on="0"/>
        <pt x="1047" y="1834" on="0"/>
        <pt x="1047" y="1759" on="1"/>
        <pt x="1047" y="1668" on="0"/>
        <pt x="928" y="1543" on="0"/>
        <pt x="829" y="1519" on="1"/>
        <pt x="1321" y="133" on="1"/>
      </contour>
      <contour>
        <pt x="542" y="1914" on="0"/>
        <pt x="542" y="1763" on="1"/>
        <pt x="542" y="1696" on="0"/>
        <pt x="629" y="1604" on="0"/>
        <pt x="716" y="1604" on="1"/>
        <pt x="717" y="1604" on="1"/>
        <pt x="807" y="1604" on="0"/>
        <pt x="888" y="1678" on="0"/>
        <pt x="888" y="1750" on="1"/>
        <pt x="888" y="1823" on="0"/>
        <pt x="805" y="1914" on="0"/>
        <pt x="718" y="1914" on="1"/>
        <pt x="717" y="1914" on="1"/>
      </contour>
      <contour>
        <pt x="926" y="552" on="1"/>
        <pt x="712" y="1209" on="1"/>
        <pt x="668" y="1377" on="1"/>
        <pt x="624" y="1207" on="1"/>
        <pt x="419" y="552" on="1"/>
      </contour>
    </TTGlyph>
    <TTGlyph name="Atilde" xMin="-34" yMin="0" xMax="1448" yMax="2008">
      <component glyphName="A" x="0" y="0" flags="0x0"/>
      <component glyphName="tilde.cap" x="203" y="0" flags="0x0"/>
    </TTGlyph>
    <TTGlyph name="B" xMin="96" yMin="-12" xMax="1328" yMax="1537">
      <contour>
        <pt x="264" y="133" on="1"/>
        <pt x="264" y="1386" on="1"/>
        <pt x="99" y="1411" on="1"/>
        <pt x="99" y="1522" on="1"/>
        <pt x="371" y="1522" on="1"/>
        <pt x="439" y="1522" on="0"/>
        <pt x="545" y="1530" on="1"/>
        <pt x="627" y="1537" on="0"/>
        <pt x="686" y="1537" on="1"/>
        <pt x="967" y="1537" on="0"/>
        <pt x="1220" y="1362" on="0"/>
        <pt x="1220" y="1192" on="1"/>
        <pt x="1220" y="1097" on="0"/>
        <pt x="1147" y="940" on="0"/>
        <pt x="1009" y="835" on="0"/>
        <pt x="914" y="816" on="1"/>
        <pt x="1039" y="819" on="0"/>
        <pt x="1226" y="731" on="0"/>
        <pt x="1328" y="565" on="0"/>
        <pt x="1328" y="454" on="1"/>
        <pt x="1328" y="248" on="0"/>
        <pt x="1037" y="-12" on="0"/>
        <pt x="701" y="-12" on="1"/>
        <pt x="664" y="-12" on="0"/>
        <pt x="582" y="-8" on="0"/>
        <pt x="565" y="-7" on="1"/>
        <pt x="444" y="0" on="0"/>
        <pt x="373" y="0" on="1"/>
        <pt x="96" y="0" on="1"/>
        <pt x="96" y="109" on="1"/>
      </contour>
      <contour>
        <pt x="549" y="857" on="0"/>
        <pt x="703" y="857" on="1"/>
        <pt x="986" y="857" on="0"/>
        <pt x="986" y="1150" on="1"/>
        <pt x="986" y="1244" on="0"/>
        <pt x="926" y="1363" on="0"/>
        <pt x="790" y="1422" on="0"/>
        <pt x="674" y="1422" on="1"/>
        <pt x="602" y="1422" on="0"/>
        <pt x="506" y="1411" on="0"/>
        <pt x="498" y="1410" on="1"/>
        <pt x="498" y="861" on="1"/>
      </contour>
      <contour>
        <pt x="521" y="112" on="0"/>
        <pt x="625" y="105" on="0"/>
        <pt x="695" y="105" on="1"/>
        <pt x="895" y="105" on="0"/>
        <pt x="1074" y="267" on="0"/>
        <pt x="1074" y="421" on="1"/>
        <pt x="1074" y="532" on="0"/>
        <pt x="1004" y="668" on="0"/>
        <pt x="853" y="731" on="0"/>
        <pt x="730" y="731" on="1"/>
        <pt x="633" y="731" on="1"/>
        <pt x="528" y="731" on="0"/>
        <pt x="497" y="729" on="1"/>
        <pt x="497" y="123" on="1"/>
      </contour>
    </TTGlyph>
    <TTGlyph name="C" xMin="66" yMin="-23" xMax="1258" yMax="1538">
      <contour>
        <pt x="66" y="998" on="0"/>
        <pt x="261" y="1350" on="0"/>
        <pt x="599" y="1538" on="0"/>
        <pt x="808" y="1538" on="1"/>
        <pt x="904" y="1538" on="0"/>
        <pt x="1083" y="1510" on="0"/>
        <pt x="1196" y="1487" on="1"/>
        <pt x="1250" y="1476" on="1"/>
        <pt x="1231" y="1102" on="1"/>
        <pt x="1082" y="1102" on="1"/>
        <pt x="1026" y="1357" on="1"/>
        <pt x="1005" y="1385" on="0"/>
        <pt x="877" y="1418" on="0"/>
        <pt x="773" y="1418" on="1"/>
        <pt x="645" y="1418" on="0"/>
        <pt x="448" y="1272" on="0"/>
        <pt x="337" y="987" on="0"/>
        <pt x="337" y="786" on="1"/>
        <pt x="337" y="600" on="0"/>
        <pt x="436" y="287" on="0"/>
        <pt x="643" y="96" on="0"/>
        <pt x="798" y="96" on="1"/>
        <pt x="959" y="96" on="0"/>
        <pt x="1029" y="170" on="1"/>
        <pt x="1116" y="381" on="1"/>
        <pt x="1258" y="362" on="1"/>
        <pt x="1214" y="56" on="1"/>
        <pt x="1187" y="54" on="0"/>
        <pt x="1137" y="41" on="0"/>
        <pt x="1097" y="27" on="1"/>
        <pt x="1029" y="3" on="0"/>
        <pt x="905" y="-23" on="0"/>
        <pt x="814" y="-23" on="1"/>
        <pt x="576" y="-23" on="0"/>
        <pt x="240" y="164" on="0"/>
        <pt x="66" y="516" on="0"/>
        <pt x="66" y="762" on="1"/>
      </contour>
    </TTGlyph>
    <TTGlyph name="Cacute" xMin="66" yMin="-23" xMax="1258" yMax="2012">
      <component glyphName="C" x="0" y="0" flags="0x0"/>
      <component glyphName="acute.cap" x="135" y="0" flags="0x0"/>
    </TTGlyph>
    <TTGlyph name="Ccaron" xMin="66" yMin="-23" xMax="1258" yMax="2013">
      <component glyphName="C" x="0" y="0" flags="0x0"/>
      <component glyphName="caron.cap" x="446" y="0" flags="0x0"/>
    </TTGlyph>
    <TTGlyph name="Ccedilla" xMin="66" yMin="-494" xMax="1258" yMax="1538">
      <contour>
        <pt x="1187" y="54" on="0"/>
        <pt x="1137" y="41" on="0"/>
        <pt x="1097" y="27" on="1"/>
        <pt x="1029" y="3" on="0"/>
        <pt x="905" y="-23" on="0"/>
        <pt x="814" y="-23" on="1"/>
        <pt x="803" y="-23" on="1"/>
        <pt x="845" y="-73" on="0"/>
        <pt x="910" y="-210" on="0"/>
        <pt x="910" y="-280" on="1"/>
        <pt x="910" y="-396" on="0"/>
        <pt x="778" y="-494" on="0"/>
        <pt x="646" y="-494" on="1"/>
        <pt x="645" y="-494" on="1"/>
        <pt x="610" y="-494" on="0"/>
        <pt x="527" y="-479" on="0"/>
        <pt x="501" y="-467" on="1"/>
        <pt x="502" y="-314" on="1"/>
        <pt x="521" y="-321" on="0"/>
        <pt x="573" y="-328" on="0"/>
        <pt x="588" y="-328" on="1"/>
        <pt x="589" y="-328" on="1"/>
        <pt x="641" y="-328" on="0"/>
        <pt x="700" y="-309" on="0"/>
        <pt x="731" y="-248" on="0"/>
        <pt x="731" y="-187" on="1"/>
        <pt x="731" y="-145" on="0"/>
        <pt x="699" y="-51" on="0"/>
        <pt x="679" y="-15" on="1"/>
        <pt x="482" y="10" on="0"/>
        <pt x="208" y="209" on="0"/>
        <pt x="66" y="540" on="0"/>
        <pt x="66" y="762" on="1"/>
        <pt x="66" y="998" on="0"/>
        <pt x="261" y="1350" on="0"/>
        <pt x="599" y="1538" on="0"/>
        <pt x="808" y="1538" on="1"/>
        <pt x="904" y="1538" on="0"/>
        <pt x="1083" y="1510" on="0"/>
        <pt x="1196" y="1487" on="1"/>
        <pt x="1250" y="1476" on="1"/>
        <pt x="1231" y="1102" on="1"/>
        <pt x="1082" y="1102" on="1"/>
        <pt x="1026" y="1357" on="1"/>
        <pt x="1005" y="1385" on="0"/>
        <pt x="877" y="1418" on="0"/>
        <pt x="773" y="1418" on="1"/>
        <pt x="645" y="1418" on="0"/>
        <pt x="448" y="1272" on="0"/>
        <pt x="337" y="987" on="0"/>
        <pt x="337" y="786" on="1"/>
        <pt x="337" y="600" on="0"/>
        <pt x="436" y="287" on="0"/>
        <pt x="643" y="96" on="0"/>
        <pt x="798" y="96" on="1"/>
        <pt x="959" y="96" on="0"/>
        <pt x="1029" y="170" on="1"/>
        <pt x="1116" y="381" on="1"/>
        <pt x="1258" y="362" on="1"/>
        <pt x="1214" y="56" on="1"/>
      </contour>
    </TTGlyph>
    <TTGlyph name="Ccircumflex" xMin="66" yMin="-23" xMax="1258" yMax="2013">
      <component glyphName="C" x="0" y="0" flags="0x0"/>
      <component glyphName="circumflex.cap" x="253" y="0" flags="0x0"/>
    </TTGlyph>
    <TTGlyph name="Cdotaccent" xMin="66" yMin="-23" xMax="1258" yMax="1986">
      <component glyphName="dotaccent.cap" x="493" y="0" flags="0x0"/>
      <component glyphName="C" x="0" y="0" flags="0x0"/>
    </TTGlyph>
    <TTGlyph name="D" xMin="95" yMin="-16" xMax="1489" yMax="1537">
      <contour>
        <pt x="264" y="133" on="1"/>
        <pt x="264" y="1385" on="1"/>
        <pt x="106" y="1411" on="1"/>
        <pt x="106" y="1522" on="1"/>
        <pt x="373" y="1522" on="1"/>
        <pt x="423" y="1522" on="0"/>
        <pt x="534" y="1528" on="0"/>
        <pt x="551" y="1529" on="1"/>
        <pt x="669" y="1537" on="0"/>
        <pt x="733" y="1537" on="1"/>
        <pt x="1116" y="1537" on="0"/>
        <pt x="1489" y="1155" on="0"/>
        <pt x="1489" y="809" on="1"/>
        <pt x="1489" y="566" on="0"/>
        <pt x="1299" y="192" on="0"/>
        <pt x="956" y="-16" on="0"/>
        <pt x="733" y="-16" on="1"/>
        <pt x="682" y="-16" on="0"/>
        <pt x="562" y="-8" on="1"/>
        <pt x="438" y="0" on="0"/>
        <pt x="383" y="0" on="1"/>
        <pt x="95" y="0" on="1"/>
        <pt x="95" y="109" on="1"/>
      </contour>
      <contour>
        <pt x="540" y="112" on="0"/>
        <pt x="631" y="104" on="0"/>
        <pt x="688" y="104" on="1"/>
        <pt x="734" y="104" on="1"/>
        <pt x="882" y="107" on="0"/>
        <pt x="1107" y="258" on="0"/>
        <pt x="1234" y="553" on="0"/>
        <pt x="1234" y="766" on="1"/>
        <pt x="1234" y="1089" on="0"/>
        <pt x="958" y="1419" on="0"/>
        <pt x="680" y="1419" on="1"/>
        <pt x="619" y="1419" on="0"/>
        <pt x="529" y="1409" on="1"/>
        <pt x="498" y="1406" on="1"/>
        <pt x="498" y="123" on="1"/>
      </contour>
    </TTGlyph>
    <TTGlyph name="Dcaron" xMin="95" yMin="-16" xMax="1489" yMax="2013">
      <component glyphName="caron.cap" x="465" y="0" flags="0x0"/>
      <component glyphName="D" x="0" y="0" flags="0x0"/>
    </TTGlyph>
    <TTGlyph name="Dcroat" xMin="95" yMin="-16" xMax="1489" yMax="1537">
      <contour>
        <pt x="264" y="845" on="1"/>
        <pt x="264" y="1385" on="1"/>
        <pt x="106" y="1411" on="1"/>
        <pt x="106" y="1522" on="1"/>
        <pt x="373" y="1522" on="1"/>
        <pt x="423" y="1522" on="0"/>
        <pt x="534" y="1528" on="0"/>
        <pt x="551" y="1529" on="1"/>
        <pt x="669" y="1537" on="0"/>
        <pt x="733" y="1537" on="1"/>
        <pt x="1116" y="1537" on="0"/>
        <pt x="1489" y="1155" on="0"/>
        <pt x="1489" y="809" on="1"/>
        <pt x="1489" y="566" on="0"/>
        <pt x="1299" y="192" on="0"/>
        <pt x="956" y="-16" on="0"/>
        <pt x="733" y="-16" on="1"/>
        <pt x="682" y="-16" on="0"/>
        <pt x="562" y="-8" on="1"/>
        <pt x="438" y="0" on="0"/>
        <pt x="383" y="0" on="1"/>
        <pt x="95" y="0" on="1"/>
        <pt x="95" y="109" on="1"/>
        <pt x="264" y="133" on="1"/>
        <pt x="264" y="716" on="1"/>
        <pt x="108" y="716" on="1"/>
        <pt x="108" y="845" on="1"/>
      </contour>
      <contour>
        <pt x="836" y="845" on="1"/>
        <pt x="836" y="716" on="1"/>
        <pt x="498" y="716" on="1"/>
        <pt x="498" y="123" on="1"/>
        <pt x="540" y="112" on="0"/>
        <pt x="631" y="104" on="0"/>
        <pt x="688" y="104" on="1"/>
        <pt x="734" y="104" on="1"/>
        <pt x="882" y="107" on="0"/>
        <pt x="1107" y="258" on="0"/>
        <pt x="1234" y="553" on="0"/>
        <pt x="1234" y="766" on="1"/>
        <pt x="1234" y="1089" on="0"/>
        <pt x="958" y="1419" on="0"/>
        <pt x="680" y="1419" on="1"/>
        <pt x="619" y="1419" on="0"/>
        <pt x="529" y="1409" on="1"/>
        <pt x="498" y="1406" on="1"/>
        <pt x="498" y="845" on="1"/>
      </contour>
    </TTGlyph>
    <TTGlyph name="E" xMin="96" yMin="0" xMax="1290" yMax="1522">
      <contour>
        <pt x="264" y="133" on="1"/>
        <pt x="264" y="1386" on="1"/>
        <pt x="99" y="1411" on="1"/>
        <pt x="99" y="1522" on="1"/>
        <pt x="1141" y="1522" on="1"/>
        <pt x="1169" y="1205" on="1"/>
        <pt x="1040" y="1205" on="1"/>
        <pt x="978" y="1395" on="1"/>
        <pt x="499" y="1408" on="1"/>
        <pt x="499" y="843" on="1"/>
        <pt x="824" y="849" on="1"/>
        <pt x="854" y="1015" on="1"/>
        <pt x="983" y="1015" on="1"/>
        <pt x="983" y="541" on="1"/>
        <pt x="854" y="541" on="1"/>
        <pt x="825" y="717" on="1"/>
        <pt x="499" y="722" on="1"/>
        <pt x="499" y="124" on="1"/>
        <pt x="1049" y="146" on="1"/>
        <pt x="1162" y="397" on="1"/>
        <pt x="1290" y="359" on="1"/>
        <pt x="1231" y="0" on="1"/>
        <pt x="96" y="0" on="1"/>
        <pt x="96" y="109" on="1"/>
      </contour>
    </TTGlyph>
    <TTGlyph name="Eacute" xMin="96" yMin="0" xMax="1290" yMax="2012">
      <component glyphName="acute.cap" x="45" y="0" flags="0x0"/>
      <component glyphName="E" x="0" y="0" flags="0x0"/>
    </TTGlyph>
    <TTGlyph name="Ebreve" xMin="96" yMin="0" xMax="1290" yMax="1998">
      <component glyphName="breve.cap" x="187" y="0" flags="0x0"/>
      <component glyphName="E" x="0" y="0" flags="0x0"/>
    </TTGlyph>
    <TTGlyph name="Ecaron" xMin="96" yMin="0" xMax="1290" yMax="2013">
      <component glyphName="caron.cap" x="360" y="0" flags="0x0"/>
      <component glyphName="E" x="0" y="0" flags="0x0"/>
    </TTGlyph>
    <TTGlyph name="Ecircumflex" xMin="96" yMin="0" xMax="1290" yMax="2013">
      <component glyphName="E" x="0" y="0" flags="0x0"/>
      <component glyphName="circumflex.cap" x="167" y="0" flags="0x0"/>
    </TTGlyph>
    <TTGlyph name="Edieresis" xMin="96" yMin="0" xMax="1290" yMax="1983">
      <component glyphName="dieresis.cap" x="187" y="0" flags="0x0"/>
      <component glyphName="E" x="0" y="0" flags="0x0"/>
    </TTGlyph>
    <TTGlyph name="Edotaccent" xMin="96" yMin="0" xMax="1290" yMax="1986">
      <component glyphName="dotaccent.cap" x="406" y="0" flags="0x0"/>
      <component glyphName="E" x="0" y="0" flags="0x0"/>
    </TTGlyph>
    <TTGlyph name="Egrave" xMin="96" yMin="0" xMax="1290" yMax="2012">
      <component glyphName="grave.cap" x="270" y="0" flags="0x0"/>
      <component glyphName="E" x="0" y="0" flags="0x0"/>
    </TTGlyph>
    <TTGlyph name="Emacron" xMin="96" yMin="0" xMax="1290" yMax="1904">
      <component glyphName="macron.cap" x="357" y="0" flags="0x0"/>
      <component glyphName="E" x="0" y="0" flags="0x0"/>
    </TTGlyph>
    <TTGlyph name="Eng" xMin="99" yMin="-363" xMax="1593" yMax="1522">
      <contour>
        <pt x="266" y="131" on="1"/>
        <pt x="266" y="1390" on="1"/>
        <pt x="99" y="1418" on="1"/>
        <pt x="99" y="1522" on="1"/>
        <pt x="500" y="1522" on="1"/>
        <pt x="1130" y="539" on="1"/>
        <pt x="1274" y="265" on="1"/>
        <pt x="1274" y="1388" on="1"/>
        <pt x="1100" y="1414" on="1"/>
        <pt x="1100" y="1522" on="1"/>
        <pt x="1593" y="1522" on="1"/>
        <pt x="1593" y="1414" on="1"/>
        <pt x="1425" y="1388" on="1"/>
        <pt x="1425" y="403" on="1"/>
        <pt x="1425" y="228" on="0"/>
        <pt x="1384" y="4" on="0"/>
        <pt x="1321" y="-120" on="0"/>
        <pt x="1275" y="-173" on="1"/>
        <pt x="1192" y="-264" on="0"/>
        <pt x="1016" y="-350" on="0"/>
        <pt x="904" y="-363" on="1"/>
        <pt x="850" y="-275" on="1"/>
        <pt x="944" y="-250" on="0"/>
        <pt x="1095" y="-151" on="0"/>
        <pt x="1144" y="-78" on="1"/>
        <pt x="1175" y="-31" on="0"/>
        <pt x="1195" y="25" on="1"/>
        <pt x="558" y="1008" on="1"/>
        <pt x="418" y="1280" on="1"/>
        <pt x="418" y="131" on="1"/>
        <pt x="606" y="107" on="1"/>
        <pt x="606" y="0" on="1"/>
        <pt x="99" y="0" on="1"/>
        <pt x="99" y="107" on="1"/>
      </contour>
    </TTGlyph>
    <TTGlyph name="Eogonek" xMin="96" yMin="-511" xMax="1290" yMax="1522">
      <contour>
        <pt x="264" y="133" on="1"/>
        <pt x="264" y="1386" on="1"/>
        <pt x="99" y="1411" on="1"/>
        <pt x="99" y="1522" on="1"/>
        <pt x="1141" y="1522" on="1"/>
        <pt x="1169" y="1205" on="1"/>
        <pt x="1040" y="1205" on="1"/>
        <pt x="978" y="1395" on="1"/>
        <pt x="499" y="1408" on="1"/>
        <pt x="499" y="843" on="1"/>
        <pt x="824" y="849" on="1"/>
        <pt x="854" y="1015" on="1"/>
        <pt x="983" y="1015" on="1"/>
        <pt x="983" y="541" on="1"/>
        <pt x="854" y="541" on="1"/>
        <pt x="825" y="717" on="1"/>
        <pt x="499" y="722" on="1"/>
        <pt x="499" y="124" on="1"/>
        <pt x="1049" y="146" on="1"/>
        <pt x="1162" y="397" on="1"/>
        <pt x="1290" y="359" on="1"/>
        <pt x="1231" y="0" on="1"/>
        <pt x="1216" y="0" on="1"/>
        <pt x="1152" y="-10" on="0"/>
        <pt x="1022" y="-95" on="0"/>
        <pt x="938" y="-202" on="0"/>
        <pt x="938" y="-244" on="1"/>
        <pt x="938" y="-305" on="0"/>
        <pt x="1019" y="-365" on="0"/>
        <pt x="1086" y="-365" on="1"/>
        <pt x="1153" y="-365" on="0"/>
        <pt x="1227" y="-332" on="1"/>
        <pt x="1227" y="-442" on="1"/>
        <pt x="1185" y="-474" on="0"/>
        <pt x="1054" y="-511" on="0"/>
        <pt x="990" y="-511" on="1"/>
        <pt x="878" y="-511" on="0"/>
        <pt x="730" y="-415" on="0"/>
        <pt x="730" y="-315" on="1"/>
        <pt x="730" y="-259" on="0"/>
        <pt x="806" y="-136" on="0"/>
        <pt x="938" y="-30" on="0"/>
        <pt x="1017" y="0" on="1"/>
        <pt x="96" y="0" on="1"/>
        <pt x="96" y="109" on="1"/>
      </contour>
    </TTGlyph>
    <TTGlyph name="Eth" xMin="95" yMin="-16" xMax="1489" yMax="1537">
      <contour>
        <pt x="264" y="851" on="1"/>
        <pt x="264" y="1385" on="1"/>
        <pt x="106" y="1411" on="1"/>
        <pt x="106" y="1522" on="1"/>
        <pt x="373" y="1522" on="1"/>
        <pt x="423" y="1522" on="0"/>
        <pt x="534" y="1528" on="0"/>
        <pt x="551" y="1529" on="1"/>
        <pt x="669" y="1537" on="0"/>
        <pt x="733" y="1537" on="1"/>
        <pt x="1116" y="1537" on="0"/>
        <pt x="1489" y="1155" on="0"/>
        <pt x="1489" y="809" on="1"/>
        <pt x="1489" y="566" on="0"/>
        <pt x="1299" y="192" on="0"/>
        <pt x="956" y="-16" on="0"/>
        <pt x="733" y="-16" on="1"/>
        <pt x="682" y="-16" on="0"/>
        <pt x="562" y="-8" on="1"/>
        <pt x="438" y="0" on="0"/>
        <pt x="383" y="0" on="1"/>
        <pt x="95" y="0" on="1"/>
        <pt x="95" y="109" on="1"/>
        <pt x="264" y="133" on="1"/>
        <pt x="264" y="735" on="1"/>
        <pt x="112" y="735" on="1"/>
        <pt x="112" y="851" on="1"/>
      </contour>
      <contour>
        <pt x="839" y="851" on="1"/>
        <pt x="839" y="735" on="1"/>
        <pt x="498" y="735" on="1"/>
        <pt x="498" y="123" on="1"/>
        <pt x="540" y="112" on="0"/>
        <pt x="631" y="104" on="0"/>
        <pt x="688" y="104" on="1"/>
        <pt x="734" y="104" on="1"/>
        <pt x="882" y="107" on="0"/>
        <pt x="1107" y="258" on="0"/>
        <pt x="1234" y="553" on="0"/>
        <pt x="1234" y="766" on="1"/>
        <pt x="1234" y="1089" on="0"/>
        <pt x="958" y="1419" on="0"/>
        <pt x="680" y="1419" on="1"/>
        <pt x="619" y="1419" on="0"/>
        <pt x="529" y="1409" on="1"/>
        <pt x="498" y="1406" on="1"/>
        <pt x="498" y="851" on="1"/>
      </contour>
    </TTGlyph>
    <TTGlyph name="Euro" xMin="77" yMin="-28" xMax="1383" yMax="1550">
      <contour>
        <pt x="281" y="658" on="1"/>
        <pt x="280" y="680" on="0"/>
        <pt x="280" y="727" on="1"/>
        <pt x="280" y="821" on="0"/>
        <pt x="292" y="905" on="1"/>
        <pt x="98" y="905" on="1"/>
        <pt x="98" y="1027" on="1"/>
        <pt x="316" y="1027" on="1"/>
        <pt x="359" y="1192" on="0"/>
        <pt x="544" y="1427" on="0"/>
        <pt x="812" y="1550" on="0"/>
        <pt x="978" y="1550" on="1"/>
        <pt x="1070" y="1550" on="0"/>
        <pt x="1217" y="1521" on="0"/>
        <pt x="1297" y="1496" on="1"/>
        <pt x="1309" y="1493" on="0"/>
        <pt x="1364" y="1477" on="0"/>
        <pt x="1383" y="1474" on="1"/>
        <pt x="1365" y="1152" on="1"/>
        <pt x="1240" y="1152" on="1"/>
        <pt x="1195" y="1358" on="1"/>
        <pt x="1166" y="1390" on="0"/>
        <pt x="1023" y="1428" on="0"/>
        <pt x="937" y="1428" on="1"/>
        <pt x="781" y="1428" on="0"/>
        <pt x="585" y="1225" on="0"/>
        <pt x="549" y="1027" on="1"/>
        <pt x="1084" y="1027" on="1"/>
        <pt x="1084" y="905" on="1"/>
        <pt x="534" y="905" on="1"/>
        <pt x="529" y="851" on="0"/>
        <pt x="529" y="770" on="1"/>
        <pt x="529" y="694" on="0"/>
        <pt x="531" y="658" on="1"/>
        <pt x="1055" y="658" on="1"/>
        <pt x="1055" y="536" on="1"/>
        <pt x="542" y="536" on="1"/>
        <pt x="571" y="318" on="0"/>
        <pt x="763" y="83" on="0"/>
        <pt x="944" y="83" on="1"/>
        <pt x="1020" y="83" on="0"/>
        <pt x="1138" y="130" on="0"/>
        <pt x="1192" y="178" on="1"/>
        <pt x="1264" y="336" on="1"/>
        <pt x="1381" y="313" on="1"/>
        <pt x="1358" y="66" on="1"/>
        <pt x="1338" y="65" on="0"/>
        <pt x="1292" y="52" on="0"/>
        <pt x="1252" y="38" on="1"/>
        <pt x="1168" y="8" on="0"/>
        <pt x="1009" y="-28" on="0"/>
        <pt x="897" y="-28" on="1"/>
        <pt x="727" y="-28" on="0"/>
        <pt x="475" y="109" on="0"/>
        <pt x="321" y="362" on="0"/>
        <pt x="294" y="536" on="1"/>
        <pt x="77" y="536" on="1"/>
        <pt x="77" y="658" on="1"/>
      </contour>
    </TTGlyph>
    <TTGlyph name="F" xMin="96" yMin="0" xMax="1209" yMax="1522">
      <contour>
        <pt x="264" y="133" on="1"/>
        <pt x="264" y="1386" on="1"/>
        <pt x="96" y="1411" on="1"/>
        <pt x="96" y="1522" on="1"/>
        <pt x="1188" y="1522" on="1"/>
        <pt x="1209" y="1172" on="1"/>
        <pt x="1064" y="1172" on="1"/>
        <pt x="998" y="1394" on="1"/>
        <pt x="499" y="1408" on="1"/>
        <pt x="499" y="825" on="1"/>
        <pt x="847" y="829" on="1"/>
        <pt x="887" y="997" on="1"/>
        <pt x="1010" y="997" on="1"/>
        <pt x="1010" y="520" on="1"/>
        <pt x="887" y="520" on="1"/>
        <pt x="847" y="691" on="1"/>
        <pt x="499" y="700" on="1"/>
        <pt x="499" y="133" on="1"/>
        <pt x="803" y="109" on="1"/>
        <pt x="803" y="0" on="1"/>
        <pt x="99" y="0" on="1"/>
        <pt x="99" y="109" on="1"/>
      </contour>
    </TTGlyph>
    <TTGlyph name="G" xMin="87" yMin="-23" xMax="1480" yMax="1539">
      <contour>
        <pt x="87" y="985" on="0"/>
        <pt x="291" y="1347" on="0"/>
        <pt x="645" y="1539" on="0"/>
        <pt x="866" y="1539" on="1"/>
        <pt x="1004" y="1539" on="0"/>
        <pt x="1243" y="1500" on="0"/>
        <pt x="1346" y="1475" on="1"/>
        <pt x="1326" y="1120" on="1"/>
        <pt x="1172" y="1120" on="1"/>
        <pt x="1118" y="1357" on="1"/>
        <pt x="1093" y="1382" on="0"/>
        <pt x="965" y="1422" on="0"/>
        <pt x="850" y="1422" on="1"/>
        <pt x="704" y="1422" on="0"/>
        <pt x="482" y="1279" on="0"/>
        <pt x="357" y="996" on="0"/>
        <pt x="357" y="792" on="1"/>
        <pt x="357" y="605" on="0"/>
        <pt x="462" y="289" on="0"/>
        <pt x="679" y="96" on="0"/>
        <pt x="837" y="96" on="1"/>
        <pt x="927" y="96" on="0"/>
        <pt x="1085" y="139" on="0"/>
        <pt x="1128" y="181" on="1"/>
        <pt x="1128" y="619" on="1"/>
        <pt x="883" y="642" on="1"/>
        <pt x="883" y="771" on="1"/>
        <pt x="1480" y="771" on="1"/>
        <pt x="1480" y="642" on="1"/>
        <pt x="1363" y="621" on="1"/>
        <pt x="1363" y="82" on="1"/>
        <pt x="1337" y="81" on="0"/>
        <pt x="1270" y="64" on="0"/>
        <pt x="1220" y="48" on="1"/>
        <pt x="1114" y="15" on="0"/>
        <pt x="930" y="-23" on="0"/>
        <pt x="817" y="-23" on="1"/>
        <pt x="592" y="-23" on="0"/>
        <pt x="262" y="174" on="0"/>
        <pt x="87" y="520" on="0"/>
        <pt x="87" y="738" on="1"/>
      </contour>
    </TTGlyph>
    <TTGlyph name="Gbreve" xMin="93" yMin="-23" xMax="1486" yMax="1998">
      <component glyphName="breve.cap" x="330" y="0" flags="0x0"/>
      <component glyphName="G" x="6" y="0" flags="0x0"/>
    </TTGlyph>
    <TTGlyph name="Gcaron" xMin="87" yMin="-23" xMax="1480" yMax="2013">
      <component glyphName="G" x="0" y="0" flags="0x0"/>
      <component glyphName="caron.cap" x="497" y="0" flags="0x0"/>
    </TTGlyph>
    <TTGlyph name="Gcircumflex" xMin="87" yMin="-23" xMax="1480" yMax="2013">
      <component glyphName="G" x="0" y="0" flags="0x0"/>
      <component glyphName="circumflex.cap" x="304" y="0" flags="0x0"/>
    </TTGlyph>
    <TTGlyph name="Gcommaaccent" xMin="94" yMin="-560" xMax="1487" yMax="1539">
      <component glyphName="uni0326" x="1133" y="0" flags="0x0"/>
      <component glyphName="G" x="7" y="0" flags="0x0"/>
    </TTGlyph>
    <TTGlyph name="Gdotaccent" xMin="93" yMin="-23" xMax="1486" yMax="1986">
      <component glyphName="dotaccent.cap" x="550" y="0" flags="0x0"/>
      <component glyphName="G" x="6" y="0" flags="0x0"/>
    </TTGlyph>
    <TTGlyph name="Gtilde" xMin="87" yMin="-23" xMax="1480" yMax="2008">
      <component glyphName="G" x="0" y="0" flags="0x0"/>
      <component glyphName="tilde.cap" x="325" y="0" flags="0x0"/>
    </TTGlyph>
    <TTGlyph name="H" xMin="100" yMin="0" xMax="1595" yMax="1522">
      <contour>
        <pt x="265" y="133" on="1"/>
        <pt x="265" y="1385" on="1"/>
        <pt x="106" y="1411" on="1"/>
        <pt x="106" y="1522" on="1"/>
        <pt x="672" y="1522" on="1"/>
        <pt x="672" y="1411" on="1"/>
        <pt x="500" y="1386" on="1"/>
        <pt x="500" y="846" on="1"/>
        <pt x="1200" y="846" on="1"/>
        <pt x="1200" y="1386" on="1"/>
        <pt x="1036" y="1411" on="1"/>
        <pt x="1036" y="1522" on="1"/>
        <pt x="1595" y="1522" on="1"/>
        <pt x="1595" y="1411" on="1"/>
        <pt x="1435" y="1386" on="1"/>
        <pt x="1435" y="132" on="1"/>
        <pt x="1595" y="109" on="1"/>
        <pt x="1595" y="0" on="1"/>
        <pt x="1037" y="0" on="1"/>
        <pt x="1037" y="109" on="1"/>
        <pt x="1200" y="132" on="1"/>
        <pt x="1200" y="714" on="1"/>
        <pt x="500" y="714" on="1"/>
        <pt x="500" y="133" on="1"/>
        <pt x="672" y="109" on="1"/>
        <pt x="672" y="0" on="1"/>
        <pt x="100" y="0" on="1"/>
        <pt x="100" y="109" on="1"/>
      </contour>
    </TTGlyph>
    <TTGlyph name="Hbar" xMin="52" yMin="0" xMax="1652" yMax="1522">
      <contour>
        <pt x="265" y="1135" on="1"/>
        <pt x="265" y="1385" on="1"/>
        <pt x="103" y="1411" on="1"/>
        <pt x="103" y="1522" on="1"/>
        <pt x="670" y="1522" on="1"/>
        <pt x="670" y="1411" on="1"/>
        <pt x="498" y="1386" on="1"/>
        <pt x="498" y="1135" on="1"/>
        <pt x="1201" y="1135" on="1"/>
        <pt x="1201" y="1386" on="1"/>
        <pt x="1038" y="1411" on="1"/>
        <pt x="1038" y="1522" on="1"/>
        <pt x="1597" y="1522" on="1"/>
        <pt x="1597" y="1411" on="1"/>
        <pt x="1435" y="1386" on="1"/>
        <pt x="1435" y="1135" on="1"/>
        <pt x="1652" y="1135" on="1"/>
        <pt x="1652" y="1023" on="1"/>
        <pt x="1435" y="1023" on="1"/>
        <pt x="1435" y="134" on="1"/>
        <pt x="1596" y="108" on="1"/>
        <pt x="1596" y="0" on="1"/>
        <pt x="1039" y="0" on="1"/>
        <pt x="1039" y="108" on="1"/>
        <pt x="1201" y="133" on="1"/>
        <pt x="1201" y="612" on="1"/>
        <pt x="498" y="612" on="1"/>
        <pt x="498" y="133" on="1"/>
        <pt x="671" y="109" on="1"/>
        <pt x="671" y="0" on="1"/>
        <pt x="97" y="0" on="1"/>
        <pt x="97" y="109" on="1"/>
        <pt x="265" y="133" on="1"/>
        <pt x="265" y="1023" on="1"/>
        <pt x="52" y="1023" on="1"/>
        <pt x="52" y="1135" on="1"/>
      </contour>
      <contour>
        <pt x="1201" y="1023" on="1"/>
        <pt x="498" y="1023" on="1"/>
        <pt x="498" y="743" on="1"/>
        <pt x="1201" y="743" on="1"/>
      </contour>
    </TTGlyph>
    <TTGlyph name="Hcircumflex" xMin="100" yMin="0" xMax="1595" yMax="2013">
      <component glyphName="H" x="0" y="0" flags="0x0"/>
      <component glyphName="circumflex.cap" x="319" y="0" flags="0x0"/>
    </TTGlyph>
    <TTGlyph name="I" xMin="112" yMin="0" xMax="717" yMax="1522">
      <contour>
        <pt x="295" y="133" on="1"/>
        <pt x="295" y="1385" on="1"/>
        <pt x="112" y="1411" on="1"/>
        <pt x="112" y="1522" on="1"/>
        <pt x="714" y="1522" on="1"/>
        <pt x="714" y="1411" on="1"/>
        <pt x="531" y="1386" on="1"/>
        <pt x="531" y="133" on="1"/>
        <pt x="717" y="106" on="1"/>
        <pt x="717" y="0" on="1"/>
        <pt x="112" y="0" on="1"/>
        <pt x="112" y="109" on="1"/>
      </contour>
    </TTGlyph>
    <TTGlyph name="I.uc" xMin="112" yMin="0" xMax="717" yMax="1986">
      <component glyphName="I" x="0" y="0" flags="0x0"/>
      <component glyphName="dotaccent.cap" x="126" y="0" flags="0x0"/>
    </TTGlyph>
    <TTGlyph name="IJ" xMin="112" yMin="-368" xMax="1530" yMax="1522">
      <component glyphName="I" x="0" y="0" flags="0x0"/>
      <component glyphName="J" x="827" y="0" flags="0x0"/>
    </TTGlyph>
    <TTGlyph name="IJ_acutecomb" xMin="112" yMin="-368" xMax="1530" yMax="2009">
      <contour>
        <pt x="552" y="2009" on="1"/>
        <pt x="553" y="2009" on="1"/>
        <pt x="706" y="1882" on="1"/>
        <pt x="670" y="1835" on="0"/>
        <pt x="516" y="1730" on="0"/>
        <pt x="350" y="1645" on="0"/>
        <pt x="302" y="1630" on="1"/>
        <pt x="301" y="1630" on="1"/>
        <pt x="221" y="1698" on="1"/>
      </contour>
      <contour>
        <pt x="1352" y="2007" on="1"/>
        <pt x="1353" y="2007" on="1"/>
        <pt x="1506" y="1880" on="1"/>
        <pt x="1470" y="1833" on="0"/>
        <pt x="1316" y="1728" on="0"/>
        <pt x="1150" y="1643" on="0"/>
        <pt x="1102" y="1628" on="1"/>
        <pt x="1101" y="1628" on="1"/>
        <pt x="1021" y="1696" on="1"/>
      </contour>
      <contour>
        <pt x="295" y="133" on="1"/>
        <pt x="295" y="1385" on="1"/>
        <pt x="112" y="1411" on="1"/>
        <pt x="112" y="1522" on="1"/>
        <pt x="714" y="1522" on="1"/>
        <pt x="714" y="1411" on="1"/>
        <pt x="531" y="1386" on="1"/>
        <pt x="531" y="133" on="1"/>
        <pt x="717" y="106" on="1"/>
        <pt x="717" y="0" on="1"/>
        <pt x="112" y="0" on="1"/>
        <pt x="112" y="109" on="1"/>
      </contour>
      <contour>
        <pt x="864" y="-263" on="0"/>
        <pt x="967" y="-188" on="0"/>
        <pt x="1052" y="-73" on="0"/>
        <pt x="1074" y="-5" on="1"/>
        <pt x="1098" y="77" on="0"/>
        <pt x="1116" y="279" on="0"/>
        <pt x="1116" y="485" on="1"/>
        <pt x="1116" y="1385" on="1"/>
        <pt x="928" y="1411" on="1"/>
        <pt x="928" y="1522" on="1"/>
        <pt x="1530" y="1522" on="1"/>
        <pt x="1530" y="1411" on="1"/>
        <pt x="1349" y="1385" on="1"/>
        <pt x="1349" y="565" on="1"/>
        <pt x="1349" y="450" on="1"/>
        <pt x="1349" y="301" on="0"/>
        <pt x="1340" y="114" on="0"/>
        <pt x="1325" y="46" on="1"/>
        <pt x="1300" y="-70" on="0"/>
        <pt x="1160" y="-242" on="0"/>
        <pt x="973" y="-347" on="0"/>
        <pt x="872" y="-368" on="1"/>
        <pt x="815" y="-276" on="1"/>
      </contour>
    </TTGlyph>
    <TTGlyph name="Iacute" xMin="112" yMin="0" xMax="756" yMax="2012">
      <component glyphName="I" x="0" y="0" flags="0x0"/>
      <component glyphName="acute.cap" x="-233" y="0" flags="0x0"/>
    </TTGlyph>
    <TTGlyph name="Ibreve" xMin="73" yMin="0" xMax="757" yMax="1998">
      <component glyphName="I" x="0" y="0" flags="0x0"/>
      <component glyphName="breve.cap" x="-94" y="0" flags="0x0"/>
    </TTGlyph>
    <TTGlyph name="Icircumflex" xMin="52" yMin="0" xMax="780" yMax="2013">
      <component glyphName="I" x="0" y="0" flags="0x0"/>
      <component glyphName="circumflex.cap" x="-115" y="0" flags="0x0"/>
    </TTGlyph>
    <TTGlyph name="Idieresis" xMin="26" yMin="0" xMax="806" yMax="1983">
      <component glyphName="I" x="0" y="0" flags="0x0"/>
      <component glyphName="dieresis.cap" x="-94" y="0" flags="0x0"/>
    </TTGlyph>
    <TTGlyph name="Idotaccent" xMin="112" yMin="0" xMax="717" yMax="1986">
      <component glyphName="I" x="0" y="0" flags="0x0"/>
      <component glyphName="dotaccent.cap" x="126" y="0" flags="0x0"/>
    </TTGlyph>
    <TTGlyph name="Igrave" xMin="98" yMin="0" xMax="717" yMax="2012">
      <component glyphName="I" x="0" y="0" flags="0x0"/>
      <component glyphName="grave.cap" x="12" y="0" flags="0x0"/>
    </TTGlyph>
    <TTGlyph name="Imacron" xMin="112" yMin="0" xMax="717" yMax="1904">
      <component glyphName="I" x="0" y="0" flags="0x0"/>
      <component glyphName="macron.cap" x="76" y="0" flags="0x0"/>
    </TTGlyph>
    <TTGlyph name="Iogonek" xMin="112" yMin="-511" xMax="717" yMax="1522">
      <contour>
        <pt x="295" y="133" on="1"/>
        <pt x="295" y="1385" on="1"/>
        <pt x="112" y="1411" on="1"/>
        <pt x="112" y="1522" on="1"/>
        <pt x="714" y="1522" on="1"/>
        <pt x="714" y="1411" on="1"/>
        <pt x="531" y="1386" on="1"/>
        <pt x="531" y="133" on="1"/>
        <pt x="717" y="106" on="1"/>
        <pt x="717" y="0" on="1"/>
        <pt x="527" y="0" on="1"/>
        <pt x="472" y="-27" on="0"/>
        <pt x="379" y="-113" on="0"/>
        <pt x="325" y="-206" on="0"/>
        <pt x="325" y="-244" on="1"/>
        <pt x="325" y="-305" on="0"/>
        <pt x="408" y="-365" on="0"/>
        <pt x="477" y="-365" on="1"/>
        <pt x="542" y="-365" on="0"/>
        <pt x="618" y="-332" on="1"/>
        <pt x="618" y="-442" on="1"/>
        <pt x="575" y="-474" on="0"/>
        <pt x="444" y="-511" on="0"/>
        <pt x="380" y="-511" on="1"/>
        <pt x="269" y="-511" on="0"/>
        <pt x="118" y="-414" on="0"/>
        <pt x="118" y="-315" on="1"/>
        <pt x="118" y="-260" on="0"/>
        <pt x="187" y="-137" on="0"/>
        <pt x="301" y="-31" on="0"/>
        <pt x="365" y="0" on="1"/>
        <pt x="112" y="0" on="1"/>
        <pt x="112" y="109" on="1"/>
      </contour>
    </TTGlyph>
    <TTGlyph name="Itilde" xMin="-12" yMin="0" xMax="846" yMax="2008">
      <component glyphName="I" x="0" y="0" flags="0x0"/>
      <component glyphName="tilde.cap" x="-94" y="0" flags="0x0"/>
    </TTGlyph>
    <TTGlyph name="J" xMin="-12" yMin="-368" xMax="703" yMax="1522">
      <contour>
        <pt x="37" y="-263" on="0"/>
        <pt x="140" y="-188" on="0"/>
        <pt x="225" y="-73" on="0"/>
        <pt x="247" y="-5" on="1"/>
        <pt x="271" y="77" on="0"/>
        <pt x="289" y="279" on="0"/>
        <pt x="289" y="485" on="1"/>
        <pt x="289" y="1385" on="1"/>
        <pt x="101" y="1411" on="1"/>
        <pt x="101" y="1522" on="1"/>
        <pt x="703" y="1522" on="1"/>
        <pt x="703" y="1411" on="1"/>
        <pt x="522" y="1385" on="1"/>
        <pt x="522" y="565" on="1"/>
        <pt x="522" y="450" on="1"/>
        <pt x="522" y="301" on="0"/>
        <pt x="513" y="114" on="0"/>
        <pt x="498" y="46" on="1"/>
        <pt x="473" y="-70" on="0"/>
        <pt x="333" y="-242" on="0"/>
        <pt x="146" y="-347" on="0"/>
        <pt x="45" y="-368" on="1"/>
        <pt x="-12" y="-276" on="1"/>
      </contour>
    </TTGlyph>
    <TTGlyph name="Jcircumflex" xMin="-12" yMin="-368" xMax="764" yMax="2013">
      <component glyphName="J" x="0" y="0" flags="0x0"/>
      <component glyphName="circumflex.cap" x="-131" y="0" flags="0x0"/>
    </TTGlyph>
    <TTGlyph name="K" xMin="97" yMin="0" xMax="1490" yMax="1522">
      <contour>
        <pt x="1147" y="0" on="0"/>
        <pt x="1037" y="170" on="0"/>
        <pt x="943" y="346" on="1"/>
        <pt x="863" y="496" on="0"/>
        <pt x="751" y="684" on="0"/>
        <pt x="700" y="741" on="1"/>
        <pt x="501" y="512" on="1"/>
        <pt x="501" y="132" on="1"/>
        <pt x="689" y="108" on="1"/>
        <pt x="689" y="0" on="1"/>
        <pt x="97" y="0" on="1"/>
        <pt x="97" y="109" on="1"/>
        <pt x="266" y="133" on="1"/>
        <pt x="266" y="1386" on="1"/>
        <pt x="101" y="1411" on="1"/>
        <pt x="101" y="1522" on="1"/>
        <pt x="663" y="1522" on="1"/>
        <pt x="663" y="1411" on="1"/>
        <pt x="501" y="1385" on="1"/>
        <pt x="501" y="685" on="1"/>
        <pt x="1079" y="1386" on="1"/>
        <pt x="914" y="1411" on="1"/>
        <pt x="913" y="1522" on="1"/>
        <pt x="1423" y="1522" on="1"/>
        <pt x="1423" y="1412" on="1"/>
        <pt x="1267" y="1386" on="1"/>
        <pt x="838" y="900" on="1"/>
        <pt x="906" y="840" on="0"/>
        <pt x="1069" y="607" on="0"/>
        <pt x="1179" y="431" on="1"/>
        <pt x="1274" y="280" on="0"/>
        <pt x="1374" y="138" on="0"/>
        <pt x="1400" y="133" on="1"/>
        <pt x="1490" y="108" on="1"/>
        <pt x="1490" y="0" on="1"/>
        <pt x="1183" y="0" on="1"/>
      </contour>
    </TTGlyph>
    <TTGlyph name="Kcommaaccent" xMin="97" yMin="-560" xMax="1490" yMax="1522">
      <component glyphName="uni0326" x="1133" y="0" flags="0x0"/>
      <component glyphName="K" x="0" y="0" flags="0x0"/>
    </TTGlyph>
    <TTGlyph name="L" xMin="98" yMin="0" xMax="1264" yMax="1522">
      <contour>
        <pt x="266" y="133" on="1"/>
        <pt x="266" y="1386" on="1"/>
        <pt x="101" y="1411" on="1"/>
        <pt x="101" y="1522" on="1"/>
        <pt x="696" y="1522" on="1"/>
        <pt x="696" y="1411" on="1"/>
        <pt x="503" y="1385" on="1"/>
        <pt x="503" y="132" on="1"/>
        <pt x="1008" y="152" on="1"/>
        <pt x="1130" y="486" on="1"/>
        <pt x="1264" y="463" on="1"/>
        <pt x="1196" y="0" on="1"/>
        <pt x="98" y="0" on="1"/>
        <pt x="98" y="109" on="1"/>
      </contour>
    </TTGlyph>
    <TTGlyph name="Lacute" xMin="98" yMin="0" xMax="1264" yMax="2012">
      <component glyphName="acute.cap" x="-150" y="0" flags="0x0"/>
      <component glyphName="L" x="0" y="0" flags="0x0"/>
    </TTGlyph>
    <TTGlyph name="Lcaron" xMin="98" yMin="0" xMax="1264" yMax="1685">
      <component glyphName="L" x="0" y="0" flags="0x0"/>
      <component glyphName="caronvertical" x="838" y="0" flags="0x0"/>
    </TTGlyph>
    <TTGlyph name="Lcommaaccent" xMin="98" yMin="-560" xMax="1264" yMax="1522">
      <component glyphName="uni0326" x="1033" y="0" flags="0x0"/>
      <component glyphName="L" x="0" y="0" flags="0x0"/>
    </TTGlyph>
    <TTGlyph name="Ldot" xMin="98" yMin="0" xMax="1264" yMax="1522">
      <component glyphName="L" x="0" y="0" flags="0x0"/>
      <component glyphName="period" x="682" y="735" flags="0x4"/>
    </TTGlyph>
    <TTGlyph name="Lslash" xMin="47" yMin="0" xMax="1264" yMax="1522">
      <contour>
        <pt x="266" y="742" on="1"/>
        <pt x="266" y="1386" on="1"/>
        <pt x="101" y="1411" on="1"/>
        <pt x="101" y="1522" on="1"/>
        <pt x="696" y="1522" on="1"/>
        <pt x="696" y="1411" on="1"/>
        <pt x="503" y="1385" on="1"/>
        <pt x="503" y="839" on="1"/>
        <pt x="886" y="1007" on="1"/>
        <pt x="886" y="876" on="1"/>
        <pt x="503" y="712" on="1"/>
        <pt x="503" y="132" on="1"/>
        <pt x="1008" y="152" on="1"/>
        <pt x="1130" y="486" on="1"/>
        <pt x="1264" y="463" on="1"/>
        <pt x="1196" y="0" on="1"/>
        <pt x="98" y="0" on="1"/>
        <pt x="98" y="109" on="1"/>
        <pt x="266" y="133" on="1"/>
        <pt x="266" y="617" on="1"/>
        <pt x="47" y="524" on="1"/>
        <pt x="47" y="647" on="1"/>
      </contour>
    </TTGlyph>
    <TTGlyph name="M" xMin="1" yMin="0" xMax="2046" yMax="1522">
      <contour>
        <pt x="179" y="132" on="1"/>
        <pt x="329" y="1386" on="1"/>
        <pt x="115" y="1411" on="1"/>
        <pt x="115" y="1522" on="1"/>
        <pt x="661" y="1522" on="1"/>
        <pt x="975" y="605" on="1"/>
        <pt x="1027" y="375" on="1"/>
        <pt x="1072" y="605" on="1"/>
        <pt x="1349" y="1522" on="1"/>
        <pt x="1895" y="1522" on="1"/>
        <pt x="1895" y="1411" on="1"/>
        <pt x="1673" y="1385" on="1"/>
        <pt x="1867" y="133" on="1"/>
        <pt x="2046" y="109" on="1"/>
        <pt x="2046" y="0" on="1"/>
        <pt x="1452" y="0" on="1"/>
        <pt x="1452" y="109" on="1"/>
        <pt x="1629" y="132" on="1"/>
        <pt x="1503" y="1040" on="1"/>
        <pt x="1459" y="1439" on="1"/>
        <pt x="1390" y="1165" on="1"/>
        <pt x="1064" y="68" on="1"/>
        <pt x="935" y="68" on="1"/>
        <pt x="574" y="1053" on="1"/>
        <pt x="463" y="1438" on="1"/>
        <pt x="431" y="1041" on="1"/>
        <pt x="350" y="133" on="1"/>
        <pt x="547" y="109" on="1"/>
        <pt x="547" y="0" on="1"/>
        <pt x="1" y="0" on="1"/>
        <pt x="1" y="109" on="1"/>
      </contour>
    </TTGlyph>
    <TTGlyph name="N" xMin="98" yMin="0" xMax="1589" yMax="1522">
      <contour>
        <pt x="263" y="132" on="1"/>
        <pt x="263" y="1385" on="1"/>
        <pt x="98" y="1411" on="1"/>
        <pt x="98" y="1522" on="1"/>
        <pt x="493" y="1522" on="1"/>
        <pt x="1166" y="539" on="1"/>
        <pt x="1272" y="341" on="1"/>
        <pt x="1272" y="1386" on="1"/>
        <pt x="1093" y="1411" on="1"/>
        <pt x="1093" y="1522" on="1"/>
        <pt x="1589" y="1522" on="1"/>
        <pt x="1589" y="1411" on="1"/>
        <pt x="1423" y="1385" on="1"/>
        <pt x="1423" y="0" on="1"/>
        <pt x="1259" y="0" on="1"/>
        <pt x="570" y="1003" on="1"/>
        <pt x="414" y="1275" on="1"/>
        <pt x="414" y="133" on="1"/>
        <pt x="605" y="109" on="1"/>
        <pt x="605" y="0" on="1"/>
        <pt x="98" y="0" on="1"/>
        <pt x="98" y="109" on="1"/>
      </contour>
    </TTGlyph>
    <TTGlyph name="Nacute" xMin="98" yMin="0" xMax="1589" yMax="2012">
      <component glyphName="acute.cap" x="215" y="0" flags="0x0"/>
      <component glyphName="N" x="0" y="0" flags="0x0"/>
    </TTGlyph>
    <TTGlyph name="Ncaron" xMin="98" yMin="0" xMax="1589" yMax="2013">
      <component glyphName="caron.cap" x="516" y="0" flags="0x0"/>
      <component glyphName="N" x="0" y="0" flags="0x0"/>
    </TTGlyph>
    <TTGlyph name="Ncommaaccent" xMin="98" yMin="-560" xMax="1589" yMax="1522">
      <component glyphName="uni0326" x="1192" y="0" flags="0x0"/>
      <component glyphName="N" x="0" y="0" flags="0x0"/>
    </TTGlyph>
    <TTGlyph name="Ntilde" xMin="98" yMin="0" xMax="1589" yMax="2008">
      <component glyphName="tilde.cap" x="319" y="0" flags="0x0"/>
      <component glyphName="N" x="0" y="0" flags="0x0"/>
    </TTGlyph>
    <TTGlyph name="O" xMin="66" yMin="-23" xMax="1413" yMax="1539">
      <contour>
        <pt x="66" y="986" on="0"/>
        <pt x="246" y="1344" on="0"/>
        <pt x="561" y="1539" on="0"/>
        <pt x="758" y="1539" on="1"/>
        <pt x="972" y="1539" on="0"/>
        <pt x="1266" y="1352" on="0"/>
        <pt x="1413" y="1010" on="0"/>
        <pt x="1413" y="777" on="1"/>
        <pt x="1413" y="538" on="0"/>
        <pt x="1232" y="175" on="0"/>
        <pt x="913" y="-23" on="0"/>
        <pt x="713" y="-23" on="1"/>
        <pt x="505" y="-23" on="0"/>
        <pt x="214" y="170" on="0"/>
        <pt x="66" y="519" on="0"/>
        <pt x="66" y="750" on="1"/>
      </contour>
      <contour>
        <pt x="326" y="551" on="0"/>
        <pt x="424" y="255" on="0"/>
        <pt x="610" y="95" on="0"/>
        <pt x="740" y="95" on="1"/>
        <pt x="867" y="95" on="0"/>
        <pt x="1052" y="247" on="0"/>
        <pt x="1154" y="552" on="0"/>
        <pt x="1154" y="776" on="1"/>
        <pt x="1154" y="976" on="0"/>
        <pt x="1057" y="1267" on="0"/>
        <pt x="871" y="1422" on="0"/>
        <pt x="741" y="1422" on="1"/>
        <pt x="613" y="1422" on="0"/>
        <pt x="427" y="1275" on="0"/>
        <pt x="326" y="975" on="0"/>
        <pt x="326" y="751" on="1"/>
      </contour>
    </TTGlyph>
    <TTGlyph name="OE" xMin="78" yMin="-16" xMax="2078" yMax="1542">
      <contour>
        <pt x="1027" y="59" on="1"/>
        <pt x="892" y="-16" on="0"/>
        <pt x="728" y="-16" on="1"/>
        <pt x="522" y="-16" on="0"/>
        <pt x="229" y="177" on="0"/>
        <pt x="78" y="524" on="0"/>
        <pt x="78" y="752" on="1"/>
        <pt x="78" y="988" on="0"/>
        <pt x="257" y="1345" on="0"/>
        <pt x="572" y="1541" on="0"/>
        <pt x="769" y="1542" on="1"/>
        <pt x="919" y="1542" on="0"/>
        <pt x="1027" y="1495" on="1"/>
        <pt x="1027" y="1522" on="1"/>
        <pt x="1906" y="1522" on="1"/>
        <pt x="1933" y="1203" on="1"/>
        <pt x="1806" y="1203" on="1"/>
        <pt x="1744" y="1394" on="1"/>
        <pt x="1261" y="1407" on="1"/>
        <pt x="1261" y="841" on="1"/>
        <pt x="1589" y="848" on="1"/>
        <pt x="1619" y="1012" on="1"/>
        <pt x="1749" y="1012" on="1"/>
        <pt x="1749" y="544" on="1"/>
        <pt x="1619" y="544" on="1"/>
        <pt x="1589" y="715" on="1"/>
        <pt x="1261" y="721" on="1"/>
        <pt x="1261" y="123" on="1"/>
        <pt x="1821" y="145" on="1"/>
        <pt x="1951" y="396" on="1"/>
        <pt x="2078" y="359" on="1"/>
        <pt x="2002" y="0" on="1"/>
        <pt x="1027" y="0" on="1"/>
      </contour>
      <contour>
        <pt x="1027" y="1317" on="1"/>
        <pt x="932" y="1431" on="0"/>
        <pt x="753" y="1431" on="1"/>
        <pt x="622" y="1431" on="0"/>
        <pt x="434" y="1276" on="0"/>
        <pt x="334" y="972" on="0"/>
        <pt x="334" y="753" on="1"/>
        <pt x="334" y="566" on="0"/>
        <pt x="434" y="269" on="0"/>
        <pt x="625" y="99" on="0"/>
        <pt x="755" y="99" on="1"/>
        <pt x="926" y="99" on="0"/>
        <pt x="1027" y="233" on="1"/>
      </contour>
    </TTGlyph>
    <TTGlyph name="Oacute" xMin="66" yMin="-23" xMax="1413" yMax="2012">
      <component glyphName="acute.cap" x="96" y="0" flags="0x0"/>
      <component glyphName="O" x="0" y="0" flags="0x0"/>
    </TTGlyph>
    <TTGlyph name="Obreve" xMin="66" yMin="-23" xMax="1413" yMax="1998">
      <component glyphName="breve.cap" x="235" y="0" flags="0x0"/>
      <component glyphName="O" x="0" y="0" flags="0x0"/>
    </TTGlyph>
    <TTGlyph name="Ocircumflex" xMin="66" yMin="-23" xMax="1413" yMax="2013">
      <component glyphName="O" x="0" y="0" flags="0x0"/>
      <component glyphName="circumflex.cap" x="214" y="0" flags="0x0"/>
    </TTGlyph>
    <TTGlyph name="Odieresis" xMin="66" yMin="-23" xMax="1413" yMax="1983">
      <component glyphName="dieresis.cap" x="235" y="0" flags="0x0"/>
      <component glyphName="O" x="0" y="0" flags="0x0"/>
    </TTGlyph>
    <TTGlyph name="Ograve" xMin="66" yMin="-23" xMax="1413" yMax="2012">
      <component glyphName="grave.cap" x="340" y="0" flags="0x0"/>
      <component glyphName="O" x="0" y="0" flags="0x0"/>
    </TTGlyph>
    <TTGlyph name="Ohungarumlaut" xMin="66" yMin="-23" xMax="1413" yMax="2014">
      <component glyphName="O" x="0" y="0" flags="0x0"/>
      <component glyphName="hungarumlaut.cap" x="235" y="0" flags="0x0"/>
    </TTGlyph>
    <TTGlyph name="Omacron" xMin="66" yMin="-23" xMax="1413" yMax="1904">
      <component glyphName="macron.cap" x="405" y="0" flags="0x0"/>
      <component glyphName="O" x="0" y="0" flags="0x0"/>
    </TTGlyph>
    <TTGlyph name="Oslash" xMin="66" yMin="-216" xMax="1413" yMax="1719">
      <contour>
        <pt x="411" y="43" on="1"/>
        <pt x="242" y="129" on="0"/>
        <pt x="66" y="497" on="0"/>
        <pt x="66" y="750" on="1"/>
        <pt x="66" y="986" on="0"/>
        <pt x="246" y="1344" on="0"/>
        <pt x="561" y="1539" on="0"/>
        <pt x="758" y="1539" on="1"/>
        <pt x="870" y="1539" on="0"/>
        <pt x="970" y="1511" on="1"/>
        <pt x="1050" y="1719" on="1"/>
        <pt x="1156" y="1683" on="1"/>
        <pt x="1071" y="1472" on="1"/>
        <pt x="1240" y="1388" on="0"/>
        <pt x="1413" y="1029" on="0"/>
        <pt x="1413" y="777" on="1"/>
        <pt x="1413" y="541" on="0"/>
        <pt x="1236" y="180" on="0"/>
        <pt x="924" y="-20" on="0"/>
        <pt x="727" y="-23" on="1"/>
        <pt x="615" y="-24" on="0"/>
        <pt x="515" y="2" on="1"/>
        <pt x="425" y="-216" on="1"/>
        <pt x="317" y="-183" on="1"/>
      </contour>
      <contour>
        <pt x="326" y="565" on="0"/>
        <pt x="410" y="284" on="0"/>
        <pt x="490" y="201" on="1"/>
        <pt x="918" y="1376" on="1"/>
        <pt x="840" y="1422" on="0"/>
        <pt x="741" y="1422" on="1"/>
        <pt x="613" y="1422" on="0"/>
        <pt x="427" y="1275" on="0"/>
        <pt x="326" y="975" on="0"/>
        <pt x="326" y="751" on="1"/>
      </contour>
      <contour>
        <pt x="568" y="139" on="1"/>
        <pt x="644" y="95" on="0"/>
        <pt x="740" y="95" on="1"/>
        <pt x="867" y="95" on="0"/>
        <pt x="1052" y="247" on="0"/>
        <pt x="1154" y="552" on="0"/>
        <pt x="1154" y="776" on="1"/>
        <pt x="1154" y="957" on="0"/>
        <pt x="1073" y="1232" on="0"/>
        <pt x="996" y="1313" on="1"/>
      </contour>
    </TTGlyph>
    <TTGlyph name="Oslashacute" xMin="66" yMin="-216" xMax="1413" yMax="2012">
      <component glyphName="Oslash" x="0" y="0" flags="0x0"/>
      <component glyphName="acute.cap" x="54" y="0" flags="0x0"/>
    </TTGlyph>
    <TTGlyph name="Otilde" xMin="66" yMin="-23" xMax="1413" yMax="2008">
      <component glyphName="tilde.cap" x="235" y="0" flags="0x0"/>
      <component glyphName="O" x="0" y="0" flags="0x0"/>
    </TTGlyph>
    <TTGlyph name="P" xMin="98" yMin="0" xMax="1277" yMax="1536">
      <contour>
        <pt x="266" y="132" on="1"/>
        <pt x="266" y="1385" on="1"/>
        <pt x="109" y="1411" on="1"/>
        <pt x="109" y="1522" on="1"/>
        <pt x="356" y="1522" on="1"/>
        <pt x="410" y="1522" on="0"/>
        <pt x="502" y="1528" on="1"/>
        <pt x="610" y="1536" on="0"/>
        <pt x="709" y="1536" on="1"/>
        <pt x="921" y="1536" on="0"/>
        <pt x="1171" y="1435" on="0"/>
        <pt x="1277" y="1243" on="0"/>
        <pt x="1277" y="1098" on="1"/>
        <pt x="1277" y="933" on="0"/>
        <pt x="1125" y="691" on="0"/>
        <pt x="856" y="564" on="0"/>
        <pt x="683" y="564" on="1"/>
        <pt x="629" y="564" on="0"/>
        <pt x="515" y="570" on="0"/>
        <pt x="501" y="573" on="1"/>
        <pt x="501" y="132" on="1"/>
        <pt x="771" y="109" on="1"/>
        <pt x="771" y="0" on="1"/>
        <pt x="98" y="0" on="1"/>
        <pt x="98" y="109" on="1"/>
      </contour>
      <contour>
        <pt x="834" y="682" on="0"/>
        <pt x="1025" y="873" on="0"/>
        <pt x="1025" y="1096" on="1"/>
        <pt x="1025" y="1269" on="0"/>
        <pt x="857" y="1421" on="0"/>
        <pt x="679" y="1421" on="1"/>
        <pt x="618" y="1421" on="0"/>
        <pt x="556" y="1413" on="1"/>
        <pt x="523" y="1408" on="0"/>
        <pt x="500" y="1408" on="1"/>
        <pt x="500" y="691" on="1"/>
        <pt x="548" y="682" on="0"/>
        <pt x="683" y="682" on="1"/>
      </contour>
    </TTGlyph>
    <TTGlyph name="Q" xMin="76" yMin="-425" xMax="1870" yMax="1539">
      <contour>
        <pt x="76" y="986" on="0"/>
        <pt x="256" y="1344" on="0"/>
        <pt x="571" y="1539" on="0"/>
        <pt x="768" y="1539" on="1"/>
        <pt x="982" y="1539" on="0"/>
        <pt x="1276" y="1352" on="0"/>
        <pt x="1423" y="1010" on="0"/>
        <pt x="1423" y="777" on="1"/>
        <pt x="1423" y="604" on="0"/>
        <pt x="1326" y="315" on="0"/>
        <pt x="1148" y="104" on="0"/>
        <pt x="1028" y="45" on="1"/>
        <pt x="1090" y="43" on="0"/>
        <pt x="1222" y="-2" on="0"/>
        <pt x="1340" y="-61" on="0"/>
        <pt x="1433" y="-113" on="1"/>
        <pt x="1553" y="-182" on="0"/>
        <pt x="1711" y="-251" on="0"/>
        <pt x="1780" y="-251" on="1"/>
        <pt x="1782" y="-251" on="1"/>
        <pt x="1824" y="-251" on="0"/>
        <pt x="1837" y="-250" on="1"/>
        <pt x="1870" y="-360" on="1"/>
        <pt x="1838" y="-385" on="0"/>
        <pt x="1741" y="-425" on="0"/>
        <pt x="1658" y="-425" on="1"/>
        <pt x="1647" y="-425" on="1"/>
        <pt x="1555" y="-425" on="0"/>
        <pt x="1396" y="-362" on="0"/>
        <pt x="1271" y="-270" on="0"/>
        <pt x="1185" y="-196" on="1"/>
        <pt x="1117" y="-137" on="0"/>
        <pt x="1027" y="-68" on="0"/>
        <pt x="922" y="-16" on="0"/>
        <pt x="867" y="-9" on="1"/>
        <pt x="795" y="-23" on="0"/>
        <pt x="723" y="-23" on="1"/>
        <pt x="515" y="-23" on="0"/>
        <pt x="224" y="170" on="0"/>
        <pt x="76" y="519" on="0"/>
        <pt x="76" y="750" on="1"/>
      </contour>
      <contour>
        <pt x="336" y="551" on="0"/>
        <pt x="434" y="255" on="0"/>
        <pt x="620" y="95" on="0"/>
        <pt x="750" y="95" on="1"/>
        <pt x="877" y="95" on="0"/>
        <pt x="1062" y="247" on="0"/>
        <pt x="1164" y="552" on="0"/>
        <pt x="1164" y="776" on="1"/>
        <pt x="1164" y="976" on="0"/>
        <pt x="1067" y="1267" on="0"/>
        <pt x="881" y="1422" on="0"/>
        <pt x="751" y="1422" on="1"/>
        <pt x="623" y="1422" on="0"/>
        <pt x="437" y="1275" on="0"/>
        <pt x="336" y="975" on="0"/>
        <pt x="336" y="751" on="1"/>
      </contour>
    </TTGlyph>
    <TTGlyph name="R" xMin="96" yMin="0" xMax="1443" yMax="1537">
      <contour>
        <pt x="264" y="131" on="1"/>
        <pt x="264" y="1387" on="1"/>
        <pt x="106" y="1413" on="1"/>
        <pt x="106" y="1522" on="1"/>
        <pt x="381" y="1522" on="1"/>
        <pt x="425" y="1522" on="0"/>
        <pt x="521" y="1528" on="0"/>
        <pt x="535" y="1529" on="1"/>
        <pt x="637" y="1537" on="0"/>
        <pt x="696" y="1537" on="1"/>
        <pt x="898" y="1537" on="0"/>
        <pt x="1142" y="1449" on="0"/>
        <pt x="1251" y="1273" on="0"/>
        <pt x="1251" y="1135" on="1"/>
        <pt x="1251" y="1042" on="0"/>
        <pt x="1180" y="867" on="0"/>
        <pt x="1045" y="736" on="0"/>
        <pt x="952" y="707" on="1"/>
        <pt x="995" y="682" on="0"/>
        <pt x="1079" y="577" on="0"/>
        <pt x="1149" y="458" on="0"/>
        <pt x="1200" y="364" on="1"/>
        <pt x="1260" y="251" on="0"/>
        <pt x="1333" y="140" on="0"/>
        <pt x="1365" y="132" on="1"/>
        <pt x="1443" y="108" on="1"/>
        <pt x="1443" y="0" on="1"/>
        <pt x="1147" y="0" on="1"/>
        <pt x="1113" y="0" on="0"/>
        <pt x="1032" y="142" on="0"/>
        <pt x="964" y="292" on="1"/>
        <pt x="893" y="451" on="0"/>
        <pt x="791" y="635" on="0"/>
        <pt x="740" y="666" on="1"/>
        <pt x="541" y="666" on="0"/>
        <pt x="498" y="669" on="1"/>
        <pt x="498" y="131" on="1"/>
        <pt x="695" y="109" on="1"/>
        <pt x="695" y="0" on="1"/>
        <pt x="96" y="0" on="1"/>
        <pt x="96" y="109" on="1"/>
      </contour>
      <contour>
        <pt x="853" y="784" on="0"/>
        <pt x="996" y="952" on="0"/>
        <pt x="996" y="1119" on="1"/>
        <pt x="996" y="1262" on="0"/>
        <pt x="849" y="1420" on="0"/>
        <pt x="670" y="1420" on="1"/>
        <pt x="594" y="1420" on="0"/>
        <pt x="529" y="1411" on="1"/>
        <pt x="498" y="1408" on="1"/>
        <pt x="498" y="786" on="1"/>
        <pt x="530" y="783" on="0"/>
        <pt x="599" y="783" on="1"/>
        <pt x="724" y="784" on="1"/>
      </contour>
    </TTGlyph>
    <TTGlyph name="Racute" xMin="96" yMin="0" xMax="1443" yMax="2012">
      <component glyphName="R" x="0" y="0" flags="0x0"/>
      <component glyphName="acute.cap" x="73" y="0" flags="0x0"/>
    </TTGlyph>
    <TTGlyph name="Rcaron" xMin="96" yMin="0" xMax="1443" yMax="2013">
      <component glyphName="caron.cap" x="384" y="0" flags="0x0"/>
      <component glyphName="R" x="0" y="0" flags="0x0"/>
    </TTGlyph>
    <TTGlyph name="Rcommaaccent" xMin="96" yMin="-560" xMax="1443" yMax="1537">
      <component glyphName="uni0326" x="1108" y="0" flags="0x0"/>
      <component glyphName="R" x="0" y="0" flags="0x0"/>
    </TTGlyph>
    <TTGlyph name="S" xMin="117" yMin="-23" xMax="1132" yMax="1539">
      <contour>
        <pt x="134" y="440" on="1"/>
        <pt x="273" y="440" on="1"/>
        <pt x="313" y="184" on="1"/>
        <pt x="347" y="148" on="0"/>
        <pt x="499" y="97" on="0"/>
        <pt x="588" y="97" on="1"/>
        <pt x="737" y="97" on="0"/>
        <pt x="888" y="230" on="0"/>
        <pt x="888" y="348" on="1"/>
        <pt x="888" y="425" on="0"/>
        <pt x="805" y="536" on="0"/>
        <pt x="663" y="620" on="0"/>
        <pt x="539" y="676" on="1"/>
        <pt x="431" y="725" on="0"/>
        <pt x="259" y="839" on="0"/>
        <pt x="135" y="1021" on="0"/>
        <pt x="135" y="1145" on="1"/>
        <pt x="135" y="1259" on="0"/>
        <pt x="257" y="1438" on="0"/>
        <pt x="483" y="1539" on="0"/>
        <pt x="633" y="1539" on="1"/>
        <pt x="725" y="1539" on="0"/>
        <pt x="881" y="1508" on="0"/>
        <pt x="965" y="1484" on="1"/>
        <pt x="1009" y="1471" on="0"/>
        <pt x="1036" y="1466" on="1"/>
        <pt x="1023" y="1123" on="1"/>
        <pt x="889" y="1123" on="1"/>
        <pt x="843" y="1366" on="1"/>
        <pt x="824" y="1387" on="0"/>
        <pt x="702" y="1422" on="0"/>
        <pt x="631" y="1422" on="1"/>
        <pt x="361" y="1422" on="0"/>
        <pt x="361" y="1204" on="1"/>
        <pt x="361" y="1128" on="0"/>
        <pt x="443" y="1020" on="0"/>
        <pt x="579" y="937" on="0"/>
        <pt x="712" y="872" on="1"/>
        <pt x="844" y="807" on="0"/>
        <pt x="1012" y="699" on="0"/>
        <pt x="1132" y="532" on="0"/>
        <pt x="1132" y="418" on="1"/>
        <pt x="1132" y="308" on="0"/>
        <pt x="1009" y="105" on="0"/>
        <pt x="762" y="-23" on="0"/>
        <pt x="586" y="-23" on="1"/>
        <pt x="478" y="-23" on="0"/>
        <pt x="300" y="16" on="0"/>
        <pt x="204" y="47" on="1"/>
        <pt x="138" y="68" on="0"/>
        <pt x="117" y="70" on="1"/>
      </contour>
    </TTGlyph>
    <TTGlyph name="Sacute" xMin="117" yMin="-23" xMax="1132" yMax="2012">
      <component glyphName="S" x="0" y="0" flags="0x0"/>
      <component glyphName="acute.cap" x="-12" y="0" flags="0x0"/>
    </TTGlyph>
    <TTGlyph name="Scaron" xMin="117" yMin="-23" xMax="1132" yMax="2013">
      <component glyphName="S" x="0" y="0" flags="0x0"/>
      <component glyphName="caron.cap" x="299" y="0" flags="0x0"/>
    </TTGlyph>
    <TTGlyph name="Scedilla" xMin="117" yMin="-494" xMax="1132" yMax="1539">
      <contour>
        <pt x="1132" y="315" on="0"/>
        <pt x="1023" y="122" on="0"/>
        <pt x="804" y="-9" on="0"/>
        <pt x="648" y="-21" on="1"/>
        <pt x="690" y="-70" on="0"/>
        <pt x="757" y="-209" on="0"/>
        <pt x="757" y="-280" on="1"/>
        <pt x="757" y="-396" on="0"/>
        <pt x="625" y="-494" on="0"/>
        <pt x="493" y="-494" on="1"/>
        <pt x="492" y="-494" on="1"/>
        <pt x="457" y="-494" on="0"/>
        <pt x="374" y="-479" on="0"/>
        <pt x="348" y="-467" on="1"/>
        <pt x="349" y="-314" on="1"/>
        <pt x="368" y="-321" on="0"/>
        <pt x="420" y="-328" on="0"/>
        <pt x="435" y="-328" on="1"/>
        <pt x="436" y="-328" on="1"/>
        <pt x="488" y="-328" on="0"/>
        <pt x="547" y="-309" on="0"/>
        <pt x="578" y="-248" on="0"/>
        <pt x="578" y="-187" on="1"/>
        <pt x="578" y="-147" on="0"/>
        <pt x="549" y="-58" on="0"/>
        <pt x="530" y="-21" on="1"/>
        <pt x="438" y="-16" on="0"/>
        <pt x="286" y="20" on="0"/>
        <pt x="203" y="47" on="1"/>
        <pt x="136" y="68" on="0"/>
        <pt x="117" y="70" on="1"/>
        <pt x="134" y="440" on="1"/>
        <pt x="273" y="440" on="1"/>
        <pt x="313" y="184" on="1"/>
        <pt x="347" y="148" on="0"/>
        <pt x="499" y="97" on="0"/>
        <pt x="588" y="97" on="1"/>
        <pt x="737" y="97" on="0"/>
        <pt x="888" y="230" on="0"/>
        <pt x="888" y="348" on="1"/>
        <pt x="888" y="425" on="0"/>
        <pt x="805" y="536" on="0"/>
        <pt x="663" y="620" on="0"/>
        <pt x="539" y="676" on="1"/>
        <pt x="431" y="725" on="0"/>
        <pt x="259" y="839" on="0"/>
        <pt x="135" y="1021" on="0"/>
        <pt x="135" y="1145" on="1"/>
        <pt x="135" y="1259" on="0"/>
        <pt x="257" y="1438" on="0"/>
        <pt x="483" y="1539" on="0"/>
        <pt x="633" y="1539" on="1"/>
        <pt x="725" y="1539" on="0"/>
        <pt x="881" y="1508" on="0"/>
        <pt x="965" y="1484" on="1"/>
        <pt x="1009" y="1471" on="0"/>
        <pt x="1036" y="1466" on="1"/>
        <pt x="1023" y="1123" on="1"/>
        <pt x="889" y="1123" on="1"/>
        <pt x="843" y="1366" on="1"/>
        <pt x="824" y="1387" on="0"/>
        <pt x="702" y="1422" on="0"/>
        <pt x="631" y="1422" on="1"/>
        <pt x="361" y="1422" on="0"/>
        <pt x="361" y="1204" on="1"/>
        <pt x="361" y="1128" on="0"/>
        <pt x="443" y="1020" on="0"/>
        <pt x="579" y="937" on="0"/>
        <pt x="712" y="872" on="1"/>
        <pt x="844" y="807" on="0"/>
        <pt x="1012" y="699" on="0"/>
        <pt x="1132" y="532" on="0"/>
        <pt x="1132" y="418" on="1"/>
      </contour>
    </TTGlyph>
    <TTGlyph name="Scircumflex" xMin="117" yMin="-23" xMax="1132" yMax="2013">
      <component glyphName="S" x="0" y="0" flags="0x0"/>
      <component glyphName="circumflex.cap" x="106" y="0" flags="0x0"/>
    </TTGlyph>
    <TTGlyph name="Scommaaccent" xMin="117" yMin="-560" xMax="1132" yMax="1539">
      <component glyphName="uni0326" x="952" y="0" flags="0x0"/>
      <component glyphName="S" x="0" y="0" flags="0x0"/>
    </TTGlyph>
    <TTGlyph name="T" xMin="32" yMin="0" xMax="1365" yMax="1522">
      <contour>
        <pt x="585" y="133" on="1"/>
        <pt x="585" y="1403" on="1"/>
        <pt x="252" y="1393" on="1"/>
        <pt x="177" y="975" on="1"/>
        <pt x="32" y="975" on="1"/>
        <pt x="67" y="1522" on="1"/>
        <pt x="1333" y="1522" on="1"/>
        <pt x="1365" y="975" on="1"/>
        <pt x="1222" y="975" on="1"/>
        <pt x="1146" y="1393" on="1"/>
        <pt x="826" y="1403" on="1"/>
        <pt x="826" y="133" on="1"/>
        <pt x="1109" y="109" on="1"/>
        <pt x="1109" y="0" on="1"/>
        <pt x="324" y="0" on="1"/>
        <pt x="324" y="109" on="1"/>
      </contour>
    </TTGlyph>
    <TTGlyph name="Tbar" xMin="51" yMin="0" xMax="1384" yMax="1522">
      <contour>
        <pt x="604" y="781" on="1"/>
        <pt x="604" y="1403" on="1"/>
        <pt x="271" y="1393" on="1"/>
        <pt x="196" y="975" on="1"/>
        <pt x="51" y="975" on="1"/>
        <pt x="86" y="1522" on="1"/>
        <pt x="1352" y="1522" on="1"/>
        <pt x="1384" y="975" on="1"/>
        <pt x="1241" y="975" on="1"/>
        <pt x="1165" y="1393" on="1"/>
        <pt x="845" y="1403" on="1"/>
        <pt x="845" y="781" on="1"/>
        <pt x="1081" y="781" on="1"/>
        <pt x="1081" y="654" on="1"/>
        <pt x="845" y="654" on="1"/>
        <pt x="845" y="133" on="1"/>
        <pt x="1128" y="109" on="1"/>
        <pt x="1128" y="0" on="1"/>
        <pt x="343" y="0" on="1"/>
        <pt x="343" y="109" on="1"/>
        <pt x="604" y="133" on="1"/>
        <pt x="604" y="654" on="1"/>
        <pt x="365" y="654" on="1"/>
        <pt x="365" y="781" on="1"/>
      </contour>
    </TTGlyph>
    <TTGlyph name="Tcaron" xMin="32" yMin="0" xMax="1365" yMax="2013">
      <component glyphName="caron.cap" x="384" y="0" flags="0x0"/>
      <component glyphName="T" x="0" y="0" flags="0x0"/>
    </TTGlyph>
    <TTGlyph name="Thorn" xMin="95" yMin="0" xMax="1269" yMax="1522">
      <contour>
        <pt x="263" y="131" on="1"/>
        <pt x="263" y="1387" on="1"/>
        <pt x="98" y="1415" on="1"/>
        <pt x="98" y="1522" on="1"/>
        <pt x="670" y="1522" on="1"/>
        <pt x="670" y="1415" on="1"/>
        <pt x="496" y="1387" on="1"/>
        <pt x="496" y="1164" on="1"/>
        <pt x="564" y="1170" on="1"/>
        <pt x="639" y="1177" on="0"/>
        <pt x="747" y="1184" on="0"/>
        <pt x="806" y="1184" on="1"/>
        <pt x="1030" y="1184" on="0"/>
        <pt x="1269" y="982" on="0"/>
        <pt x="1269" y="784" on="1"/>
        <pt x="1269" y="557" on="0"/>
        <pt x="993" y="335" on="0"/>
        <pt x="740" y="335" on="1"/>
        <pt x="589" y="335" on="0"/>
        <pt x="496" y="343" on="1"/>
        <pt x="496" y="131" on="1"/>
        <pt x="712" y="107" on="1"/>
        <pt x="712" y="0" on="1"/>
        <pt x="95" y="0" on="1"/>
        <pt x="95" y="107" on="1"/>
      </contour>
      <contour>
        <pt x="1015" y="1063" on="0"/>
        <pt x="707" y="1063" on="1"/>
        <pt x="615" y="1063" on="0"/>
        <pt x="496" y="1045" on="1"/>
        <pt x="496" y="457" on="1"/>
        <pt x="573" y="448" on="0"/>
        <pt x="684" y="448" on="1"/>
        <pt x="718" y="448" on="1"/>
        <pt x="855" y="448" on="0"/>
        <pt x="1015" y="601" on="0"/>
        <pt x="1015" y="772" on="1"/>
      </contour>
    </TTGlyph>
    <TTGlyph name="U" xMin="40" yMin="-16" xMax="1476" yMax="1522">
      <contour>
        <pt x="184" y="1385" on="1"/>
        <pt x="40" y="1411" on="1"/>
        <pt x="40" y="1522" on="1"/>
        <pt x="598" y="1522" on="1"/>
        <pt x="598" y="1411" on="1"/>
        <pt x="428" y="1385" on="1"/>
        <pt x="428" y="620" on="1"/>
        <pt x="428" y="344" on="0"/>
        <pt x="624" y="103" on="0"/>
        <pt x="803" y="103" on="1"/>
        <pt x="980" y="103" on="0"/>
        <pt x="1162" y="366" on="0"/>
        <pt x="1162" y="609" on="1"/>
        <pt x="1162" y="1385" on="1"/>
        <pt x="997" y="1411" on="1"/>
        <pt x="997" y="1522" on="1"/>
        <pt x="1476" y="1522" on="1"/>
        <pt x="1476" y="1411" on="1"/>
        <pt x="1328" y="1385" on="1"/>
        <pt x="1328" y="619" on="1"/>
        <pt x="1328" y="406" on="0"/>
        <pt x="1186" y="121" on="0"/>
        <pt x="938" y="-16" on="0"/>
        <pt x="776" y="-16" on="1"/>
        <pt x="568" y="-16" on="0"/>
        <pt x="308" y="123" on="0"/>
        <pt x="184" y="413" on="0"/>
        <pt x="184" y="643" on="1"/>
      </contour>
    </TTGlyph>
    <TTGlyph name="Uacute" xMin="40" yMin="-16" xMax="1476" yMax="2012">
      <component glyphName="acute.cap" x="144" y="0" flags="0x0"/>
      <component glyphName="U" x="0" y="0" flags="0x0"/>
    </TTGlyph>
    <TTGlyph name="Ubreve" xMin="40" yMin="-16" xMax="1476" yMax="1998">
      <component glyphName="breve.cap" x="282" y="0" flags="0x0"/>
      <component glyphName="U" x="0" y="0" flags="0x0"/>
    </TTGlyph>
    <TTGlyph name="Ucircumflex" xMin="40" yMin="-16" xMax="1476" yMax="2013">
      <component glyphName="U" x="0" y="0" flags="0x0"/>
      <component glyphName="circumflex.cap" x="261" y="0" flags="0x0"/>
    </TTGlyph>
    <TTGlyph name="Udieresis" xMin="40" yMin="-16" xMax="1476" yMax="1983">
      <component glyphName="dieresis.cap" x="283" y="0" flags="0x0"/>
      <component glyphName="U" x="0" y="0" flags="0x0"/>
    </TTGlyph>
    <TTGlyph name="Ugrave" xMin="40" yMin="-16" xMax="1476" yMax="2012">
      <component glyphName="grave.cap" x="391" y="0" flags="0x0"/>
      <component glyphName="U" x="0" y="0" flags="0x0"/>
    </TTGlyph>
    <TTGlyph name="Uhungarumlaut" xMin="40" yMin="-16" xMax="1476" yMax="2014">
      <component glyphName="U" x="0" y="0" flags="0x0"/>
      <component glyphName="hungarumlaut.cap" x="282" y="0" flags="0x0"/>
    </TTGlyph>
    <TTGlyph name="Umacron" xMin="40" yMin="-16" xMax="1476" yMax="1904">
      <component glyphName="macron.cap" x="452" y="0" flags="0x0"/>
      <component glyphName="U" x="0" y="0" flags="0x0"/>
    </TTGlyph>
    <TTGlyph name="Uogonek" xMin="40" yMin="-511" xMax="1476" yMax="1522">
      <contour>
        <pt x="184" y="1385" on="1"/>
        <pt x="40" y="1411" on="1"/>
        <pt x="40" y="1522" on="1"/>
        <pt x="598" y="1522" on="1"/>
        <pt x="598" y="1411" on="1"/>
        <pt x="428" y="1385" on="1"/>
        <pt x="428" y="620" on="1"/>
        <pt x="428" y="344" on="0"/>
        <pt x="624" y="103" on="0"/>
        <pt x="803" y="103" on="1"/>
        <pt x="980" y="103" on="0"/>
        <pt x="1162" y="366" on="0"/>
        <pt x="1162" y="609" on="1"/>
        <pt x="1162" y="1385" on="1"/>
        <pt x="997" y="1411" on="1"/>
        <pt x="997" y="1522" on="1"/>
        <pt x="1476" y="1522" on="1"/>
        <pt x="1476" y="1411" on="1"/>
        <pt x="1328" y="1385" on="1"/>
        <pt x="1328" y="619" on="1"/>
        <pt x="1328" y="373" on="0"/>
        <pt x="1141" y="71" on="0"/>
        <pt x="978" y="15" on="1"/>
        <pt x="884" y="-42" on="0"/>
        <pt x="764" y="-182" on="0"/>
        <pt x="764" y="-240" on="1"/>
        <pt x="764" y="-302" on="0"/>
        <pt x="846" y="-365" on="0"/>
        <pt x="911" y="-365" on="1"/>
        <pt x="976" y="-365" on="0"/>
        <pt x="1052" y="-332" on="1"/>
        <pt x="1052" y="-441" on="1"/>
        <pt x="1010" y="-473" on="0"/>
        <pt x="879" y="-511" on="0"/>
        <pt x="815" y="-511" on="1"/>
        <pt x="705" y="-511" on="0"/>
        <pt x="556" y="-417" on="0"/>
        <pt x="556" y="-315" on="1"/>
        <pt x="556" y="-262" on="0"/>
        <pt x="624" y="-148" on="0"/>
        <pt x="736" y="-48" on="0"/>
        <pt x="802" y="-15" on="1"/>
        <pt x="793" y="-16" on="0"/>
        <pt x="776" y="-16" on="1"/>
        <pt x="568" y="-16" on="0"/>
        <pt x="308" y="123" on="0"/>
        <pt x="184" y="413" on="0"/>
        <pt x="184" y="643" on="1"/>
      </contour>
    </TTGlyph>
    <TTGlyph name="Uring" xMin="40" yMin="-16" xMax="1476" yMax="2014">
      <component glyphName="U" x="0" y="0" flags="0x0"/>
      <component glyphName="ring.cap" x="412" y="0" flags="0x0"/>
    </TTGlyph>
    <TTGlyph name="Utilde" xMin="40" yMin="-16" xMax="1476" yMax="2008">
      <component glyphName="tilde.cap" x="282" y="0" flags="0x0"/>
      <component glyphName="U" x="0" y="0" flags="0x0"/>
    </TTGlyph>
    <TTGlyph name="V" xMin="-34" yMin="-15" xMax="1408" yMax="1522">
      <contour>
        <pt x="-34" y="1411" on="1"/>
        <pt x="-34" y="1522" on="1"/>
        <pt x="527" y="1522" on="1"/>
        <pt x="527" y="1411" on="1"/>
        <pt x="343" y="1386" on="1"/>
        <pt x="672" y="433" on="1"/>
        <pt x="740" y="200" on="1"/>
        <pt x="799" y="436" on="1"/>
        <pt x="1102" y="1385" on="1"/>
        <pt x="946" y="1411" on="1"/>
        <pt x="946" y="1522" on="1"/>
        <pt x="1408" y="1522" on="1"/>
        <pt x="1408" y="1411" on="1"/>
        <pt x="1276" y="1385" on="1"/>
        <pt x="794" y="-15" on="1"/>
        <pt x="606" y="-15" on="1"/>
        <pt x="93" y="1385" on="1"/>
      </contour>
    </TTGlyph>
    <TTGlyph name="W" xMin="-44" yMin="-10" xMax="2087" yMax="1522">
      <contour>
        <pt x="-44" y="1411" on="1"/>
        <pt x="-44" y="1522" on="1"/>
        <pt x="515" y="1522" on="1"/>
        <pt x="515" y="1411" on="1"/>
        <pt x="332" y="1384" on="1"/>
        <pt x="611" y="438" on="1"/>
        <pt x="663" y="167" on="1"/>
        <pt x="724" y="438" on="1"/>
        <pt x="953" y="1209" on="1"/>
        <pt x="897" y="1385" on="1"/>
        <pt x="756" y="1411" on="1"/>
        <pt x="756" y="1522" on="1"/>
        <pt x="1334" y="1522" on="1"/>
        <pt x="1334" y="1411" on="1"/>
        <pt x="1142" y="1385" on="1"/>
        <pt x="1416" y="438" on="1"/>
        <pt x="1477" y="144" on="1"/>
        <pt x="1530" y="438" on="1"/>
        <pt x="1791" y="1384" on="1"/>
        <pt x="1589" y="1411" on="1"/>
        <pt x="1589" y="1522" on="1"/>
        <pt x="2087" y="1522" on="1"/>
        <pt x="2087" y="1411" on="1"/>
        <pt x="1954" y="1384" on="1"/>
        <pt x="1541" y="-10" on="1"/>
        <pt x="1325" y="-10" on="1"/>
        <pt x="1023" y="986" on="1"/>
        <pt x="728" y="-10" on="1"/>
        <pt x="522" y="-10" on="1"/>
        <pt x="90" y="1384" on="1"/>
      </contour>
    </TTGlyph>
    <TTGlyph name="Wacute" xMin="-44" yMin="-10" xMax="2087" yMax="2012">
      <component glyphName="acute.cap" x="376" y="0" flags="0x0"/>
      <component glyphName="W" x="0" y="0" flags="0x0"/>
    </TTGlyph>
    <TTGlyph name="Wcircumflex" xMin="-44" yMin="-10" xMax="2087" yMax="2013">
      <component glyphName="W" x="0" y="0" flags="0x0"/>
      <component glyphName="circumflex.cap" x="494" y="0" flags="0x0"/>
    </TTGlyph>
    <TTGlyph name="Wdieresis" xMin="-44" yMin="-10" xMax="2087" yMax="1983">
      <component glyphName="dieresis.cap" x="515" y="0" flags="0x0"/>
      <component glyphName="W" x="0" y="0" flags="0x0"/>
    </TTGlyph>
    <TTGlyph name="Wgrave" xMin="-44" yMin="-10" xMax="2087" yMax="2012">
      <component glyphName="grave.cap" x="620" y="0" flags="0x0"/>
      <component glyphName="W" x="0" y="0" flags="0x0"/>
    </TTGlyph>
    <TTGlyph name="X" xMin="12" yMin="0" xMax="1463" yMax="1522">
      <contour>
        <pt x="187" y="132" on="1"/>
        <pt x="611" y="760" on="1"/>
        <pt x="192" y="1385" on="1"/>
        <pt x="42" y="1411" on="1"/>
        <pt x="42" y="1522" on="1"/>
        <pt x="655" y="1522" on="1"/>
        <pt x="655" y="1411" on="1"/>
        <pt x="474" y="1385" on="1"/>
        <pt x="783" y="885" on="1"/>
        <pt x="1089" y="1385" on="1"/>
        <pt x="916" y="1411" on="1"/>
        <pt x="916" y="1522" on="1"/>
        <pt x="1424" y="1522" on="1"/>
        <pt x="1424" y="1411" on="1"/>
        <pt x="1264" y="1385" on="1"/>
        <pt x="854" y="800" on="1"/>
        <pt x="1307" y="132" on="1"/>
        <pt x="1463" y="109" on="1"/>
        <pt x="1463" y="0" on="1"/>
        <pt x="850" y="0" on="1"/>
        <pt x="850" y="109" on="1"/>
        <pt x="1024" y="133" on="1"/>
        <pt x="685" y="673" on="1"/>
        <pt x="368" y="132" on="1"/>
        <pt x="564" y="109" on="1"/>
        <pt x="564" y="0" on="1"/>
        <pt x="12" y="0" on="1"/>
        <pt x="12" y="109" on="1"/>
      </contour>
    </TTGlyph>
    <TTGlyph name="Y" xMin="-28" yMin="0" xMax="1348" yMax="1522">
      <contour>
        <pt x="552" y="133" on="1"/>
        <pt x="552" y="592" on="1"/>
        <pt x="100" y="1384" on="1"/>
        <pt x="-28" y="1411" on="1"/>
        <pt x="-28" y="1522" on="1"/>
        <pt x="520" y="1522" on="1"/>
        <pt x="520" y="1411" on="1"/>
        <pt x="365" y="1385" on="1"/>
        <pt x="647" y="842" on="1"/>
        <pt x="704" y="697" on="1"/>
        <pt x="769" y="840" on="1"/>
        <pt x="1037" y="1386" on="1"/>
        <pt x="875" y="1411" on="1"/>
        <pt x="875" y="1522" on="1"/>
        <pt x="1348" y="1522" on="1"/>
        <pt x="1348" y="1411" on="1"/>
        <pt x="1215" y="1386" on="1"/>
        <pt x="795" y="597" on="1"/>
        <pt x="795" y="132" on="1"/>
        <pt x="1019" y="109" on="1"/>
        <pt x="1019" y="0" on="1"/>
        <pt x="333" y="0" on="1"/>
        <pt x="333" y="109" on="1"/>
      </contour>
    </TTGlyph>
    <TTGlyph name="Yacute" xMin="-28" yMin="0" xMax="1348" yMax="2012">
      <component glyphName="Y" x="0" y="0" flags="0x0"/>
      <component glyphName="acute.cap" x="36" y="0" flags="0x0"/>
    </TTGlyph>
    <TTGlyph name="Ycircumflex" xMin="-28" yMin="0" xMax="1348" yMax="2013">
      <component glyphName="Y" x="0" y="0" flags="0x0"/>
      <component glyphName="circumflex.cap" x="154" y="0" flags="0x0"/>
    </TTGlyph>
    <TTGlyph name="Ydieresis" xMin="-28" yMin="0" xMax="1348" yMax="1983">
      <component glyphName="Y" x="0" y="0" flags="0x0"/>
      <component glyphName="dieresis.cap" x="175" y="0" flags="0x0"/>
    </TTGlyph>
    <TTGlyph name="Ygrave" xMin="-28" yMin="0" xMax="1348" yMax="2012">
      <component glyphName="Y" x="0" y="0" flags="0x0"/>
      <component glyphName="grave.cap" x="281" y="0" flags="0x0"/>
    </TTGlyph>
    <TTGlyph name="Z" xMin="65" yMin="0" xMax="1256" yMax="1528">
      <contour>
        <pt x="858" y="1278" on="1"/>
        <pt x="970" y="1414" on="1"/>
        <pt x="397" y="1392" on="1"/>
        <pt x="285" y="1127" on="1"/>
        <pt x="160" y="1144" on="1"/>
        <pt x="204" y="1528" on="1"/>
        <pt x="1197" y="1528" on="1"/>
        <pt x="1248" y="1432" on="1"/>
        <pt x="468" y="255" on="1"/>
        <pt x="340" y="117" on="1"/>
        <pt x="1013" y="156" on="1"/>
        <pt x="1126" y="466" on="1"/>
        <pt x="1256" y="440" on="1"/>
        <pt x="1208" y="0" on="1"/>
        <pt x="124" y="0" on="1"/>
        <pt x="65" y="98" on="1"/>
      </contour>
    </TTGlyph>
    <TTGlyph name="Zacute" xMin="65" yMin="0" xMax="1256" yMax="2012">
      <component glyphName="Z" x="0" y="0" flags="0x0"/>
      <component glyphName="acute.cap" x="62" y="0" flags="0x0"/>
    </TTGlyph>
    <TTGlyph name="Zcaron" xMin="65" yMin="0" xMax="1256" yMax="2013">
      <component glyphName="caron.cap" x="373" y="0" flags="0x0"/>
      <component glyphName="Z" x="0" y="0" flags="0x0"/>
    </TTGlyph>
    <TTGlyph name="Zdotaccent" xMin="65" yMin="0" xMax="1256" yMax="1986">
      <component glyphName="dotaccent.cap" x="420" y="0" flags="0x0"/>
      <component glyphName="Z" x="0" y="0" flags="0x0"/>
    </TTGlyph>
    <TTGlyph name="a" xMin="85" yMin="-23" xMax="1097" yMax="1161">
      <contour>
        <pt x="755" y="743" on="1"/>
        <pt x="755" y="837" on="0"/>
        <pt x="716" y="945" on="0"/>
        <pt x="620" y="995" on="0"/>
        <pt x="532" y="995" on="1"/>
        <pt x="363" y="995" on="0"/>
        <pt x="176" y="900" on="1"/>
        <pt x="175" y="900" on="1"/>
        <pt x="125" y="1004" on="1"/>
        <pt x="152" y="1028" on="0"/>
        <pt x="305" y="1104" on="0"/>
        <pt x="500" y="1161" on="0"/>
        <pt x="588" y="1161" on="1"/>
        <pt x="734" y="1161" on="0"/>
        <pt x="901" y="1082" on="0"/>
        <pt x="975" y="908" on="0"/>
        <pt x="975" y="760" on="1"/>
        <pt x="975" y="110" on="1"/>
        <pt x="1097" y="110" on="1"/>
        <pt x="1097" y="12" on="1"/>
        <pt x="951" y="-23" on="0"/>
        <pt x="877" y="-23" on="1"/>
        <pt x="835" y="-23" on="0"/>
        <pt x="791" y="-9" on="0"/>
        <pt x="770" y="34" on="0"/>
        <pt x="770" y="79" on="1"/>
        <pt x="770" y="127" on="1"/>
        <pt x="716" y="74" on="0"/>
        <pt x="540" y="-23" on="0"/>
        <pt x="431" y="-23" on="1"/>
        <pt x="335" y="-23" on="0"/>
        <pt x="178" y="47" on="0"/>
        <pt x="85" y="193" on="0"/>
        <pt x="85" y="302" on="1"/>
        <pt x="85" y="435" on="0"/>
        <pt x="270" y="607" on="0"/>
        <pt x="571" y="688" on="0"/>
        <pt x="755" y="691" on="1"/>
      </contour>
      <contour>
        <pt x="755" y="578" on="1"/>
        <pt x="608" y="578" on="0"/>
        <pt x="419" y="511" on="0"/>
        <pt x="334" y="401" on="0"/>
        <pt x="334" y="331" on="1"/>
        <pt x="334" y="226" on="0"/>
        <pt x="438" y="128" on="0"/>
        <pt x="526" y="128" on="1"/>
        <pt x="573" y="128" on="0"/>
        <pt x="706" y="181" on="0"/>
        <pt x="755" y="219" on="1"/>
      </contour>
    </TTGlyph>
    <TTGlyph name="aacute" xMin="85" yMin="-23" xMax="1097" yMax="1814">
      <component glyphName="a" x="0" y="0" flags="0x0"/>
      <component glyphName="acute" x="223" y="0" flags="0x0"/>
    </TTGlyph>
    <TTGlyph name="abreve" xMin="85" yMin="-23" xMax="1097" yMax="1753">
      <component glyphName="a" x="0" y="0" flags="0x0"/>
      <component glyphName="breve" x="53" y="0" flags="0x0"/>
    </TTGlyph>
    <TTGlyph name="acircumflex" xMin="85" yMin="-23" xMax="1097" yMax="1781">
      <component glyphName="a" x="0" y="0" flags="0x0"/>
      <component glyphName="circumflex" x="37" y="0" flags="0x0"/>
    </TTGlyph>
    <TTGlyph name="acute" xMin="204" yMin="1334" xMax="694" yMax="1814">
      <contour>
        <pt x="534" y="1814" on="1"/>
        <pt x="535" y="1814" on="1"/>
        <pt x="694" y="1675" on="1"/>
        <pt x="668" y="1631" on="0"/>
        <pt x="508" y="1482" on="0"/>
        <pt x="332" y="1352" on="0"/>
        <pt x="287" y="1334" on="1"/>
        <pt x="285" y="1334" on="1"/>
        <pt x="204" y="1408" on="1"/>
      </contour>
    </TTGlyph>
    <TTGlyph name="acute.cap" xMin="504" yMin="1633" xMax="989" yMax="2012">
      <contour>
        <pt x="835" y="2012" on="1"/>
        <pt x="836" y="2012" on="1"/>
        <pt x="989" y="1885" on="1"/>
        <pt x="953" y="1838" on="0"/>
        <pt x="799" y="1733" on="0"/>
        <pt x="633" y="1648" on="0"/>
        <pt x="585" y="1633" on="1"/>
        <pt x="584" y="1633" on="1"/>
        <pt x="504" y="1701" on="1"/>
      </contour>
    </TTGlyph>
    <TTGlyph name="adieresis" xMin="85" yMin="-23" xMax="1097" yMax="1652">
      <component glyphName="a" x="0" y="0" flags="0x0"/>
      <component glyphName="dieresis" x="53" y="0" flags="0x0"/>
    </TTGlyph>
    <TTGlyph name="ae" xMin="83" yMin="-23" xMax="1701" yMax="1168">
      <contour>
        <pt x="807" y="143" on="0"/>
        <pt x="690" y="44" on="0"/>
        <pt x="525" y="-23" on="0"/>
        <pt x="428" y="-23" on="1"/>
        <pt x="334" y="-23" on="0"/>
        <pt x="177" y="47" on="0"/>
        <pt x="83" y="193" on="0"/>
        <pt x="83" y="301" on="1"/>
        <pt x="83" y="435" on="0"/>
        <pt x="266" y="606" on="0"/>
        <pt x="565" y="686" on="0"/>
        <pt x="747" y="689" on="1"/>
        <pt x="747" y="750" on="1"/>
        <pt x="747" y="844" on="0"/>
        <pt x="710" y="949" on="0"/>
        <pt x="617" y="997" on="0"/>
        <pt x="529" y="997" on="1"/>
        <pt x="429" y="997" on="0"/>
        <pt x="255" y="943" on="0"/>
        <pt x="162" y="900" on="1"/>
        <pt x="112" y="1002" on="1"/>
        <pt x="143" y="1029" on="0"/>
        <pt x="300" y="1105" on="0"/>
        <pt x="496" y="1161" on="0"/>
        <pt x="585" y="1161" on="1"/>
        <pt x="720" y="1161" on="0"/>
        <pt x="879" y="1092" on="0"/>
        <pt x="918" y="1017" on="1"/>
        <pt x="989" y="1090" on="0"/>
        <pt x="1180" y="1168" on="0"/>
        <pt x="1291" y="1168" on="1"/>
        <pt x="1482" y="1168" on="0"/>
        <pt x="1694" y="959" on="0"/>
        <pt x="1701" y="760" on="1"/>
        <pt x="1701" y="690" on="0"/>
        <pt x="1696" y="598" on="0"/>
        <pt x="1689" y="564" on="1"/>
        <pt x="995" y="564" on="1"/>
        <pt x="999" y="417" on="0"/>
        <pt x="1091" y="223" on="0"/>
        <pt x="1241" y="131" on="0"/>
        <pt x="1335" y="131" on="1"/>
        <pt x="1417" y="131" on="0"/>
        <pt x="1591" y="188" on="0"/>
        <pt x="1639" y="225" on="1"/>
        <pt x="1681" y="129" on="1"/>
        <pt x="1643" y="90" on="0"/>
        <pt x="1510" y="20" on="0"/>
        <pt x="1347" y="-23" on="0"/>
        <pt x="1267" y="-23" on="1"/>
        <pt x="1121" y="-23" on="0"/>
        <pt x="908" y="90" on="0"/>
        <pt x="844" y="195" on="1"/>
      </contour>
      <contour>
        <pt x="1461" y="680" on="1"/>
        <pt x="1464" y="721" on="0"/>
        <pt x="1464" y="766" on="1"/>
        <pt x="1463" y="893" on="0"/>
        <pt x="1359" y="1047" on="0"/>
        <pt x="1247" y="1047" on="1"/>
        <pt x="1136" y="1047" on="0"/>
        <pt x="1004" y="880" on="0"/>
        <pt x="995" y="680" on="1"/>
      </contour>
      <contour>
        <pt x="754" y="410" on="0"/>
        <pt x="754" y="571" on="1"/>
        <pt x="754" y="574" on="1"/>
        <pt x="747" y="579" on="1"/>
        <pt x="747" y="581" on="1"/>
        <pt x="604" y="581" on="0"/>
        <pt x="418" y="513" on="0"/>
        <pt x="331" y="401" on="0"/>
        <pt x="331" y="332" on="1"/>
        <pt x="331" y="225" on="0"/>
        <pt x="434" y="128" on="0"/>
        <pt x="521" y="128" on="1"/>
        <pt x="579" y="128" on="0"/>
        <pt x="691" y="177" on="0"/>
        <pt x="778" y="251" on="0"/>
        <pt x="800" y="287" on="1"/>
      </contour>
    </TTGlyph>
    <TTGlyph name="aeacute" xMin="86" yMin="-23" xMax="1704" yMax="1814">
      <component glyphName="acute" x="574" y="0" flags="0x0"/>
      <component glyphName="ae" x="3" y="0" flags="0x0"/>
    </TTGlyph>
    <TTGlyph name="agrave" xMin="85" yMin="-23" xMax="1097" yMax="1814">
      <component glyphName="a" x="0" y="0" flags="0x0"/>
      <component glyphName="grave" x="223" y="0" flags="0x0"/>
    </TTGlyph>
    <TTGlyph name="amacron" xMin="85" yMin="-23" xMax="1097" yMax="1586">
      <component glyphName="a" x="0" y="0" flags="0x0"/>
      <component glyphName="macron" x="223" y="0" flags="0x0"/>
    </TTGlyph>
    <TTGlyph name="ampersand" xMin="121" yMin="-19" xMax="1515" yMax="1540">
      <contour>
        <pt x="1515" y="842" on="1"/>
        <pt x="1515" y="719" on="1"/>
        <pt x="1354" y="694" on="1"/>
        <pt x="1355" y="556" on="0"/>
        <pt x="1264" y="313" on="0"/>
        <pt x="1191" y="233" on="1"/>
        <pt x="1254" y="175" on="0"/>
        <pt x="1371" y="112" on="0"/>
        <pt x="1445" y="106" on="1"/>
        <pt x="1445" y="10" on="1"/>
        <pt x="1426" y="-1" on="0"/>
        <pt x="1328" y="-15" on="0"/>
        <pt x="1294" y="-15" on="1"/>
        <pt x="1221" y="-14" on="0"/>
        <pt x="1106" y="35" on="0"/>
        <pt x="1033" y="95" on="1"/>
        <pt x="956" y="35" on="0"/>
        <pt x="758" y="-19" on="0"/>
        <pt x="667" y="-19" on="1"/>
        <pt x="501" y="-19" on="0"/>
        <pt x="255" y="71" on="0"/>
        <pt x="121" y="247" on="0"/>
        <pt x="121" y="372" on="1"/>
        <pt x="121" y="499" on="0"/>
        <pt x="285" y="680" on="0"/>
        <pt x="420" y="756" on="1"/>
        <pt x="344" y="855" on="0"/>
        <pt x="246" y="1077" on="0"/>
        <pt x="246" y="1182" on="1"/>
        <pt x="246" y="1279" on="0"/>
        <pt x="353" y="1443" on="0"/>
        <pt x="540" y="1540" on="0"/>
        <pt x="655" y="1540" on="1"/>
        <pt x="774" y="1540" on="0"/>
        <pt x="939" y="1457" on="0"/>
        <pt x="1020" y="1327" on="0"/>
        <pt x="1020" y="1256" on="1"/>
        <pt x="1020" y="1142" on="0"/>
        <pt x="933" y="980" on="0"/>
        <pt x="802" y="869" on="0"/>
        <pt x="681" y="787" on="1"/>
        <pt x="760" y="689" on="0"/>
        <pt x="983" y="436" on="0"/>
        <pt x="1054" y="367" on="1"/>
        <pt x="1099" y="323" on="1"/>
        <pt x="1146" y="389" on="0"/>
        <pt x="1190" y="552" on="0"/>
        <pt x="1190" y="635" on="1"/>
        <pt x="1190" y="666" on="0"/>
        <pt x="1187" y="694" on="1"/>
        <pt x="1026" y="719" on="1"/>
        <pt x="1026" y="842" on="1"/>
      </contour>
      <contour>
        <pt x="693" y="931" on="0"/>
        <pt x="782" y="1040" on="0"/>
        <pt x="823" y="1164" on="0"/>
        <pt x="823" y="1247" on="1"/>
        <pt x="823" y="1321" on="0"/>
        <pt x="750" y="1440" on="0"/>
        <pt x="651" y="1440" on="1"/>
        <pt x="599" y="1440" on="0"/>
        <pt x="513" y="1380" on="0"/>
        <pt x="464" y="1275" on="0"/>
        <pt x="464" y="1210" on="1"/>
        <pt x="464" y="1108" on="0"/>
        <pt x="550" y="944" on="0"/>
        <pt x="615" y="867" on="1"/>
      </contour>
      <contour>
        <pt x="781" y="324" on="0"/>
        <pt x="490" y="672" on="1"/>
        <pt x="419" y="611" on="0"/>
        <pt x="339" y="481" on="0"/>
        <pt x="339" y="399" on="1"/>
        <pt x="339" y="319" on="0"/>
        <pt x="416" y="185" on="0"/>
        <pt x="571" y="105" on="0"/>
        <pt x="682" y="105" on="1"/>
        <pt x="747" y="105" on="0"/>
        <pt x="884" y="141" on="0"/>
        <pt x="937" y="178" on="1"/>
      </contour>
    </TTGlyph>
    <TTGlyph name="aogonek" xMin="85" yMin="-511" xMax="1097" yMax="1161">
      <contour>
        <pt x="755" y="743" on="1"/>
        <pt x="755" y="837" on="0"/>
        <pt x="716" y="945" on="0"/>
        <pt x="620" y="995" on="0"/>
        <pt x="532" y="995" on="1"/>
        <pt x="363" y="995" on="0"/>
        <pt x="176" y="900" on="1"/>
        <pt x="175" y="900" on="1"/>
        <pt x="125" y="1004" on="1"/>
        <pt x="152" y="1028" on="0"/>
        <pt x="305" y="1104" on="0"/>
        <pt x="500" y="1161" on="0"/>
        <pt x="588" y="1161" on="1"/>
        <pt x="734" y="1161" on="0"/>
        <pt x="901" y="1082" on="0"/>
        <pt x="975" y="908" on="0"/>
        <pt x="975" y="760" on="1"/>
        <pt x="975" y="110" on="1"/>
        <pt x="1097" y="110" on="1"/>
        <pt x="1097" y="12" on="1"/>
        <pt x="1076" y="6" on="0"/>
        <pt x="1046" y="0" on="1"/>
        <pt x="975" y="-25" on="0"/>
        <pt x="855" y="-110" on="0"/>
        <pt x="784" y="-205" on="0"/>
        <pt x="784" y="-244" on="1"/>
        <pt x="784" y="-305" on="0"/>
        <pt x="865" y="-365" on="0"/>
        <pt x="931" y="-365" on="1"/>
        <pt x="996" y="-365" on="0"/>
        <pt x="1072" y="-332" on="1"/>
        <pt x="1072" y="-442" on="1"/>
        <pt x="1030" y="-474" on="0"/>
        <pt x="899" y="-511" on="0"/>
        <pt x="835" y="-511" on="1"/>
        <pt x="724" y="-511" on="0"/>
        <pt x="576" y="-415" on="0"/>
        <pt x="576" y="-315" on="1"/>
        <pt x="576" y="-266" on="0"/>
        <pt x="648" y="-156" on="0"/>
        <pt x="769" y="-56" on="0"/>
        <pt x="841" y="-21" on="1"/>
        <pt x="802" y="-17" on="0"/>
        <pt x="770" y="25" on="0"/>
        <pt x="770" y="79" on="1"/>
        <pt x="770" y="127" on="1"/>
        <pt x="716" y="74" on="0"/>
        <pt x="540" y="-23" on="0"/>
        <pt x="431" y="-23" on="1"/>
        <pt x="335" y="-23" on="0"/>
        <pt x="178" y="47" on="0"/>
        <pt x="85" y="193" on="0"/>
        <pt x="85" y="302" on="1"/>
        <pt x="85" y="435" on="0"/>
        <pt x="270" y="607" on="0"/>
        <pt x="571" y="688" on="0"/>
        <pt x="755" y="691" on="1"/>
      </contour>
      <contour>
        <pt x="755" y="578" on="1"/>
        <pt x="608" y="578" on="0"/>
        <pt x="419" y="511" on="0"/>
        <pt x="334" y="401" on="0"/>
        <pt x="334" y="331" on="1"/>
        <pt x="334" y="226" on="0"/>
        <pt x="438" y="128" on="0"/>
        <pt x="526" y="128" on="1"/>
        <pt x="573" y="128" on="0"/>
        <pt x="706" y="181" on="0"/>
        <pt x="755" y="219" on="1"/>
      </contour>
    </TTGlyph>
    <TTGlyph name="approxequal" xMin="205" yMin="148" xMax="1189" yMax="1075">
      <component glyphName="asciitilde" x="-10" y="-293" flags="0x4"/>
      <component glyphName="asciitilde" x="-10" y="295" flags="0x4"/>
    </TTGlyph>
    <TTGlyph name="aring" xMin="85" yMin="-23" xMax="1097" yMax="1872">
      <component glyphName="a" x="0" y="0" flags="0x0"/>
      <component glyphName="ring" x="52" y="0" flags="0x0"/>
    </TTGlyph>
    <TTGlyph name="arrowboth" xMin="110" yMin="178" xMax="2493" yMax="1362">
      <contour>
        <pt x="1785" y="295" on="1"/>
        <pt x="2187" y="697" on="1"/>
        <pt x="2066" y="684" on="1"/>
        <pt x="537" y="684" on="1"/>
        <pt x="416" y="697" on="1"/>
        <pt x="818" y="295" on="1"/>
        <pt x="703" y="178" on="1"/>
        <pt x="110" y="769" on="1"/>
        <pt x="703" y="1362" on="1"/>
        <pt x="818" y="1244" on="1"/>
        <pt x="416" y="843" on="1"/>
        <pt x="537" y="856" on="1"/>
        <pt x="2066" y="856" on="1"/>
        <pt x="2187" y="843" on="1"/>
        <pt x="1785" y="1244" on="1"/>
        <pt x="1901" y="1362" on="1"/>
        <pt x="2493" y="769" on="1"/>
        <pt x="1901" y="178" on="1"/>
      </contour>
    </TTGlyph>
    <TTGlyph name="arrowdown" xMin="176" yMin="143" xMax="1360" yMax="1453">
      <contour>
        <pt x="1242" y="851" on="1"/>
        <pt x="1360" y="736" on="1"/>
        <pt x="767" y="143" on="1"/>
        <pt x="176" y="736" on="1"/>
        <pt x="293" y="851" on="1"/>
        <pt x="695" y="448" on="1"/>
        <pt x="682" y="570" on="1"/>
        <pt x="682" y="1452" on="1"/>
        <pt x="854" y="1453" on="1"/>
        <pt x="854" y="570" on="1"/>
        <pt x="840" y="449" on="1"/>
      </contour>
    </TTGlyph>
    <TTGlyph name="arrowleft" xMin="114" yMin="178" xMax="1423" yMax="1362">
      <contour>
        <pt x="706" y="1362" on="1"/>
        <pt x="822" y="1244" on="1"/>
        <pt x="419" y="842" on="1"/>
        <pt x="541" y="856" on="1"/>
        <pt x="1423" y="856" on="1"/>
        <pt x="1421" y="684" on="1"/>
        <pt x="541" y="684" on="1"/>
        <pt x="419" y="697" on="1"/>
        <pt x="822" y="295" on="1"/>
        <pt x="706" y="178" on="1"/>
        <pt x="114" y="769" on="1"/>
      </contour>
    </TTGlyph>
    <TTGlyph name="arrowright" xMin="107" yMin="178" xMax="1416" yMax="1362">
      <contour>
        <pt x="824" y="178" on="1"/>
        <pt x="708" y="295" on="1"/>
        <pt x="1111" y="697" on="1"/>
        <pt x="989" y="684" on="1"/>
        <pt x="109" y="684" on="1"/>
        <pt x="107" y="856" on="1"/>
        <pt x="989" y="856" on="1"/>
        <pt x="1111" y="842" on="1"/>
        <pt x="708" y="1244" on="1"/>
        <pt x="824" y="1362" on="1"/>
        <pt x="1416" y="769" on="1"/>
      </contour>
    </TTGlyph>
    <TTGlyph name="arrowup" xMin="176" yMin="140" xMax="1360" yMax="1450">
      <contour>
        <pt x="854" y="1023" on="1"/>
        <pt x="854" y="140" on="1"/>
        <pt x="682" y="141" on="1"/>
        <pt x="682" y="1023" on="1"/>
        <pt x="695" y="1145" on="1"/>
        <pt x="293" y="742" on="1"/>
        <pt x="176" y="857" on="1"/>
        <pt x="767" y="1450" on="1"/>
        <pt x="1360" y="857" on="1"/>
        <pt x="1242" y="742" on="1"/>
        <pt x="840" y="1144" on="1"/>
      </contour>
    </TTGlyph>
    <TTGlyph name="arrowupdn" xMin="176" yMin="-420" xMax="1360" yMax="1962">
      <contour>
        <pt x="1242" y="1254" on="1"/>
        <pt x="841" y="1657" on="1"/>
        <pt x="854" y="1535" on="1"/>
        <pt x="854" y="7" on="1"/>
        <pt x="841" y="-115" on="1"/>
        <pt x="1242" y="288" on="1"/>
        <pt x="1360" y="172" on="1"/>
        <pt x="768" y="-420" on="1"/>
        <pt x="176" y="172" on="1"/>
        <pt x="293" y="288" on="1"/>
        <pt x="695" y="-114" on="1"/>
        <pt x="682" y="7" on="1"/>
        <pt x="682" y="1535" on="1"/>
        <pt x="695" y="1656" on="1"/>
        <pt x="293" y="1254" on="1"/>
        <pt x="176" y="1370" on="1"/>
        <pt x="768" y="1962" on="1"/>
        <pt x="1360" y="1370" on="1"/>
      </contour>
    </TTGlyph>
    <TTGlyph name="asciicircum" xMin="180" yMin="272" xMax="1183" yMax="1531">
      <contour>
        <pt x="779" y="1531" on="1"/>
        <pt x="1183" y="272" on="1"/>
        <pt x="973" y="272" on="1"/>
        <pt x="680" y="1308" on="1"/>
        <pt x="388" y="272" on="1"/>
        <pt x="180" y="272" on="1"/>
        <pt x="579" y="1531" on="1"/>
      </contour>
    </TTGlyph>
    <TTGlyph name="asciitilde" xMin="215" yMin="441" xMax="1199" yMax="780">
      <contour>
        <pt x="242" y="639" on="0"/>
        <pt x="338" y="725" on="0"/>
        <pt x="465" y="780" on="0"/>
        <pt x="534" y="780" on="1"/>
        <pt x="580" y="780" on="0"/>
        <pt x="658" y="753" on="0"/>
        <pt x="718" y="716" on="0"/>
        <pt x="759" y="685" on="1"/>
        <pt x="809" y="648" on="0"/>
        <pt x="870" y="615" on="0"/>
        <pt x="907" y="615" on="1"/>
        <pt x="973" y="615" on="0"/>
        <pt x="1073" y="675" on="0"/>
        <pt x="1115" y="725" on="1"/>
        <pt x="1199" y="630" on="1"/>
        <pt x="1170" y="580" on="0"/>
        <pt x="1074" y="494" on="0"/>
        <pt x="949" y="441" on="0"/>
        <pt x="880" y="441" on="1"/>
        <pt x="836" y="441" on="0"/>
        <pt x="761" y="467" on="0"/>
        <pt x="705" y="503" on="0"/>
        <pt x="665" y="533" on="1"/>
        <pt x="616" y="571" on="0"/>
        <pt x="550" y="607" on="0"/>
        <pt x="509" y="607" on="1"/>
        <pt x="446" y="607" on="0"/>
        <pt x="344" y="546" on="0"/>
        <pt x="299" y="497" on="1"/>
        <pt x="215" y="592" on="1"/>
      </contour>
    </TTGlyph>
    <TTGlyph name="asterisk" xMin="148" yMin="633" xMax="1166" yMax="1684">
      <contour>
        <pt x="430" y="1106" on="1"/>
        <pt x="599" y="1159" on="1"/>
        <pt x="430" y="1208" on="1"/>
        <pt x="148" y="1330" on="1"/>
        <pt x="249" y="1507" on="1"/>
        <pt x="496" y="1325" on="1"/>
        <pt x="628" y="1206" on="1"/>
        <pt x="585" y="1377" on="1"/>
        <pt x="546" y="1684" on="1"/>
        <pt x="754" y="1684" on="1"/>
        <pt x="722" y="1379" on="1"/>
        <pt x="684" y="1209" on="1"/>
        <pt x="811" y="1329" on="1"/>
        <pt x="1058" y="1515" on="1"/>
        <pt x="1161" y="1340" on="1"/>
        <pt x="884" y="1213" on="1"/>
        <pt x="712" y="1160" on="1"/>
        <pt x="884" y="1111" on="1"/>
        <pt x="1166" y="992" on="1"/>
        <pt x="1061" y="809" on="1"/>
        <pt x="818" y="991" on="1"/>
        <pt x="684" y="1110" on="1"/>
        <pt x="728" y="939" on="1"/>
        <pt x="768" y="634" on="1"/>
        <pt x="559" y="633" on="1"/>
        <pt x="590" y="939" on="1"/>
        <pt x="628" y="1112" on="1"/>
        <pt x="501" y="988" on="1"/>
        <pt x="256" y="802" on="1"/>
        <pt x="152" y="979" on="1"/>
      </contour>
    </TTGlyph>
    <TTGlyph name="at" xMin="186" yMin="-513" xMax="1980" yMax="1543">
      <contour>
        <pt x="1476" y="1543" on="0"/>
        <pt x="1799" y="1374" on="0"/>
        <pt x="1980" y="1037" on="0"/>
        <pt x="1980" y="793" on="1"/>
        <pt x="1980" y="540" on="0"/>
        <pt x="1781" y="165" on="0"/>
        <pt x="1510" y="-32" on="0"/>
        <pt x="1413" y="-32" on="1"/>
        <pt x="1358" y="-32" on="0"/>
        <pt x="1278" y="64" on="0"/>
        <pt x="1272" y="147" on="1"/>
        <pt x="1270" y="169" on="0"/>
        <pt x="1270" y="185" on="1"/>
        <pt x="1270" y="270" on="0"/>
        <pt x="1298" y="437" on="1"/>
        <pt x="1251" y="311" on="0"/>
        <pt x="1125" y="95" on="0"/>
        <pt x="975" y="-39" on="0"/>
        <pt x="898" y="-39" on="1"/>
        <pt x="828" y="-39" on="0"/>
        <pt x="697" y="62" on="0"/>
        <pt x="614" y="249" on="0"/>
        <pt x="614" y="373" on="1"/>
        <pt x="614" y="523" on="0"/>
        <pt x="746" y="839" on="0"/>
        <pt x="987" y="1048" on="0"/>
        <pt x="1142" y="1048" on="1"/>
        <pt x="1199" y="1048" on="0"/>
        <pt x="1324" y="1021" on="0"/>
        <pt x="1375" y="993" on="1"/>
        <pt x="1384" y="1019" on="0"/>
        <pt x="1403" y="1045" on="0"/>
        <pt x="1420" y="1042" on="1"/>
        <pt x="1451" y="1032" on="0"/>
        <pt x="1476" y="1023" on="1"/>
        <pt x="1525" y="1005" on="0"/>
        <pt x="1545" y="999" on="1"/>
        <pt x="1517" y="872" on="0"/>
        <pt x="1454" y="488" on="0"/>
        <pt x="1443" y="353" on="1"/>
        <pt x="1439" y="313" on="0"/>
        <pt x="1439" y="272" on="1"/>
        <pt x="1439" y="206" on="0"/>
        <pt x="1461" y="131" on="0"/>
        <pt x="1478" y="131" on="1"/>
        <pt x="1553" y="131" on="0"/>
        <pt x="1719" y="288" on="0"/>
        <pt x="1832" y="568" on="0"/>
        <pt x="1832" y="742" on="1"/>
        <pt x="1832" y="971" on="0"/>
        <pt x="1653" y="1267" on="0"/>
        <pt x="1360" y="1401" on="0"/>
        <pt x="1185" y="1401" on="1"/>
        <pt x="962" y="1401" on="0"/>
        <pt x="579" y="1157" on="0"/>
        <pt x="349" y="703" on="0"/>
        <pt x="349" y="404" on="1"/>
        <pt x="349" y="154" on="0"/>
        <pt x="519" y="-194" on="0"/>
        <pt x="810" y="-369" on="0"/>
        <pt x="991" y="-369" on="1"/>
        <pt x="1100" y="-369" on="0"/>
        <pt x="1343" y="-315" on="0"/>
        <pt x="1400" y="-276" on="1"/>
        <pt x="1440" y="-366" on="1"/>
        <pt x="1361" y="-432" on="0"/>
        <pt x="1099" y="-513" on="0"/>
        <pt x="954" y="-513" on="1"/>
        <pt x="713" y="-513" on="0"/>
        <pt x="367" y="-301" on="0"/>
        <pt x="186" y="93" on="0"/>
        <pt x="186" y="361" on="1"/>
        <pt x="186" y="704" on="0"/>
        <pt x="485" y="1244" on="0"/>
        <pt x="979" y="1543" on="0"/>
        <pt x="1262" y="1543" on="1"/>
      </contour>
      <contour>
        <pt x="991" y="153" on="0"/>
        <pt x="1109" y="284" on="0"/>
        <pt x="1222" y="494" on="0"/>
        <pt x="1263" y="610" on="1"/>
        <pt x="1305" y="735" on="0"/>
        <pt x="1318" y="825" on="1"/>
        <pt x="1290" y="854" on="0"/>
        <pt x="1142" y="899" on="0"/>
        <pt x="1091" y="899" on="1"/>
        <pt x="1006" y="899" on="0"/>
        <pt x="880" y="764" on="0"/>
        <pt x="813" y="545" on="0"/>
        <pt x="813" y="424" on="1"/>
        <pt x="813" y="321" on="0"/>
        <pt x="874" y="153" on="0"/>
        <pt x="945" y="153" on="1"/>
      </contour>
    </TTGlyph>
    <TTGlyph name="atilde" xMin="85" yMin="-23" xMax="1097" yMax="1662">
      <component glyphName="a" x="0" y="0" flags="0x0"/>
      <component glyphName="tilde" x="53" y="0" flags="0x0"/>
    </TTGlyph>
    <TTGlyph name="b" xMin="-5" yMin="-23" xMax="1156" yMax="1679">
      <contour>
        <pt x="-5" y="1542" on="1"/>
        <pt x="-5" y="1636" on="1"/>
        <pt x="332" y="1679" on="1"/>
        <pt x="337" y="1679" on="1"/>
        <pt x="387" y="1645" on="1"/>
        <pt x="387" y="1034" on="1"/>
        <pt x="446" y="1092" on="0"/>
        <pt x="610" y="1168" on="0"/>
        <pt x="710" y="1168" on="1"/>
        <pt x="832" y="1168" on="0"/>
        <pt x="1034" y="1050" on="0"/>
        <pt x="1156" y="799" on="0"/>
        <pt x="1156" y="609" on="1"/>
        <pt x="1156" y="433" on="0"/>
        <pt x="1012" y="144" on="0"/>
        <pt x="743" y="-23" on="0"/>
        <pt x="564" y="-23" on="1"/>
        <pt x="467" y="-23" on="0"/>
        <pt x="292" y="4" on="0"/>
        <pt x="174" y="42" on="0"/>
        <pt x="160" y="56" on="1"/>
        <pt x="160" y="1522" on="1"/>
      </contour>
      <contour>
        <pt x="387" y="157" on="1"/>
        <pt x="400" y="127" on="0"/>
        <pt x="508" y="92" on="0"/>
        <pt x="579" y="92" on="1"/>
        <pt x="677" y="92" on="0"/>
        <pt x="826" y="202" on="0"/>
        <pt x="910" y="423" on="0"/>
        <pt x="910" y="585" on="1"/>
        <pt x="910" y="729" on="0"/>
        <pt x="835" y="921" on="0"/>
        <pt x="703" y="1013" on="0"/>
        <pt x="618" y="1013" on="1"/>
        <pt x="546" y="1013" on="0"/>
        <pt x="424" y="948" on="0"/>
        <pt x="387" y="907" on="1"/>
      </contour>
    </TTGlyph>
    <TTGlyph name="backslash" xMin="59" yMin="-363" xMax="801" yMax="1599">
      <contour>
        <pt x="801" y="-363" on="1"/>
        <pt x="609" y="-363" on="1"/>
        <pt x="59" y="1599" on="1"/>
        <pt x="251" y="1599" on="1"/>
      </contour>
    </TTGlyph>
    <TTGlyph name="bar" xMin="341" yMin="-186" xMax="524" yMax="1780">
      <contour>
        <pt x="524" y="1780" on="1"/>
        <pt x="524" y="-186" on="1"/>
        <pt x="341" y="-186" on="1"/>
        <pt x="341" y="1780" on="1"/>
      </contour>
    </TTGlyph>
    <TTGlyph name="braceleft" xMin="177" yMin="-280" xMax="878" yMax="1649">
      <contour>
        <pt x="431" y="512" on="0"/>
        <pt x="401" y="577" on="0"/>
        <pt x="291" y="615" on="0"/>
        <pt x="177" y="615" on="1"/>
        <pt x="177" y="776" on="1"/>
        <pt x="293" y="776" on="0"/>
        <pt x="401" y="803" on="0"/>
        <pt x="431" y="859" on="0"/>
        <pt x="431" y="913" on="1"/>
        <pt x="431" y="964" on="0"/>
        <pt x="400" y="1057" on="0"/>
        <pt x="368" y="1131" on="1"/>
        <pt x="332" y="1211" on="0"/>
        <pt x="296" y="1327" on="0"/>
        <pt x="296" y="1393" on="1"/>
        <pt x="296" y="1521" on="0"/>
        <pt x="440" y="1649" on="0"/>
        <pt x="612" y="1649" on="1"/>
        <pt x="739" y="1649" on="0"/>
        <pt x="878" y="1613" on="1"/>
        <pt x="878" y="1513" on="1"/>
        <pt x="850" y="1514" on="0"/>
        <pt x="735" y="1515" on="0"/>
        <pt x="707" y="1515" on="1"/>
        <pt x="642" y="1515" on="0"/>
        <pt x="562" y="1489" on="0"/>
        <pt x="519" y="1420" on="0"/>
        <pt x="519" y="1355" on="1"/>
        <pt x="519" y="1316" on="0"/>
        <pt x="542" y="1223" on="0"/>
        <pt x="566" y="1149" on="1"/>
        <pt x="592" y="1069" on="0"/>
        <pt x="620" y="957" on="0"/>
        <pt x="620" y="906" on="1"/>
        <pt x="620" y="811" on="0"/>
        <pt x="486" y="706" on="0"/>
        <pt x="372" y="688" on="1"/>
        <pt x="620" y="651" on="0"/>
        <pt x="620" y="463" on="1"/>
        <pt x="620" y="412" on="0"/>
        <pt x="592" y="300" on="0"/>
        <pt x="566" y="220" on="1"/>
        <pt x="543" y="148" on="0"/>
        <pt x="519" y="54" on="0"/>
        <pt x="519" y="15" on="1"/>
        <pt x="519" y="-50" on="0"/>
        <pt x="562" y="-120" on="0"/>
        <pt x="642" y="-145" on="0"/>
        <pt x="707" y="-145" on="1"/>
        <pt x="736" y="-145" on="0"/>
        <pt x="850" y="-143" on="0"/>
        <pt x="878" y="-142" on="1"/>
        <pt x="878" y="-244" on="1"/>
        <pt x="739" y="-280" on="0"/>
        <pt x="612" y="-280" on="1"/>
        <pt x="439" y="-280" on="0"/>
        <pt x="296" y="-150" on="0"/>
        <pt x="296" y="-24" on="1"/>
        <pt x="296" y="42" on="0"/>
        <pt x="332" y="156" on="0"/>
        <pt x="368" y="237" on="1"/>
        <pt x="400" y="309" on="0"/>
        <pt x="431" y="404" on="0"/>
        <pt x="431" y="455" on="1"/>
      </contour>
    </TTGlyph>
    <TTGlyph name="braceright" xMin="157" yMin="-280" xMax="858" yMax="1649">
      <contour>
        <pt x="739" y="-150" on="0"/>
        <pt x="596" y="-280" on="0"/>
        <pt x="423" y="-280" on="1"/>
        <pt x="296" y="-280" on="0"/>
        <pt x="157" y="-244" on="1"/>
        <pt x="157" y="-142" on="1"/>
        <pt x="185" y="-143" on="0"/>
        <pt x="299" y="-145" on="0"/>
        <pt x="328" y="-145" on="1"/>
        <pt x="393" y="-145" on="0"/>
        <pt x="473" y="-120" on="0"/>
        <pt x="516" y="-50" on="0"/>
        <pt x="516" y="15" on="1"/>
        <pt x="516" y="54" on="0"/>
        <pt x="492" y="148" on="0"/>
        <pt x="469" y="220" on="1"/>
        <pt x="443" y="300" on="0"/>
        <pt x="415" y="412" on="0"/>
        <pt x="415" y="463" on="1"/>
        <pt x="415" y="651" on="0"/>
        <pt x="663" y="688" on="1"/>
        <pt x="549" y="706" on="0"/>
        <pt x="415" y="811" on="0"/>
        <pt x="415" y="906" on="1"/>
        <pt x="415" y="957" on="0"/>
        <pt x="443" y="1069" on="0"/>
        <pt x="469" y="1149" on="1"/>
        <pt x="493" y="1223" on="0"/>
        <pt x="516" y="1316" on="0"/>
        <pt x="516" y="1355" on="1"/>
        <pt x="516" y="1420" on="0"/>
        <pt x="473" y="1489" on="0"/>
        <pt x="393" y="1515" on="0"/>
        <pt x="328" y="1515" on="1"/>
        <pt x="300" y="1515" on="0"/>
        <pt x="185" y="1514" on="0"/>
        <pt x="157" y="1513" on="1"/>
        <pt x="157" y="1613" on="1"/>
        <pt x="296" y="1649" on="0"/>
        <pt x="423" y="1649" on="1"/>
        <pt x="595" y="1649" on="0"/>
        <pt x="739" y="1521" on="0"/>
        <pt x="739" y="1393" on="1"/>
        <pt x="739" y="1327" on="0"/>
        <pt x="703" y="1211" on="0"/>
        <pt x="667" y="1131" on="1"/>
        <pt x="635" y="1057" on="0"/>
        <pt x="604" y="964" on="0"/>
        <pt x="604" y="913" on="1"/>
        <pt x="604" y="859" on="0"/>
        <pt x="634" y="803" on="0"/>
        <pt x="742" y="776" on="0"/>
        <pt x="858" y="776" on="1"/>
        <pt x="858" y="615" on="1"/>
        <pt x="744" y="615" on="0"/>
        <pt x="634" y="577" on="0"/>
        <pt x="604" y="512" on="0"/>
        <pt x="604" y="455" on="1"/>
        <pt x="604" y="404" on="0"/>
        <pt x="635" y="309" on="0"/>
        <pt x="667" y="237" on="1"/>
        <pt x="703" y="156" on="0"/>
        <pt x="739" y="42" on="0"/>
        <pt x="739" y="-24" on="1"/>
      </contour>
    </TTGlyph>
    <TTGlyph name="bracketleft" xMin="191" yMin="-281" xMax="690" yMax="1647">
      <contour>
        <pt x="191" y="1520" on="0"/>
        <pt x="233" y="1614" on="0"/>
        <pt x="321" y="1647" on="0"/>
        <pt x="401" y="1647" on="1"/>
        <pt x="474" y="1647" on="0"/>
        <pt x="601" y="1626" on="0"/>
        <pt x="690" y="1606" on="1"/>
        <pt x="690" y="1512" on="1"/>
        <pt x="393" y="1512" on="1"/>
        <pt x="393" y="-144" on="1"/>
        <pt x="690" y="-144" on="1"/>
        <pt x="690" y="-239" on="1"/>
        <pt x="616" y="-259" on="0"/>
        <pt x="476" y="-281" on="0"/>
        <pt x="401" y="-281" on="1"/>
        <pt x="322" y="-281" on="0"/>
        <pt x="233" y="-248" on="0"/>
        <pt x="191" y="-154" on="0"/>
        <pt x="191" y="-63" on="1"/>
        <pt x="191" y="1429" on="1"/>
      </contour>
    </TTGlyph>
    <TTGlyph name="bracketright" xMin="183" yMin="-281" xMax="682" yMax="1647">
      <contour>
        <pt x="682" y="-63" on="1"/>
        <pt x="682" y="-154" on="0"/>
        <pt x="640" y="-248" on="0"/>
        <pt x="551" y="-281" on="0"/>
        <pt x="472" y="-281" on="1"/>
        <pt x="397" y="-281" on="0"/>
        <pt x="257" y="-259" on="0"/>
        <pt x="183" y="-239" on="1"/>
        <pt x="183" y="-144" on="1"/>
        <pt x="480" y="-144" on="1"/>
        <pt x="480" y="1512" on="1"/>
        <pt x="183" y="1512" on="1"/>
        <pt x="183" y="1606" on="1"/>
        <pt x="272" y="1626" on="0"/>
        <pt x="399" y="1647" on="0"/>
        <pt x="472" y="1647" on="1"/>
        <pt x="552" y="1647" on="0"/>
        <pt x="640" y="1614" on="0"/>
        <pt x="682" y="1520" on="0"/>
        <pt x="682" y="1429" on="1"/>
      </contour>
    </TTGlyph>
    <TTGlyph name="breve" xMin="168" yMin="1351" xMax="848" yMax="1753">
      <contour>
        <pt x="168" y="1737" on="0"/>
        <pt x="172" y="1753" on="1"/>
        <pt x="290" y="1753" on="1"/>
        <pt x="290" y="1732" on="0"/>
        <pt x="293" y="1716" on="1"/>
        <pt x="303" y="1644" on="0"/>
        <pt x="406" y="1531" on="0"/>
        <pt x="513" y="1531" on="1"/>
        <pt x="619" y="1531" on="0"/>
        <pt x="717" y="1643" on="0"/>
        <pt x="727" y="1716" on="1"/>
        <pt x="730" y="1740" on="0"/>
        <pt x="730" y="1753" on="1"/>
        <pt x="844" y="1753" on="1"/>
        <pt x="845" y="1744" on="0"/>
        <pt x="848" y="1707" on="0"/>
        <pt x="848" y="1694" on="1"/>
        <pt x="848" y="1603" on="0"/>
        <pt x="764" y="1445" on="0"/>
        <pt x="610" y="1351" on="0"/>
        <pt x="511" y="1351" on="1"/>
        <pt x="408" y="1351" on="0"/>
        <pt x="252" y="1445" on="0"/>
        <pt x="168" y="1601" on="0"/>
        <pt x="168" y="1693" on="1"/>
      </contour>
    </TTGlyph>
    <TTGlyph name="breve.cap" xMin="167" yMin="1643" xMax="851" yMax="1998">
      <contour>
        <pt x="167" y="1984" on="0"/>
        <pt x="169" y="1998" on="1"/>
        <pt x="290" y="1998" on="1"/>
        <pt x="290" y="1983" on="0"/>
        <pt x="293" y="1971" on="1"/>
        <pt x="302" y="1911" on="0"/>
        <pt x="404" y="1812" on="0"/>
        <pt x="514" y="1812" on="1"/>
        <pt x="623" y="1812" on="0"/>
        <pt x="721" y="1911" on="0"/>
        <pt x="728" y="1972" on="1"/>
        <pt x="730" y="1984" on="0"/>
        <pt x="730" y="1998" on="1"/>
        <pt x="849" y="1998" on="1"/>
        <pt x="851" y="1984" on="0"/>
        <pt x="851" y="1957" on="1"/>
        <pt x="851" y="1869" on="0"/>
        <pt x="770" y="1726" on="0"/>
        <pt x="617" y="1643" on="0"/>
        <pt x="512" y="1643" on="1"/>
        <pt x="403" y="1643" on="0"/>
        <pt x="247" y="1725" on="0"/>
        <pt x="167" y="1868" on="0"/>
        <pt x="167" y="1956" on="1"/>
      </contour>
    </TTGlyph>
    <TTGlyph name="breve.r" xMin="119" yMin="1322" xMax="902" yMax="1730">
      <contour>
        <pt x="119" y="1708" on="0"/>
        <pt x="121" y="1730" on="1"/>
        <pt x="282" y="1730" on="1"/>
        <pt x="302" y="1730" on="0"/>
        <pt x="316" y="1683" on="0"/>
        <pt x="316" y="1647" on="1"/>
        <pt x="316" y="1593" on="0"/>
        <pt x="357" y="1498" on="0"/>
        <pt x="445" y="1438" on="0"/>
        <pt x="514" y="1438" on="1"/>
        <pt x="613" y="1438" on="0"/>
        <pt x="703" y="1560" on="0"/>
        <pt x="703" y="1647" on="1"/>
        <pt x="703" y="1730" on="0"/>
        <pt x="737" y="1730" on="1"/>
        <pt x="900" y="1730" on="1"/>
        <pt x="902" y="1708" on="0"/>
        <pt x="902" y="1690" on="1"/>
        <pt x="902" y="1580" on="0"/>
        <pt x="813" y="1414" on="0"/>
        <pt x="638" y="1322" on="0"/>
        <pt x="513" y="1322" on="1"/>
        <pt x="390" y="1322" on="0"/>
        <pt x="212" y="1415" on="0"/>
        <pt x="119" y="1582" on="0"/>
        <pt x="119" y="1690" on="1"/>
      </contour>
    </TTGlyph>
    <TTGlyph name="breve.rcap" xMin="114" yMin="1661" xMax="902" yMax="2013">
      <contour>
        <pt x="116" y="2013" on="1"/>
        <pt x="286" y="2013" on="1"/>
        <pt x="320" y="2013" on="0"/>
        <pt x="320" y="1929" on="1"/>
        <pt x="320" y="1850" on="0"/>
        <pt x="407" y="1764" on="0"/>
        <pt x="508" y="1764" on="1"/>
        <pt x="609" y="1764" on="0"/>
        <pt x="696" y="1850" on="0"/>
        <pt x="696" y="1929" on="1"/>
        <pt x="696" y="2013" on="0"/>
        <pt x="730" y="2013" on="1"/>
        <pt x="900" y="2013" on="1"/>
        <pt x="902" y="1969" on="1"/>
        <pt x="902" y="1661" on="0"/>
        <pt x="507" y="1661" on="1"/>
        <pt x="316" y="1661" on="0"/>
        <pt x="114" y="1814" on="0"/>
        <pt x="114" y="1969" on="1"/>
      </contour>
    </TTGlyph>
    <TTGlyph name="brokenbar" xMin="341" yMin="-186" xMax="524" yMax="1780">
      <contour>
        <pt x="524" y="1780" on="1"/>
        <pt x="524" y="950" on="1"/>
        <pt x="341" y="950" on="1"/>
        <pt x="341" y="1780" on="1"/>
      </contour>
      <contour>
        <pt x="524" y="641" on="1"/>
        <pt x="524" y="-186" on="1"/>
        <pt x="341" y="-186" on="1"/>
        <pt x="341" y="641" on="1"/>
      </contour>
    </TTGlyph>
    <TTGlyph name="bullet" xMin="217" yMin="476" xMax="632" yMax="905">
      <contour>
        <pt x="217" y="751" on="0"/>
        <pt x="278" y="849" on="0"/>
        <pt x="378" y="905" on="0"/>
        <pt x="435" y="905" on="1"/>
        <pt x="491" y="905" on="0"/>
        <pt x="580" y="850" on="0"/>
        <pt x="632" y="753" on="0"/>
        <pt x="632" y="691" on="1"/>
        <pt x="632" y="633" on="0"/>
        <pt x="571" y="534" on="0"/>
        <pt x="471" y="476" on="0"/>
        <pt x="415" y="476" on="1"/>
        <pt x="360" y="476" on="0"/>
        <pt x="269" y="535" on="0"/>
        <pt x="217" y="634" on="0"/>
        <pt x="217" y="691" on="1"/>
      </contour>
    </TTGlyph>
    <TTGlyph name="bullet.cap" xMin="217" yMin="638" xMax="632" yMax="1067">
      <component glyphName="bullet" x="0" y="162" flags="0x4"/>
    </TTGlyph>
    <TTGlyph name="c" xMin="77" yMin="-23" xMax="977" yMax="1168">
      <contour>
        <pt x="797" y="1168" on="0"/>
        <pt x="961" y="1106" on="1"/>
        <pt x="951" y="798" on="1"/>
        <pt x="812" y="798" on="1"/>
        <pt x="766" y="985" on="1"/>
        <pt x="752" y="1018" on="0"/>
        <pt x="669" y="1050" on="0"/>
        <pt x="611" y="1050" on="1"/>
        <pt x="523" y="1050" on="0"/>
        <pt x="393" y="953" on="0"/>
        <pt x="321" y="760" on="0"/>
        <pt x="321" y="618" on="1"/>
        <pt x="321" y="453" on="0"/>
        <pt x="407" y="235" on="0"/>
        <pt x="555" y="131" on="0"/>
        <pt x="648" y="131" on="1"/>
        <pt x="735" y="131" on="0"/>
        <pt x="882" y="182" on="0"/>
        <pt x="934" y="219" on="1"/>
        <pt x="977" y="127" on="1"/>
        <pt x="941" y="90" on="0"/>
        <pt x="821" y="21" on="0"/>
        <pt x="672" y="-23" on="0"/>
        <pt x="597" y="-23" on="1"/>
        <pt x="428" y="-23" on="0"/>
        <pt x="194" y="127" on="0"/>
        <pt x="77" y="388" on="0"/>
        <pt x="77" y="554" on="1"/>
        <pt x="77" y="725" on="0"/>
        <pt x="209" y="1004" on="0"/>
        <pt x="469" y="1168" on="0"/>
        <pt x="653" y="1168" on="1"/>
      </contour>
    </TTGlyph>
    <TTGlyph name="cacute" xMin="77" yMin="-23" xMax="977" yMax="1814">
      <component glyphName="acute" x="251" y="0" flags="0x0"/>
      <component glyphName="c" x="0" y="0" flags="0x0"/>
    </TTGlyph>
    <TTGlyph name="caron" xMin="139" yMin="1342" xMax="884" yMax="1800">
      <contour>
        <pt x="228" y="1799" on="1"/>
        <pt x="512" y="1517" on="1"/>
        <pt x="801" y="1800" on="1"/>
        <pt x="884" y="1740" on="1"/>
        <pt x="601" y="1342" on="1"/>
        <pt x="421" y="1342" on="1"/>
        <pt x="139" y="1739" on="1"/>
      </contour>
    </TTGlyph>
    <TTGlyph name="caron.cap" xMin="-7" yMin="1676" xMax="688" yMax="2013">
      <contour>
        <pt x="84" y="2013" on="1"/>
        <pt x="339" y="1824" on="1"/>
        <pt x="603" y="2013" on="1"/>
        <pt x="688" y="1954" on="1"/>
        <pt x="431" y="1676" on="1"/>
        <pt x="248" y="1676" on="1"/>
        <pt x="-7" y="1952" on="1"/>
      </contour>
    </TTGlyph>
    <TTGlyph name="caronvertical" xMin="65" yMin="1027" xMax="310" yMax="1685">
      <contour>
        <pt x="85" y="1085" on="1"/>
        <pt x="118" y="1201" on="0"/>
        <pt x="118" y="1347" on="1"/>
        <pt x="118" y="1433" on="0"/>
        <pt x="84" y="1580" on="0"/>
        <pt x="65" y="1605" on="1"/>
        <pt x="79" y="1645" on="1"/>
        <pt x="247" y="1685" on="1"/>
        <pt x="275" y="1657" on="0"/>
        <pt x="310" y="1519" on="0"/>
        <pt x="310" y="1440" on="1"/>
        <pt x="310" y="1356" on="0"/>
        <pt x="274" y="1186" on="0"/>
        <pt x="216" y="1056" on="0"/>
        <pt x="185" y="1027" on="1"/>
        <pt x="89" y="1061" on="1"/>
      </contour>
    </TTGlyph>
    <TTGlyph name="ccaron" xMin="77" yMin="-23" xMax="977" yMax="1800">
      <component glyphName="caron" x="85" y="0" flags="0x0"/>
      <component glyphName="c" x="0" y="0" flags="0x0"/>
    </TTGlyph>
    <TTGlyph name="ccedilla" xMin="77" yMin="-494" xMax="977" yMax="1168">
      <contour>
        <pt x="926" y="73" on="0"/>
        <pt x="735" y="-14" on="0"/>
        <pt x="632" y="-22" on="1"/>
        <pt x="674" y="-71" on="0"/>
        <pt x="740" y="-209" on="0"/>
        <pt x="740" y="-280" on="1"/>
        <pt x="740" y="-396" on="0"/>
        <pt x="608" y="-494" on="0"/>
        <pt x="476" y="-494" on="1"/>
        <pt x="475" y="-494" on="1"/>
        <pt x="440" y="-494" on="0"/>
        <pt x="357" y="-479" on="0"/>
        <pt x="331" y="-467" on="1"/>
        <pt x="332" y="-314" on="1"/>
        <pt x="351" y="-321" on="0"/>
        <pt x="403" y="-328" on="0"/>
        <pt x="418" y="-328" on="1"/>
        <pt x="419" y="-328" on="1"/>
        <pt x="471" y="-328" on="0"/>
        <pt x="530" y="-309" on="0"/>
        <pt x="561" y="-248" on="0"/>
        <pt x="561" y="-187" on="1"/>
        <pt x="561" y="-146" on="0"/>
        <pt x="530" y="-53" on="0"/>
        <pt x="511" y="-18" on="1"/>
        <pt x="369" y="1" on="0"/>
        <pt x="174" y="158" on="0"/>
        <pt x="77" y="402" on="0"/>
        <pt x="77" y="554" on="1"/>
        <pt x="77" y="725" on="0"/>
        <pt x="209" y="1004" on="0"/>
        <pt x="469" y="1168" on="0"/>
        <pt x="653" y="1168" on="1"/>
        <pt x="797" y="1168" on="0"/>
        <pt x="961" y="1106" on="1"/>
        <pt x="951" y="798" on="1"/>
        <pt x="812" y="798" on="1"/>
        <pt x="766" y="985" on="1"/>
        <pt x="752" y="1018" on="0"/>
        <pt x="669" y="1050" on="0"/>
        <pt x="611" y="1050" on="1"/>
        <pt x="523" y="1050" on="0"/>
        <pt x="393" y="953" on="0"/>
        <pt x="321" y="760" on="0"/>
        <pt x="321" y="618" on="1"/>
        <pt x="321" y="453" on="0"/>
        <pt x="407" y="235" on="0"/>
        <pt x="555" y="131" on="0"/>
        <pt x="648" y="131" on="1"/>
        <pt x="735" y="131" on="0"/>
        <pt x="882" y="182" on="0"/>
        <pt x="934" y="219" on="1"/>
        <pt x="977" y="127" on="1"/>
      </contour>
    </TTGlyph>
    <TTGlyph name="ccircumflex" xMin="77" yMin="-23" xMax="977" yMax="1781">
      <component glyphName="circumflex" x="69" y="0" flags="0x0"/>
      <component glyphName="c" x="0" y="0" flags="0x0"/>
    </TTGlyph>
    <TTGlyph name="cdotaccent" xMin="77" yMin="-23" xMax="977" yMax="1651">
      <component glyphName="c" x="0" y="0" flags="0x0"/>
      <component glyphName="dotaccent" x="298" y="0" flags="0x0"/>
    </TTGlyph>
    <TTGlyph name="cedilla" xMin="13" yMin="-494" xMax="425" yMax="13">
      <contour>
        <pt x="291" y="3" on="1"/>
        <pt x="317" y="-21" on="0"/>
        <pt x="381" y="-114" on="0"/>
        <pt x="425" y="-234" on="0"/>
        <pt x="422" y="-294" on="1"/>
        <pt x="417" y="-402" on="0"/>
        <pt x="286" y="-494" on="0"/>
        <pt x="158" y="-494" on="1"/>
        <pt x="157" y="-494" on="1"/>
        <pt x="122" y="-494" on="0"/>
        <pt x="39" y="-479" on="0"/>
        <pt x="13" y="-467" on="1"/>
        <pt x="14" y="-314" on="1"/>
        <pt x="33" y="-321" on="0"/>
        <pt x="85" y="-328" on="0"/>
        <pt x="100" y="-328" on="1"/>
        <pt x="101" y="-328" on="1"/>
        <pt x="153" y="-328" on="0"/>
        <pt x="212" y="-309" on="0"/>
        <pt x="243" y="-248" on="0"/>
        <pt x="243" y="-187" on="1"/>
        <pt x="243" y="-138" on="0"/>
        <pt x="201" y="-28" on="0"/>
        <pt x="181" y="3" on="1"/>
        <pt x="249" y="13" on="1"/>
      </contour>
    </TTGlyph>
    <TTGlyph name="cent" xMin="121" yMin="-243" xMax="1021" yMax="1375">
      <contour>
        <pt x="620" y="1375" on="1"/>
        <pt x="763" y="1375" on="1"/>
        <pt x="752" y="1166" on="1"/>
        <pt x="868" y="1157" on="0"/>
        <pt x="1005" y="1106" on="1"/>
        <pt x="995" y="798" on="1"/>
        <pt x="856" y="798" on="1"/>
        <pt x="810" y="985" on="1"/>
        <pt x="796" y="1018" on="0"/>
        <pt x="713" y="1050" on="0"/>
        <pt x="655" y="1050" on="1"/>
        <pt x="567" y="1050" on="0"/>
        <pt x="437" y="953" on="0"/>
        <pt x="365" y="760" on="0"/>
        <pt x="365" y="618" on="1"/>
        <pt x="365" y="453" on="0"/>
        <pt x="451" y="235" on="0"/>
        <pt x="599" y="131" on="0"/>
        <pt x="692" y="131" on="1"/>
        <pt x="779" y="131" on="0"/>
        <pt x="926" y="182" on="0"/>
        <pt x="978" y="219" on="1"/>
        <pt x="1021" y="127" on="1"/>
        <pt x="969" y="73" on="0"/>
        <pt x="773" y="-16" on="0"/>
        <pt x="669" y="-22" on="1"/>
        <pt x="658" y="-243" on="1"/>
        <pt x="515" y="-243" on="1"/>
        <pt x="527" y="-13" on="1"/>
        <pt x="394" y="11" on="0"/>
        <pt x="212" y="169" on="0"/>
        <pt x="121" y="408" on="0"/>
        <pt x="121" y="554" on="1"/>
        <pt x="121" y="711" on="0"/>
        <pt x="233" y="973" on="0"/>
        <pt x="452" y="1143" on="0"/>
        <pt x="608" y="1162" on="1"/>
      </contour>
    </TTGlyph>
    <TTGlyph name="circumflex" xMin="148" yMin="1324" xMax="897" yMax="1781">
      <contour>
        <pt x="436" y="1781" on="1"/>
        <pt x="616" y="1781" on="1"/>
        <pt x="897" y="1383" on="1"/>
        <pt x="807" y="1325" on="1"/>
        <pt x="526" y="1606" on="1"/>
        <pt x="230" y="1324" on="1"/>
        <pt x="148" y="1382" on="1"/>
      </contour>
    </TTGlyph>
    <TTGlyph name="circumflex.cap" xMin="167" yMin="1654" xMax="895" yMax="2013">
      <contour>
        <pt x="438" y="2013" on="1"/>
        <pt x="621" y="2013" on="1"/>
        <pt x="895" y="1715" on="1"/>
        <pt x="803" y="1654" on="1"/>
        <pt x="530" y="1856" on="1"/>
        <pt x="252" y="1654" on="1"/>
        <pt x="167" y="1713" on="1"/>
      </contour>
    </TTGlyph>
    <TTGlyph name="colon" xMin="199" yMin="-20" xMax="506" yMax="1120">
      <component glyphName="period" x="54" y="845" flags="0x4"/>
      <component glyphName="period" x="54" y="0" flags="0x0"/>
    </TTGlyph>
    <TTGlyph name="colonmonetary" xMin="165" yMin="-330" xMax="1332" yMax="1821">
      <contour>
        <pt x="374" y="88" on="0"/>
        <pt x="165" y="461" on="0"/>
        <pt x="165" y="727" on="1"/>
        <pt x="165" y="932" on="0"/>
        <pt x="291" y="1252" on="0"/>
        <pt x="522" y="1462" on="0"/>
        <pt x="678" y="1507" on="1"/>
        <pt x="697" y="1821" on="1"/>
        <pt x="822" y="1821" on="1"/>
        <pt x="804" y="1532" on="1"/>
        <pt x="854" y="1539" on="0"/>
        <pt x="915" y="1539" on="1"/>
        <pt x="959" y="1538" on="1"/>
        <pt x="976" y="1821" on="1"/>
        <pt x="1101" y="1821" on="1"/>
        <pt x="1081" y="1524" on="1"/>
        <pt x="1133" y="1515" on="0"/>
        <pt x="1228" y="1491" on="0"/>
        <pt x="1237" y="1489" on="1"/>
        <pt x="1245" y="1487" on="0"/>
        <pt x="1311" y="1470" on="0"/>
        <pt x="1332" y="1468" on="1"/>
        <pt x="1312" y="1154" on="1"/>
        <pt x="1186" y="1154" on="1"/>
        <pt x="1146" y="1355" on="1"/>
        <pt x="1125" y="1376" on="0"/>
        <pt x="1072" y="1392" on="1"/>
        <pt x="984" y="100" on="1"/>
        <pt x="1075" y="121" on="0"/>
        <pt x="1135" y="174" on="1"/>
        <pt x="1208" y="332" on="1"/>
        <pt x="1330" y="310" on="1"/>
        <pt x="1302" y="66" on="1"/>
        <pt x="1277" y="65" on="0"/>
        <pt x="1225" y="50" on="0"/>
        <pt x="1185" y="36" on="1"/>
        <pt x="1128" y="17" on="0"/>
        <pt x="1035" y="-8" on="0"/>
        <pt x="975" y="-17" on="1"/>
        <pt x="953" y="-330" on="1"/>
        <pt x="829" y="-330" on="1"/>
        <pt x="850" y="-27" on="1"/>
        <pt x="827" y="-27" on="1"/>
        <pt x="761" y="-27" on="0"/>
        <pt x="695" y="-16" on="1"/>
        <pt x="673" y="-330" on="1"/>
        <pt x="548" y="-330" on="1"/>
        <pt x="572" y="15" on="1"/>
      </contour>
      <contour>
        <pt x="950" y="1413" on="1"/>
        <pt x="898" y="1417" on="0"/>
        <pt x="869" y="1417" on="1"/>
        <pt x="830" y="1417" on="0"/>
        <pt x="792" y="1411" on="1"/>
        <pt x="704" y="115" on="1"/>
        <pt x="776" y="87" on="0"/>
        <pt x="861" y="87" on="1"/>
      </contour>
      <contour>
        <pt x="666" y="1368" on="1"/>
        <pt x="544" y="1301" on="0"/>
        <pt x="410" y="995" on="0"/>
        <pt x="410" y="764" on="1"/>
        <pt x="410" y="570" on="0"/>
        <pt x="495" y="274" on="0"/>
        <pt x="586" y="189" on="1"/>
      </contour>
    </TTGlyph>
    <TTGlyph name="comma" xMin="203" yMin="-451" xMax="521" yMax="304">
      <contour>
        <pt x="431" y="304" on="0"/>
        <pt x="521" y="168" on="0"/>
        <pt x="521" y="50" on="1"/>
        <pt x="521" y="-63" on="0"/>
        <pt x="445" y="-271" on="0"/>
        <pt x="329" y="-421" on="0"/>
        <pt x="272" y="-451" on="1"/>
        <pt x="270" y="-451" on="1"/>
        <pt x="203" y="-396" on="1"/>
        <pt x="203" y="-372" on="1"/>
        <pt x="254" y="-331" on="0"/>
        <pt x="330" y="-197" on="0"/>
        <pt x="330" y="-98" on="1"/>
        <pt x="330" y="-49" on="0"/>
        <pt x="300" y="7" on="0"/>
        <pt x="269" y="40" on="1"/>
        <pt x="241" y="70" on="0"/>
        <pt x="212" y="124" on="0"/>
        <pt x="212" y="168" on="1"/>
        <pt x="212" y="208" on="0"/>
        <pt x="248" y="270" on="0"/>
        <pt x="309" y="304" on="0"/>
        <pt x="344" y="304" on="1"/>
        <pt x="356" y="304" on="1"/>
      </contour>
    </TTGlyph>
    <TTGlyph name="copyright" xMin="195" yMin="124" xMax="1934" yMax="1878">
      <contour>
        <pt x="1303" y="1878" on="0"/>
        <pt x="1702" y="1643" on="0"/>
        <pt x="1934" y="1242" on="0"/>
        <pt x="1934" y="1003" on="1"/>
        <pt x="1934" y="763" on="0"/>
        <pt x="1702" y="360" on="0"/>
        <pt x="1303" y="124" on="0"/>
        <pt x="1065" y="124" on="1"/>
        <pt x="826" y="124" on="0"/>
        <pt x="427" y="360" on="0"/>
        <pt x="195" y="763" on="0"/>
        <pt x="195" y="1003" on="1"/>
        <pt x="195" y="1242" on="0"/>
        <pt x="427" y="1643" on="0"/>
        <pt x="826" y="1878" on="0"/>
        <pt x="1065" y="1878" on="1"/>
      </contour>
      <contour>
        <pt x="1269" y="243" on="0"/>
        <pt x="1604" y="449" on="0"/>
        <pt x="1797" y="798" on="0"/>
        <pt x="1797" y="1003" on="1"/>
        <pt x="1797" y="1207" on="0"/>
        <pt x="1604" y="1556" on="0"/>
        <pt x="1269" y="1761" on="0"/>
        <pt x="1065" y="1761" on="1"/>
        <pt x="861" y="1761" on="0"/>
        <pt x="524" y="1555" on="0"/>
        <pt x="331" y="1207" on="0"/>
        <pt x="331" y="1003" on="1"/>
        <pt x="331" y="798" on="0"/>
        <pt x="524" y="449" on="0"/>
        <pt x="861" y="243" on="0"/>
        <pt x="1065" y="243" on="1"/>
      </contour>
      <contour>
        <pt x="618" y="1134" on="0"/>
        <pt x="751" y="1365" on="0"/>
        <pt x="984" y="1499" on="0"/>
        <pt x="1128" y="1499" on="1"/>
        <pt x="1201" y="1499" on="0"/>
        <pt x="1356" y="1465" on="0"/>
        <pt x="1384" y="1438" on="1"/>
        <pt x="1382" y="1209" on="1"/>
        <pt x="1266" y="1209" on="1"/>
        <pt x="1220" y="1341" on="1"/>
        <pt x="1196" y="1359" on="0"/>
        <pt x="1129" y="1376" on="0"/>
        <pt x="1058" y="1376" on="1"/>
        <pt x="980" y="1376" on="0"/>
        <pt x="868" y="1291" on="0"/>
        <pt x="809" y="1136" on="0"/>
        <pt x="809" y="1032" on="1"/>
        <pt x="809" y="924" on="0"/>
        <pt x="892" y="757" on="0"/>
        <pt x="1041" y="664" on="0"/>
        <pt x="1135" y="664" on="1"/>
        <pt x="1196" y="664" on="0"/>
        <pt x="1303" y="708" on="0"/>
        <pt x="1345" y="747" on="1"/>
        <pt x="1394" y="667" on="1"/>
        <pt x="1364" y="629" on="0"/>
        <pt x="1264" y="559" on="0"/>
        <pt x="1136" y="514" on="0"/>
        <pt x="1068" y="514" on="1"/>
        <pt x="923" y="514" on="0"/>
        <pt x="721" y="636" on="0"/>
        <pt x="618" y="853" on="0"/>
        <pt x="618" y="995" on="1"/>
      </contour>
    </TTGlyph>
    <TTGlyph name="currency" xMin="197" yMin="174" xMax="1349" yMax="1372">
      <contour>
        <pt x="376" y="563" on="0"/>
        <pt x="337" y="692" on="0"/>
        <pt x="337" y="763" on="1"/>
        <pt x="337" y="836" on="0"/>
        <pt x="378" y="972" on="0"/>
        <pt x="416" y="1029" on="1"/>
        <pt x="197" y="1247" on="1"/>
        <pt x="318" y="1370" on="1"/>
        <pt x="537" y="1150" on="1"/>
        <pt x="642" y="1220" on="0"/>
        <pt x="770" y="1220" on="1"/>
        <pt x="901" y="1220" on="0"/>
        <pt x="1008" y="1154" on="1"/>
        <pt x="1227" y="1372" on="1"/>
        <pt x="1349" y="1250" on="1"/>
        <pt x="1133" y="1036" on="1"/>
        <pt x="1171" y="983" on="0"/>
        <pt x="1212" y="854" on="0"/>
        <pt x="1212" y="783" on="1"/>
        <pt x="1212" y="710" on="0"/>
        <pt x="1169" y="573" on="0"/>
        <pt x="1129" y="516" on="1"/>
        <pt x="1345" y="300" on="1"/>
        <pt x="1223" y="178" on="1"/>
        <pt x="1005" y="395" on="1"/>
        <pt x="900" y="326" on="0"/>
        <pt x="770" y="326" on="1"/>
        <pt x="641" y="326" on="0"/>
        <pt x="536" y="390" on="1"/>
        <pt x="319" y="174" on="1"/>
        <pt x="197" y="296" on="1"/>
        <pt x="412" y="510" on="1"/>
      </contour>
      <contour>
        <pt x="1027" y="844" on="0"/>
        <pt x="956" y="975" on="0"/>
        <pt x="836" y="1053" on="0"/>
        <pt x="765" y="1053" on="1"/>
        <pt x="683" y="1053" on="0"/>
        <pt x="570" y="974" on="0"/>
        <pt x="515" y="844" on="0"/>
        <pt x="515" y="767" on="1"/>
        <pt x="515" y="692" on="0"/>
        <pt x="583" y="567" on="0"/>
        <pt x="701" y="493" on="0"/>
        <pt x="772" y="493" on="1"/>
        <pt x="900" y="493" on="0"/>
        <pt x="1027" y="646" on="0"/>
        <pt x="1027" y="768" on="1"/>
      </contour>
    </TTGlyph>
    <TTGlyph name="d" xMin="85" yMin="-23" xMax="1201" yMax="1679">
      <contour>
        <pt x="85" y="717" on="0"/>
        <pt x="227" y="1002" on="0"/>
        <pt x="495" y="1168" on="0"/>
        <pt x="675" y="1168" on="1"/>
        <pt x="763" y="1168" on="0"/>
        <pt x="856" y="1149" on="1"/>
        <pt x="856" y="1522" on="1"/>
        <pt x="655" y="1542" on="1"/>
        <pt x="655" y="1639" on="1"/>
        <pt x="1028" y="1679" on="1"/>
        <pt x="1034" y="1679" on="1"/>
        <pt x="1083" y="1643" on="1"/>
        <pt x="1083" y="116" on="1"/>
        <pt x="1201" y="116" on="1"/>
        <pt x="1201" y="12" on="1"/>
        <pt x="1136" y="-4" on="0"/>
        <pt x="1035" y="-23" on="0"/>
        <pt x="981" y="-23" on="1"/>
        <pt x="942" y="-23" on="0"/>
        <pt x="897" y="-8" on="0"/>
        <pt x="874" y="37" on="0"/>
        <pt x="874" y="80" on="1"/>
        <pt x="874" y="133" on="1"/>
        <pt x="813" y="66" on="0"/>
        <pt x="638" y="-23" on="0"/>
        <pt x="531" y="-23" on="1"/>
        <pt x="408" y="-23" on="0"/>
        <pt x="206" y="102" on="0"/>
        <pt x="85" y="357" on="0"/>
        <pt x="85" y="542" on="1"/>
      </contour>
      <contour>
        <pt x="856" y="989" on="1"/>
        <pt x="841" y="1014" on="0"/>
        <pt x="727" y="1050" on="0"/>
        <pt x="661" y="1050" on="1"/>
        <pt x="511" y="1050" on="0"/>
        <pt x="331" y="812" on="0"/>
        <pt x="331" y="558" on="1"/>
        <pt x="331" y="413" on="0"/>
        <pt x="408" y="222" on="0"/>
        <pt x="539" y="131" on="0"/>
        <pt x="623" y="131" on="1"/>
        <pt x="696" y="131" on="0"/>
        <pt x="818" y="195" on="0"/>
        <pt x="856" y="237" on="1"/>
      </contour>
    </TTGlyph>
    <TTGlyph name="dagger" xMin="162" yMin="109" xMax="913" yMax="1652">
      <contour>
        <pt x="462" y="1126" on="1"/>
        <pt x="162" y="1117" on="1"/>
        <pt x="163" y="1285" on="1"/>
        <pt x="462" y="1276" on="1"/>
        <pt x="439" y="1487" on="1"/>
        <pt x="439" y="1652" on="1"/>
        <pt x="636" y="1652" on="1"/>
        <pt x="636" y="1487" on="1"/>
        <pt x="614" y="1276" on="1"/>
        <pt x="913" y="1285" on="1"/>
        <pt x="913" y="1117" on="1"/>
        <pt x="614" y="1126" on="1"/>
        <pt x="637" y="897" on="1"/>
        <pt x="599" y="109" on="1"/>
        <pt x="478" y="109" on="1"/>
        <pt x="439" y="897" on="1"/>
      </contour>
    </TTGlyph>
    <TTGlyph name="daggerdbl" xMin="161" yMin="-442" xMax="914" yMax="1652">
      <contour>
        <pt x="466" y="637" on="1"/>
        <pt x="440" y="920" on="1"/>
        <pt x="464" y="1126" on="1"/>
        <pt x="161" y="1117" on="1"/>
        <pt x="161" y="1285" on="1"/>
        <pt x="464" y="1276" on="1"/>
        <pt x="440" y="1485" on="1"/>
        <pt x="440" y="1652" on="1"/>
        <pt x="637" y="1652" on="1"/>
        <pt x="637" y="1485" on="1"/>
        <pt x="614" y="1276" on="1"/>
        <pt x="914" y="1285" on="1"/>
        <pt x="914" y="1117" on="1"/>
        <pt x="614" y="1126" on="1"/>
        <pt x="637" y="920" on="1"/>
        <pt x="613" y="637" on="1"/>
        <pt x="914" y="645" on="1"/>
        <pt x="914" y="479" on="1"/>
        <pt x="613" y="486" on="1"/>
        <pt x="637" y="270" on="1"/>
        <pt x="600" y="-442" on="1"/>
        <pt x="478" y="-442" on="1"/>
        <pt x="440" y="270" on="1"/>
        <pt x="466" y="486" on="1"/>
        <pt x="161" y="479" on="1"/>
        <pt x="161" y="645" on="1"/>
      </contour>
    </TTGlyph>
    <TTGlyph name="dcaron" xMin="85" yMin="-23" xMax="1512" yMax="1685">
      <component glyphName="d" x="0" y="0" flags="0x0"/>
      <component glyphName="caronvertical" x="1202" y="0" flags="0x0"/>
    </TTGlyph>
    <TTGlyph name="dcroat" xMin="83" yMin="-23" xMax="1225" yMax="1679">
      <contour>
        <pt x="854" y="1407" on="1"/>
        <pt x="854" y="1522" on="1"/>
        <pt x="653" y="1542" on="1"/>
        <pt x="653" y="1639" on="1"/>
        <pt x="1026" y="1679" on="1"/>
        <pt x="1032" y="1679" on="1"/>
        <pt x="1081" y="1643" on="1"/>
        <pt x="1081" y="1407" on="1"/>
        <pt x="1225" y="1407" on="1"/>
        <pt x="1225" y="1290" on="1"/>
        <pt x="1081" y="1290" on="1"/>
        <pt x="1081" y="116" on="1"/>
        <pt x="1199" y="116" on="1"/>
        <pt x="1199" y="12" on="1"/>
        <pt x="1134" y="-4" on="0"/>
        <pt x="1033" y="-23" on="0"/>
        <pt x="979" y="-23" on="1"/>
        <pt x="940" y="-23" on="0"/>
        <pt x="895" y="-8" on="0"/>
        <pt x="872" y="37" on="0"/>
        <pt x="872" y="80" on="1"/>
        <pt x="872" y="133" on="1"/>
        <pt x="811" y="66" on="0"/>
        <pt x="636" y="-23" on="0"/>
        <pt x="529" y="-23" on="1"/>
        <pt x="406" y="-23" on="0"/>
        <pt x="204" y="102" on="0"/>
        <pt x="83" y="357" on="0"/>
        <pt x="83" y="542" on="1"/>
        <pt x="83" y="717" on="0"/>
        <pt x="225" y="1002" on="0"/>
        <pt x="493" y="1168" on="0"/>
        <pt x="673" y="1168" on="1"/>
        <pt x="761" y="1168" on="0"/>
        <pt x="854" y="1149" on="1"/>
        <pt x="854" y="1290" on="1"/>
        <pt x="602" y="1290" on="1"/>
        <pt x="602" y="1407" on="1"/>
      </contour>
      <contour>
        <pt x="854" y="989" on="1"/>
        <pt x="839" y="1014" on="0"/>
        <pt x="725" y="1050" on="0"/>
        <pt x="659" y="1050" on="1"/>
        <pt x="509" y="1050" on="0"/>
        <pt x="329" y="812" on="0"/>
        <pt x="329" y="558" on="1"/>
        <pt x="329" y="413" on="0"/>
        <pt x="406" y="222" on="0"/>
        <pt x="537" y="131" on="0"/>
        <pt x="621" y="131" on="1"/>
        <pt x="694" y="131" on="0"/>
        <pt x="816" y="195" on="0"/>
        <pt x="854" y="237" on="1"/>
      </contour>
    </TTGlyph>
    <TTGlyph name="degree" xMin="120" yMin="944" xMax="822" yMax="1641">
      <contour>
        <pt x="120" y="1391" on="0"/>
        <pt x="215" y="1550" on="0"/>
        <pt x="375" y="1641" on="0"/>
        <pt x="470" y="1641" on="1"/>
        <pt x="571" y="1641" on="0"/>
        <pt x="731" y="1547" on="0"/>
        <pt x="822" y="1388" on="0"/>
        <pt x="822" y="1293" on="1"/>
        <pt x="822" y="1194" on="0"/>
        <pt x="728" y="1035" on="0"/>
        <pt x="567" y="944" on="0"/>
        <pt x="470" y="944" on="1"/>
        <pt x="376" y="944" on="0"/>
        <pt x="215" y="1039" on="0"/>
        <pt x="120" y="1199" on="0"/>
        <pt x="120" y="1293" on="1"/>
      </contour>
      <contour>
        <pt x="668" y="1348" on="0"/>
        <pt x="615" y="1442" on="0"/>
        <pt x="524" y="1497" on="0"/>
        <pt x="469" y="1497" on="1"/>
        <pt x="412" y="1497" on="0"/>
        <pt x="323" y="1444" on="0"/>
        <pt x="272" y="1351" on="0"/>
        <pt x="272" y="1293" on="1"/>
        <pt x="272" y="1238" on="0"/>
        <pt x="326" y="1145" on="0"/>
        <pt x="418" y="1089" on="0"/>
        <pt x="472" y="1089" on="1"/>
        <pt x="530" y="1089" on="0"/>
        <pt x="619" y="1141" on="0"/>
        <pt x="668" y="1234" on="0"/>
        <pt x="668" y="1293" on="1"/>
      </contour>
    </TTGlyph>
    <TTGlyph name="dieresis" xMin="139" yMin="1355" xMax="888" yMax="1652">
      <contour>
        <pt x="139" y="1559" on="0"/>
        <pt x="215" y="1652" on="0"/>
        <pt x="286" y="1652" on="1"/>
        <pt x="287" y="1652" on="1"/>
        <pt x="348" y="1652" on="0"/>
        <pt x="419" y="1570" on="0"/>
        <pt x="419" y="1514" on="1"/>
        <pt x="419" y="1444" on="0"/>
        <pt x="340" y="1355" on="0"/>
        <pt x="266" y="1355" on="1"/>
        <pt x="265" y="1355" on="1"/>
        <pt x="208" y="1355" on="0"/>
        <pt x="139" y="1433" on="0"/>
        <pt x="139" y="1492" on="1"/>
      </contour>
      <contour>
        <pt x="607" y="1559" on="0"/>
        <pt x="684" y="1652" on="0"/>
        <pt x="754" y="1652" on="1"/>
        <pt x="755" y="1652" on="1"/>
        <pt x="817" y="1652" on="0"/>
        <pt x="888" y="1570" on="0"/>
        <pt x="888" y="1514" on="1"/>
        <pt x="888" y="1444" on="0"/>
        <pt x="809" y="1355" on="0"/>
        <pt x="733" y="1355" on="1"/>
        <pt x="732" y="1355" on="1"/>
        <pt x="677" y="1355" on="0"/>
        <pt x="607" y="1435" on="0"/>
        <pt x="607" y="1492" on="1"/>
      </contour>
    </TTGlyph>
    <TTGlyph name="dieresis.cap" xMin="120" yMin="1687" xMax="900" yMax="1983">
      <contour>
        <pt x="120" y="1891" on="0"/>
        <pt x="197" y="1983" on="0"/>
        <pt x="267" y="1983" on="1"/>
        <pt x="268" y="1983" on="1"/>
        <pt x="309" y="1983" on="0"/>
        <pt x="369" y="1944" on="0"/>
        <pt x="400" y="1881" on="0"/>
        <pt x="400" y="1846" on="1"/>
        <pt x="400" y="1776" on="0"/>
        <pt x="321" y="1687" on="0"/>
        <pt x="246" y="1687" on="1"/>
        <pt x="245" y="1687" on="1"/>
        <pt x="190" y="1687" on="0"/>
        <pt x="120" y="1766" on="0"/>
        <pt x="120" y="1823" on="1"/>
      </contour>
      <contour>
        <pt x="620" y="1891" on="0"/>
        <pt x="697" y="1983" on="0"/>
        <pt x="766" y="1983" on="1"/>
        <pt x="767" y="1983" on="1"/>
        <pt x="809" y="1983" on="0"/>
        <pt x="869" y="1944" on="0"/>
        <pt x="900" y="1881" on="0"/>
        <pt x="900" y="1846" on="1"/>
        <pt x="900" y="1776" on="0"/>
        <pt x="822" y="1687" on="0"/>
        <pt x="747" y="1687" on="1"/>
        <pt x="746" y="1687" on="1"/>
        <pt x="690" y="1687" on="0"/>
        <pt x="620" y="1766" on="0"/>
        <pt x="620" y="1823" on="1"/>
      </contour>
    </TTGlyph>
    <TTGlyph name="divide" xMin="215" yMin="61" xMax="1147" yMax="1171">
      <contour>
        <pt x="548" y="1059" on="0"/>
        <pt x="594" y="1130" on="0"/>
        <pt x="669" y="1171" on="0"/>
        <pt x="710" y="1171" on="1"/>
        <pt x="779" y="1171" on="0"/>
        <pt x="851" y="1095" on="0"/>
        <pt x="851" y="1037" on="1"/>
        <pt x="851" y="991" on="0"/>
        <pt x="806" y="922" on="0"/>
        <pt x="730" y="884" on="0"/>
        <pt x="686" y="884" on="1"/>
        <pt x="650" y="884" on="0"/>
        <pt x="587" y="917" on="0"/>
        <pt x="548" y="977" on="0"/>
        <pt x="548" y="1016" on="1"/>
      </contour>
      <contour>
        <pt x="1147" y="695" on="1"/>
        <pt x="1147" y="534" on="1"/>
        <pt x="215" y="534" on="1"/>
        <pt x="215" y="695" on="1"/>
      </contour>
      <contour>
        <pt x="762" y="350" on="0"/>
        <pt x="834" y="274" on="0"/>
        <pt x="834" y="216" on="1"/>
        <pt x="834" y="170" on="0"/>
        <pt x="789" y="100" on="0"/>
        <pt x="714" y="61" on="0"/>
        <pt x="669" y="61" on="1"/>
        <pt x="633" y="61" on="0"/>
        <pt x="570" y="94" on="0"/>
        <pt x="532" y="155" on="0"/>
        <pt x="532" y="195" on="1"/>
        <pt x="532" y="238" on="0"/>
        <pt x="578" y="309" on="0"/>
        <pt x="653" y="350" on="0"/>
        <pt x="694" y="350" on="1"/>
      </contour>
    </TTGlyph>
    <TTGlyph name="dollar" xMin="203" yMin="-258" xMax="1187" yMax="1762">
      <contour>
        <pt x="744" y="-258" on="1"/>
        <pt x="588" y="-258" on="1"/>
        <pt x="590" y="-20" on="1"/>
        <pt x="474" y="-11" on="0"/>
        <pt x="256" y="44" on="0"/>
        <pt x="203" y="68" on="1"/>
        <pt x="219" y="416" on="1"/>
        <pt x="356" y="416" on="1"/>
        <pt x="404" y="172" on="1"/>
        <pt x="490" y="93" on="0"/>
        <pt x="669" y="93" on="1"/>
        <pt x="811" y="93" on="0"/>
        <pt x="957" y="218" on="0"/>
        <pt x="957" y="341" on="1"/>
        <pt x="957" y="415" on="0"/>
        <pt x="862" y="533" on="0"/>
        <pt x="717" y="624" on="0"/>
        <pt x="586" y="693" on="1"/>
        <pt x="457" y="760" on="0"/>
        <pt x="300" y="883" on="0"/>
        <pt x="215" y="1047" on="0"/>
        <pt x="215" y="1162" on="1"/>
        <pt x="215" y="1260" on="0"/>
        <pt x="319" y="1417" on="0"/>
        <pt x="501" y="1518" on="0"/>
        <pt x="615" y="1534" on="1"/>
        <pt x="615" y="1762" on="1"/>
        <pt x="773" y="1762" on="1"/>
        <pt x="773" y="1538" on="1"/>
        <pt x="945" y="1527" on="0"/>
        <pt x="1099" y="1462" on="1"/>
        <pt x="1087" y="1135" on="1"/>
        <pt x="955" y="1135" on="1"/>
        <pt x="902" y="1368" on="1"/>
        <pt x="839" y="1426" on="0"/>
        <pt x="711" y="1426" on="1"/>
        <pt x="592" y="1426" on="0"/>
        <pt x="435" y="1318" on="0"/>
        <pt x="435" y="1210" on="1"/>
        <pt x="435" y="1137" on="0"/>
        <pt x="514" y="1026" on="0"/>
        <pt x="630" y="946" on="0"/>
        <pt x="729" y="891" on="1"/>
        <pt x="755" y="876" on="1"/>
        <pt x="921" y="781" on="0"/>
        <pt x="1086" y="664" on="0"/>
        <pt x="1187" y="505" on="0"/>
        <pt x="1187" y="392" on="1"/>
        <pt x="1187" y="281" on="0"/>
        <pt x="1086" y="104" on="0"/>
        <pt x="888" y="-6" on="0"/>
        <pt x="746" y="-19" on="1"/>
      </contour>
    </TTGlyph>
    <TTGlyph name="dong" xMin="175" yMin="0" xMax="1233" yMax="1687">
      <contour>
        <pt x="847" y="1413" on="1"/>
        <pt x="847" y="1533" on="1"/>
        <pt x="657" y="1547" on="1"/>
        <pt x="657" y="1647" on="1"/>
        <pt x="1014" y="1687" on="1"/>
        <pt x="1019" y="1687" on="1"/>
        <pt x="1061" y="1658" on="1"/>
        <pt x="1061" y="1413" on="1"/>
        <pt x="1233" y="1413" on="1"/>
        <pt x="1233" y="1298" on="1"/>
        <pt x="1061" y="1298" on="1"/>
        <pt x="1061" y="403" on="1"/>
        <pt x="1185" y="403" on="1"/>
        <pt x="1185" y="302" on="1"/>
        <pt x="1135" y="289" on="0"/>
        <pt x="1004" y="266" on="0"/>
        <pt x="952" y="266" on="1"/>
        <pt x="915" y="266" on="0"/>
        <pt x="874" y="279" on="0"/>
        <pt x="854" y="319" on="0"/>
        <pt x="854" y="359" on="1"/>
        <pt x="854" y="414" on="1"/>
        <pt x="795" y="353" on="0"/>
        <pt x="642" y="276" on="0"/>
        <pt x="539" y="276" on="1"/>
        <pt x="443" y="276" on="0"/>
        <pt x="276" y="372" on="0"/>
        <pt x="175" y="564" on="0"/>
        <pt x="175" y="700" on="1"/>
        <pt x="175" y="839" on="0"/>
        <pt x="289" y="1049" on="0"/>
        <pt x="505" y="1165" on="0"/>
        <pt x="653" y="1165" on="1"/>
        <pt x="742" y="1165" on="0"/>
        <pt x="847" y="1135" on="1"/>
        <pt x="847" y="1298" on="1"/>
        <pt x="552" y="1298" on="1"/>
        <pt x="552" y="1413" on="1"/>
      </contour>
      <contour>
        <pt x="847" y="997" on="1"/>
        <pt x="834" y="1021" on="0"/>
        <pt x="718" y="1057" on="0"/>
        <pt x="648" y="1057" on="1"/>
        <pt x="537" y="1057" on="0"/>
        <pt x="399" y="895" on="0"/>
        <pt x="399" y="713" on="1"/>
        <pt x="399" y="614" on="0"/>
        <pt x="458" y="479" on="0"/>
        <pt x="556" y="414" on="0"/>
        <pt x="614" y="414" on="1"/>
        <pt x="687" y="414" on="0"/>
        <pt x="808" y="483" on="0"/>
        <pt x="847" y="528" on="1"/>
      </contour>
      <contour>
        <pt x="1209" y="124" on="1"/>
        <pt x="1209" y="0" on="1"/>
        <pt x="194" y="0" on="1"/>
        <pt x="194" y="124" on="1"/>
      </contour>
    </TTGlyph>
    <TTGlyph name="dotaccent" xMin="146" yMin="1352" xMax="434" yMax="1651">
      <contour>
        <pt x="146" y="1557" on="0"/>
        <pt x="225" y="1651" on="0"/>
        <pt x="296" y="1651" on="1"/>
        <pt x="297" y="1651" on="1"/>
        <pt x="339" y="1651" on="0"/>
        <pt x="401" y="1612" on="0"/>
        <pt x="434" y="1548" on="0"/>
        <pt x="434" y="1512" on="1"/>
        <pt x="434" y="1442" on="0"/>
        <pt x="354" y="1352" on="0"/>
        <pt x="278" y="1352" on="1"/>
        <pt x="277" y="1352" on="1"/>
        <pt x="219" y="1352" on="0"/>
        <pt x="146" y="1430" on="0"/>
        <pt x="146" y="1489" on="1"/>
      </contour>
    </TTGlyph>
    <TTGlyph name="dotaccent.cap" xMin="148" yMin="1693" xMax="434" yMax="1986">
      <contour>
        <pt x="148" y="1895" on="0"/>
        <pt x="226" y="1986" on="0"/>
        <pt x="296" y="1986" on="1"/>
        <pt x="297" y="1986" on="1"/>
        <pt x="360" y="1986" on="0"/>
        <pt x="434" y="1905" on="0"/>
        <pt x="434" y="1849" on="1"/>
        <pt x="434" y="1780" on="0"/>
        <pt x="355" y="1693" on="0"/>
        <pt x="279" y="1693" on="1"/>
        <pt x="278" y="1693" on="1"/>
        <pt x="220" y="1693" on="0"/>
        <pt x="148" y="1770" on="0"/>
        <pt x="148" y="1828" on="1"/>
      </contour>
    </TTGlyph>
    <TTGlyph name="dotlessi" xMin="78" yMin="0" xMax="629" yMax="1164">
      <contour>
        <pt x="240" y="126" on="1"/>
        <pt x="240" y="964" on="1"/>
        <pt x="95" y="1005" on="1"/>
        <pt x="95" y="1123" on="1"/>
        <pt x="413" y="1164" on="1"/>
        <pt x="418" y="1164" on="1"/>
        <pt x="469" y="1125" on="1"/>
        <pt x="469" y="126" on="1"/>
        <pt x="629" y="109" on="1"/>
        <pt x="629" y="0" on="1"/>
        <pt x="78" y="0" on="1"/>
        <pt x="78" y="109" on="1"/>
      </contour>
    </TTGlyph>
    <TTGlyph name="e" xMin="85" yMin="-23" xMax="1031" yMax="1168">
      <contour>
        <pt x="85" y="747" on="0"/>
        <pt x="223" y="1019" on="0"/>
        <pt x="467" y="1168" on="0"/>
        <pt x="622" y="1168" on="1"/>
        <pt x="814" y="1168" on="0"/>
        <pt x="1024" y="958" on="0"/>
        <pt x="1031" y="760" on="1"/>
        <pt x="1031" y="724" on="1"/>
        <pt x="1031" y="619" on="0"/>
        <pt x="1019" y="564" on="1"/>
        <pt x="326" y="564" on="1"/>
        <pt x="330" y="417" on="0"/>
        <pt x="422" y="223" on="0"/>
        <pt x="572" y="131" on="0"/>
        <pt x="666" y="131" on="1"/>
        <pt x="748" y="131" on="0"/>
        <pt x="921" y="188" on="0"/>
        <pt x="970" y="225" on="1"/>
        <pt x="1012" y="129" on="1"/>
        <pt x="974" y="90" on="0"/>
        <pt x="841" y="20" on="0"/>
        <pt x="678" y="-23" on="0"/>
        <pt x="598" y="-23" on="1"/>
        <pt x="430" y="-23" on="0"/>
        <pt x="199" y="126" on="0"/>
        <pt x="85" y="393" on="0"/>
        <pt x="85" y="571" on="1"/>
      </contour>
      <contour>
        <pt x="791" y="680" on="1"/>
        <pt x="795" y="716" on="0"/>
        <pt x="795" y="766" on="1"/>
        <pt x="794" y="893" on="0"/>
        <pt x="690" y="1047" on="0"/>
        <pt x="578" y="1047" on="1"/>
        <pt x="466" y="1047" on="0"/>
        <pt x="335" y="880" on="0"/>
        <pt x="326" y="680" on="1"/>
      </contour>
    </TTGlyph>
    <TTGlyph name="eacute" xMin="85" yMin="-23" xMax="1031" yMax="1814">
      <component glyphName="acute" x="247" y="0" flags="0x0"/>
      <component glyphName="e" x="0" y="0" flags="0x0"/>
    </TTGlyph>
    <TTGlyph name="ebreve" xMin="85" yMin="-23" xMax="1031" yMax="1753">
      <component glyphName="e" x="0" y="0" flags="0x0"/>
      <component glyphName="breve" x="77" y="0" flags="0x0"/>
    </TTGlyph>
    <TTGlyph name="ecaron" xMin="86" yMin="-23" xMax="1032" yMax="1800">
      <component glyphName="caron" x="80" y="0" flags="0x0"/>
      <component glyphName="e" x="1" y="0" flags="0x0"/>
    </TTGlyph>
    <TTGlyph name="ecircumflex" xMin="85" yMin="-23" xMax="1031" yMax="1781">
      <component glyphName="circumflex" x="60" y="0" flags="0x0"/>
      <component glyphName="e" x="0" y="0" flags="0x0"/>
    </TTGlyph>
    <TTGlyph name="edieresis" xMin="85" yMin="-23" xMax="1031" yMax="1652">
      <component glyphName="dieresis" x="77" y="0" flags="0x0"/>
      <component glyphName="e" x="0" y="0" flags="0x0"/>
    </TTGlyph>
    <TTGlyph name="edotaccent" xMin="85" yMin="-23" xMax="1031" yMax="1651">
      <component glyphName="e" x="0" y="0" flags="0x0"/>
      <component glyphName="dotaccent" x="301" y="0" flags="0x0"/>
    </TTGlyph>
    <TTGlyph name="egrave" xMin="85" yMin="-23" xMax="1031" yMax="1814">
      <component glyphName="e" x="0" y="0" flags="0x0"/>
      <component glyphName="grave" x="247" y="0" flags="0x0"/>
    </TTGlyph>
    <TTGlyph name="eight" xMin="141" yMin="-22" xMax="1177" yMax="1549">
      <contour>
        <pt x="332" y="847" on="0"/>
        <pt x="196" y="1038" on="0"/>
        <pt x="196" y="1176" on="1"/>
        <pt x="196" y="1292" on="0"/>
        <pt x="325" y="1462" on="0"/>
        <pt x="536" y="1549" on="0"/>
        <pt x="656" y="1549" on="1"/>
        <pt x="787" y="1549" on="0"/>
        <pt x="987" y="1467" on="0"/>
        <pt x="1098" y="1315" on="0"/>
        <pt x="1098" y="1214" on="1"/>
        <pt x="1098" y="1105" on="0"/>
        <pt x="959" y="898" on="0"/>
        <pt x="835" y="823" on="1"/>
        <pt x="939" y="763" on="0"/>
        <pt x="1085" y="646" on="0"/>
        <pt x="1177" y="489" on="0"/>
        <pt x="1177" y="391" on="1"/>
        <pt x="1177" y="269" on="0"/>
        <pt x="1034" y="80" on="0"/>
        <pt x="795" y="-22" on="0"/>
        <pt x="656" y="-22" on="1"/>
        <pt x="526" y="-22" on="0"/>
        <pt x="291" y="60" on="0"/>
        <pt x="141" y="235" on="0"/>
        <pt x="141" y="366" on="1"/>
        <pt x="141" y="487" on="0"/>
        <pt x="297" y="698" on="0"/>
        <pt x="453" y="770" on="1"/>
      </contour>
      <contour>
        <pt x="819" y="926" on="0"/>
        <pt x="909" y="1079" on="0"/>
        <pt x="909" y="1159" on="1"/>
        <pt x="909" y="1298" on="0"/>
        <pt x="769" y="1447" on="0"/>
        <pt x="649" y="1447" on="1"/>
        <pt x="573" y="1447" on="0"/>
        <pt x="457" y="1394" on="0"/>
        <pt x="394" y="1295" on="0"/>
        <pt x="394" y="1228" on="1"/>
        <pt x="394" y="1153" on="0"/>
        <pt x="486" y="1033" on="0"/>
        <pt x="624" y="941" on="0"/>
        <pt x="742" y="876" on="1"/>
      </contour>
      <contour>
        <pt x="456" y="667" on="0"/>
        <pt x="351" y="507" on="0"/>
        <pt x="351" y="411" on="1"/>
        <pt x="351" y="315" on="0"/>
        <pt x="423" y="169" on="0"/>
        <pt x="565" y="88" on="0"/>
        <pt x="666" y="88" on="1"/>
        <pt x="742" y="88" on="0"/>
        <pt x="871" y="152" on="0"/>
        <pt x="947" y="268" on="0"/>
        <pt x="947" y="341" on="1"/>
        <pt x="947" y="416" on="0"/>
        <pt x="862" y="531" on="0"/>
        <pt x="735" y="614" on="0"/>
        <pt x="624" y="673" on="1"/>
        <pt x="541" y="718" on="1"/>
      </contour>
    </TTGlyph>
    <TTGlyph name="eight.dnom" xMin="106" yMin="-20" xMax="938" yMax="1028">
      <contour>
        <pt x="106" y="345" on="0"/>
        <pt x="207" y="469" on="0"/>
        <pt x="307" y="509" on="1"/>
        <pt x="235" y="553" on="0"/>
        <pt x="154" y="667" on="0"/>
        <pt x="154" y="748" on="1"/>
        <pt x="154" y="835" on="0"/>
        <pt x="254" y="962" on="0"/>
        <pt x="422" y="1028" on="0"/>
        <pt x="524" y="1028" on="1"/>
        <pt x="637" y="1028" on="0"/>
        <pt x="800" y="963" on="0"/>
        <pt x="884" y="850" on="0"/>
        <pt x="884" y="780" on="1"/>
        <pt x="884" y="713" on="0"/>
        <pt x="795" y="581" on="0"/>
        <pt x="713" y="534" on="1"/>
        <pt x="817" y="486" on="0"/>
        <pt x="935" y="369" on="0"/>
        <pt x="936" y="281" on="1"/>
        <pt x="938" y="192" on="0"/>
        <pt x="830" y="55" on="0"/>
        <pt x="644" y="-20" on="0"/>
        <pt x="532" y="-20" on="1"/>
        <pt x="425" y="-20" on="0"/>
        <pt x="230" y="42" on="0"/>
        <pt x="106" y="173" on="0"/>
        <pt x="106" y="271" on="1"/>
      </contour>
      <contour>
        <pt x="663" y="608" on="0"/>
        <pt x="719" y="708" on="0"/>
        <pt x="719" y="754" on="1"/>
        <pt x="719" y="836" on="0"/>
        <pt x="608" y="935" on="0"/>
        <pt x="520" y="935" on="1"/>
        <pt x="469" y="935" on="0"/>
        <pt x="383" y="897" on="0"/>
        <pt x="333" y="829" on="0"/>
        <pt x="333" y="786" on="1"/>
        <pt x="333" y="737" on="0"/>
        <pt x="408" y="665" on="0"/>
        <pt x="513" y="615" on="0"/>
        <pt x="613" y="576" on="1"/>
      </contour>
      <contour>
        <pt x="344" y="440" on="0"/>
        <pt x="290" y="352" on="0"/>
        <pt x="290" y="302" on="1"/>
        <pt x="290" y="235" on="0"/>
        <pt x="346" y="132" on="0"/>
        <pt x="453" y="74" on="0"/>
        <pt x="528" y="74" on="1"/>
        <pt x="578" y="74" on="0"/>
        <pt x="671" y="115" on="0"/>
        <pt x="729" y="187" on="0"/>
        <pt x="729" y="231" on="1"/>
        <pt x="729" y="276" on="0"/>
        <pt x="666" y="343" on="0"/>
        <pt x="571" y="391" on="0"/>
        <pt x="488" y="424" on="1"/>
        <pt x="417" y="453" on="0"/>
        <pt x="391" y="465" on="1"/>
      </contour>
    </TTGlyph>
    <TTGlyph name="ellipsis" xMin="145" yMin="-20" xMax="1646" yMax="275">
      <contour>
        <pt x="145" y="160" on="0"/>
        <pt x="192" y="233" on="0"/>
        <pt x="268" y="275" on="0"/>
        <pt x="310" y="275" on="1"/>
        <pt x="379" y="275" on="0"/>
        <pt x="452" y="197" on="0"/>
        <pt x="452" y="139" on="1"/>
        <pt x="452" y="92" on="0"/>
        <pt x="407" y="19" on="0"/>
        <pt x="330" y="-20" on="0"/>
        <pt x="285" y="-20" on="1"/>
        <pt x="248" y="-20" on="0"/>
        <pt x="184" y="14" on="0"/>
        <pt x="145" y="76" on="0"/>
        <pt x="145" y="116" on="1"/>
      </contour>
      <contour>
        <pt x="743" y="161" on="0"/>
        <pt x="790" y="233" on="0"/>
        <pt x="866" y="275" on="0"/>
        <pt x="908" y="275" on="1"/>
        <pt x="976" y="275" on="0"/>
        <pt x="1049" y="197" on="0"/>
        <pt x="1049" y="139" on="1"/>
        <pt x="1049" y="92" on="0"/>
        <pt x="1004" y="19" on="0"/>
        <pt x="927" y="-20" on="0"/>
        <pt x="882" y="-20" on="1"/>
        <pt x="845" y="-20" on="0"/>
        <pt x="781" y="14" on="0"/>
        <pt x="743" y="76" on="0"/>
        <pt x="743" y="116" on="1"/>
      </contour>
      <contour>
        <pt x="1340" y="161" on="0"/>
        <pt x="1387" y="233" on="0"/>
        <pt x="1463" y="275" on="0"/>
        <pt x="1505" y="275" on="1"/>
        <pt x="1574" y="275" on="0"/>
        <pt x="1646" y="197" on="0"/>
        <pt x="1646" y="139" on="1"/>
        <pt x="1646" y="92" on="0"/>
        <pt x="1601" y="19" on="0"/>
        <pt x="1524" y="-20" on="0"/>
        <pt x="1479" y="-20" on="1"/>
        <pt x="1443" y="-20" on="0"/>
        <pt x="1379" y="14" on="0"/>
        <pt x="1340" y="76" on="0"/>
        <pt x="1340" y="116" on="1"/>
      </contour>
    </TTGlyph>
    <TTGlyph name="emacron" xMin="85" yMin="-23" xMax="1031" yMax="1586">
      <component glyphName="e" x="0" y="0" flags="0x0"/>
      <component glyphName="macron" x="247" y="0" flags="0x0"/>
    </TTGlyph>
    <TTGlyph name="emdash" xMin="230" yMin="534" xMax="2237" yMax="697">
      <contour>
        <pt x="2237" y="697" on="1"/>
        <pt x="2237" y="534" on="1"/>
        <pt x="230" y="534" on="1"/>
        <pt x="230" y="697" on="1"/>
      </contour>
    </TTGlyph>
    <TTGlyph name="endash" xMin="230" yMin="533" xMax="1377" yMax="697">
      <contour>
        <pt x="1377" y="697" on="1"/>
        <pt x="1377" y="533" on="1"/>
        <pt x="230" y="533" on="1"/>
        <pt x="230" y="697" on="1"/>
      </contour>
    </TTGlyph>
    <TTGlyph name="eng" xMin="99" yMin="-511" xMax="1188" yMax="1168">
      <contour>
        <pt x="241" y="126" on="1"/>
        <pt x="241" y="968" on="1"/>
        <pt x="99" y="1009" on="1"/>
        <pt x="99" y="1129" on="1"/>
        <pt x="394" y="1168" on="1"/>
        <pt x="399" y="1168" on="1"/>
        <pt x="446" y="1129" on="1"/>
        <pt x="446" y="1060" on="1"/>
        <pt x="445" y="1002" on="1"/>
        <pt x="491" y="1044" on="0"/>
        <pt x="630" y="1119" on="0"/>
        <pt x="788" y="1166" on="0"/>
        <pt x="859" y="1166" on="1"/>
        <pt x="989" y="1166" on="0"/>
        <pt x="1131" y="1073" on="0"/>
        <pt x="1188" y="876" on="0"/>
        <pt x="1188" y="704" on="1"/>
        <pt x="1188" y="22" on="1"/>
        <pt x="1188" y="-231" on="0"/>
        <pt x="1002" y="-500" on="0"/>
        <pt x="826" y="-510" on="1"/>
        <pt x="807" y="-511" on="0"/>
        <pt x="724" y="-507" on="0"/>
        <pt x="717" y="-502" on="1"/>
        <pt x="707" y="-394" on="1"/>
        <pt x="722" y="-396" on="0"/>
        <pt x="792" y="-383" on="0"/>
        <pt x="816" y="-374" on="1"/>
        <pt x="898" y="-346" on="0"/>
        <pt x="957" y="-131" on="0"/>
        <pt x="957" y="46" on="1"/>
        <pt x="957" y="704" on="1"/>
        <pt x="957" y="819" on="0"/>
        <pt x="927" y="947" on="0"/>
        <pt x="841" y="1010" on="0"/>
        <pt x="756" y="1010" on="1"/>
        <pt x="685" y="1010" on="0"/>
        <pt x="530" y="950" on="0"/>
        <pt x="470" y="904" on="1"/>
        <pt x="470" y="126" on="1"/>
        <pt x="607" y="108" on="1"/>
        <pt x="607" y="0" on="1"/>
        <pt x="110" y="0" on="1"/>
        <pt x="110" y="109" on="1"/>
      </contour>
    </TTGlyph>
    <TTGlyph name="eogonek" xMin="86" yMin="-510" xMax="1032" yMax="1168">
      <contour>
        <pt x="86" y="747" on="0"/>
        <pt x="224" y="1019" on="0"/>
        <pt x="468" y="1168" on="0"/>
        <pt x="623" y="1168" on="1"/>
        <pt x="815" y="1168" on="0"/>
        <pt x="1025" y="958" on="0"/>
        <pt x="1032" y="760" on="1"/>
        <pt x="1032" y="724" on="1"/>
        <pt x="1032" y="619" on="0"/>
        <pt x="1020" y="564" on="1"/>
        <pt x="327" y="564" on="1"/>
        <pt x="331" y="417" on="0"/>
        <pt x="423" y="223" on="0"/>
        <pt x="573" y="131" on="0"/>
        <pt x="667" y="131" on="1"/>
        <pt x="749" y="131" on="0"/>
        <pt x="922" y="188" on="0"/>
        <pt x="971" y="225" on="1"/>
        <pt x="1013" y="129" on="1"/>
        <pt x="972" y="87" on="0"/>
        <pt x="903" y="52" on="1"/>
        <pt x="779" y="-47" on="0"/>
        <pt x="675" y="-172" on="0"/>
        <pt x="675" y="-232" on="1"/>
        <pt x="675" y="-298" on="0"/>
        <pt x="768" y="-365" on="0"/>
        <pt x="839" y="-365" on="1"/>
        <pt x="905" y="-365" on="0"/>
        <pt x="969" y="-337" on="1"/>
        <pt x="969" y="-446" on="1"/>
        <pt x="929" y="-476" on="0"/>
        <pt x="806" y="-510" on="0"/>
        <pt x="743" y="-510" on="1"/>
        <pt x="670" y="-510" on="0"/>
        <pt x="544" y="-468" on="0"/>
        <pt x="466" y="-376" on="0"/>
        <pt x="466" y="-304" on="1"/>
        <pt x="466" y="-233" on="0"/>
        <pt x="588" y="-72" on="0"/>
        <pt x="685" y="-16" on="1"/>
        <pt x="634" y="-23" on="0"/>
        <pt x="599" y="-23" on="1"/>
        <pt x="431" y="-23" on="0"/>
        <pt x="200" y="126" on="0"/>
        <pt x="86" y="393" on="0"/>
        <pt x="86" y="571" on="1"/>
      </contour>
      <contour>
        <pt x="792" y="680" on="1"/>
        <pt x="796" y="716" on="0"/>
        <pt x="796" y="766" on="1"/>
        <pt x="795" y="893" on="0"/>
        <pt x="691" y="1047" on="0"/>
        <pt x="579" y="1047" on="1"/>
        <pt x="467" y="1047" on="0"/>
        <pt x="336" y="880" on="0"/>
        <pt x="327" y="680" on="1"/>
      </contour>
    </TTGlyph>
    <TTGlyph name="equal" xMin="208" yMin="261" xMax="1130" yMax="970">
      <contour>
        <pt x="1130" y="970" on="1"/>
        <pt x="1130" y="811" on="1"/>
        <pt x="208" y="811" on="1"/>
        <pt x="208" y="970" on="1"/>
      </contour>
      <contour>
        <pt x="1130" y="420" on="1"/>
        <pt x="1130" y="261" on="1"/>
        <pt x="208" y="261" on="1"/>
        <pt x="208" y="420" on="1"/>
      </contour>
    </TTGlyph>
    <TTGlyph name="estimated" xMin="109" yMin="-21" xMax="1284" yMax="1361">
      <contour>
        <pt x="109" y="873" on="0"/>
        <pt x="257" y="1185" on="0"/>
        <pt x="551" y="1361" on="0"/>
        <pt x="762" y="1361" on="1"/>
        <pt x="908" y="1361" on="0"/>
        <pt x="1141" y="1233" on="0"/>
        <pt x="1278" y="994" on="0"/>
        <pt x="1284" y="833" on="1"/>
        <pt x="1284" y="751" on="0"/>
        <pt x="1280" y="660" on="0"/>
        <pt x="1272" y="626" on="1"/>
        <pt x="417" y="626" on="1"/>
        <pt x="417" y="262" on="1"/>
        <pt x="475" y="185" on="0"/>
        <pt x="645" y="107" on="0"/>
        <pt x="749" y="107" on="1"/>
        <pt x="861" y="107" on="0"/>
        <pt x="1075" y="160" on="0"/>
        <pt x="1129" y="196" on="1"/>
        <pt x="1182" y="91" on="1"/>
        <pt x="1118" y="45" on="0"/>
        <pt x="861" y="-21" on="0"/>
        <pt x="742" y="-21" on="1"/>
        <pt x="560" y="-21" on="0"/>
        <pt x="271" y="156" on="0"/>
        <pt x="109" y="472" on="0"/>
        <pt x="109" y="671" on="1"/>
      </contour>
      <contour>
        <pt x="417" y="752" on="1"/>
        <pt x="994" y="752" on="1"/>
        <pt x="994" y="1147" on="1"/>
        <pt x="910" y="1246" on="0"/>
        <pt x="742" y="1246" on="1"/>
        <pt x="628" y="1246" on="0"/>
        <pt x="469" y="1179" on="0"/>
        <pt x="417" y="1102" on="1"/>
      </contour>
    </TTGlyph>
    <TTGlyph name="eth" xMin="79" yMin="-23" xMax="1115" yMax="1859">
      <contour>
        <pt x="380" y="1592" on="1"/>
        <pt x="327" y="1627" on="0"/>
        <pt x="205" y="1686" on="0"/>
        <pt x="165" y="1697" on="1"/>
        <pt x="209" y="1806" on="1"/>
        <pt x="282" y="1786" on="0"/>
        <pt x="394" y="1738" on="0"/>
        <pt x="463" y="1700" on="1"/>
        <pt x="506" y="1754" on="0"/>
        <pt x="576" y="1844" on="0"/>
        <pt x="588" y="1859" on="1"/>
        <pt x="686" y="1778" on="1"/>
        <pt x="675" y="1765" on="0"/>
        <pt x="611" y="1685" on="0"/>
        <pt x="570" y="1637" on="1"/>
        <pt x="732" y="1527" on="0"/>
        <pt x="977" y="1233" on="0"/>
        <pt x="1115" y="871" on="0"/>
        <pt x="1115" y="666" on="1"/>
        <pt x="1115" y="490" on="0"/>
        <pt x="1010" y="177" on="0"/>
        <pt x="777" y="-23" on="0"/>
        <pt x="597" y="-23" on="1"/>
        <pt x="425" y="-23" on="0"/>
        <pt x="193" y="119" on="0"/>
        <pt x="79" y="370" on="0"/>
        <pt x="79" y="535" on="1"/>
        <pt x="79" y="738" on="0"/>
        <pt x="225" y="1024" on="0"/>
        <pt x="466" y="1168" on="0"/>
        <pt x="607" y="1168" on="1"/>
        <pt x="706" y="1168" on="0"/>
        <pt x="798" y="1131" on="1"/>
        <pt x="754" y="1242" on="0"/>
        <pt x="587" y="1449" on="0"/>
        <pt x="480" y="1521" on="1"/>
        <pt x="347" y="1357" on="1"/>
        <pt x="243" y="1431" on="1"/>
      </contour>
      <contour>
        <pt x="872" y="746" on="0"/>
        <pt x="847" y="911" on="0"/>
        <pt x="832" y="962" on="1"/>
        <pt x="806" y="998" on="0"/>
        <pt x="695" y="1055" on="0"/>
        <pt x="614" y="1055" on="1"/>
        <pt x="526" y="1055" on="0"/>
        <pt x="397" y="938" on="0"/>
        <pt x="329" y="713" on="0"/>
        <pt x="329" y="556" on="1"/>
        <pt x="329" y="431" on="0"/>
        <pt x="385" y="225" on="0"/>
        <pt x="508" y="99" on="0"/>
        <pt x="604" y="99" on="1"/>
        <pt x="741" y="99" on="0"/>
        <pt x="872" y="372" on="0"/>
        <pt x="872" y="644" on="1"/>
      </contour>
    </TTGlyph>
    <TTGlyph name="exclam" xMin="209" yMin="-20" xMax="517" yMax="1784">
      <contour>
        <pt x="483" y="1784" on="1"/>
        <pt x="423" y="509" on="1"/>
        <pt x="284" y="509" on="1"/>
        <pt x="220" y="1784" on="1"/>
      </contour>
      <contour>
        <pt x="445" y="274" on="0"/>
        <pt x="517" y="197" on="0"/>
        <pt x="517" y="138" on="1"/>
        <pt x="517" y="90" on="0"/>
        <pt x="472" y="19" on="0"/>
        <pt x="396" y="-20" on="0"/>
        <pt x="350" y="-20" on="1"/>
        <pt x="313" y="-20" on="0"/>
        <pt x="248" y="13" on="0"/>
        <pt x="209" y="75" on="0"/>
        <pt x="209" y="116" on="1"/>
        <pt x="209" y="160" on="0"/>
        <pt x="256" y="233" on="0"/>
        <pt x="333" y="274" on="0"/>
        <pt x="375" y="274" on="1"/>
      </contour>
    </TTGlyph>
    <TTGlyph name="exclamdbl" xMin="209" yMin="-20" xMax="1144" yMax="1784">
      <component glyphName="exclam" x="627" y="0" flags="0x0"/>
      <component glyphName="exclam" x="0" y="0" flags="0x0"/>
    </TTGlyph>
    <TTGlyph name="exclamdown" xMin="210" yMin="-368" xMax="518" yMax="1436">
      <contour>
        <pt x="282" y="1142" on="0"/>
        <pt x="210" y="1219" on="0"/>
        <pt x="210" y="1278" on="1"/>
        <pt x="210" y="1326" on="0"/>
        <pt x="255" y="1397" on="0"/>
        <pt x="331" y="1436" on="0"/>
        <pt x="377" y="1436" on="1"/>
        <pt x="414" y="1436" on="0"/>
        <pt x="479" y="1403" on="0"/>
        <pt x="518" y="1341" on="0"/>
        <pt x="518" y="1300" on="1"/>
        <pt x="518" y="1256" on="0"/>
        <pt x="471" y="1183" on="0"/>
        <pt x="394" y="1142" on="0"/>
        <pt x="352" y="1142" on="1"/>
      </contour>
      <contour>
        <pt x="244" y="-368" on="1"/>
        <pt x="304" y="907" on="1"/>
        <pt x="443" y="907" on="1"/>
        <pt x="507" y="-368" on="1"/>
      </contour>
    </TTGlyph>
    <TTGlyph name="f" xMin="67" yMin="0" xMax="855" yMax="1696">
      <contour>
        <pt x="258" y="127" on="1"/>
        <pt x="258" y="991" on="1"/>
        <pt x="67" y="991" on="1"/>
        <pt x="67" y="1090" on="1"/>
        <pt x="258" y="1135" on="1"/>
        <pt x="258" y="1230" on="1"/>
        <pt x="258" y="1357" on="0"/>
        <pt x="396" y="1571" on="0"/>
        <pt x="617" y="1696" on="0"/>
        <pt x="735" y="1696" on="1"/>
        <pt x="779" y="1696" on="0"/>
        <pt x="830" y="1687" on="0"/>
        <pt x="855" y="1680" on="1"/>
        <pt x="855" y="1456" on="1"/>
        <pt x="834" y="1474" on="0"/>
        <pt x="726" y="1508" on="0"/>
        <pt x="661" y="1508" on="1"/>
        <pt x="594" y="1508" on="0"/>
        <pt x="519" y="1474" on="0"/>
        <pt x="486" y="1388" on="0"/>
        <pt x="486" y="1308" on="1"/>
        <pt x="487" y="1135" on="1"/>
        <pt x="762" y="1135" on="1"/>
        <pt x="762" y="991" on="1"/>
        <pt x="487" y="991" on="1"/>
        <pt x="487" y="126" on="1"/>
        <pt x="704" y="108" on="1"/>
        <pt x="704" y="0" on="1"/>
        <pt x="89" y="0" on="1"/>
        <pt x="89" y="108" on="1"/>
      </contour>
    </TTGlyph>
    <TTGlyph name="f_f" xMin="67" yMin="0" xMax="1683" yMax="1696">
      <component glyphName="f" x="0" y="0" flags="0x0"/>
      <component glyphName="f" x="828" y="0" flags="0x0"/>
    </TTGlyph>
    <TTGlyph name="f_f_i" xMin="67" yMin="0" xMax="2285" yMax="1696">
      <component glyphName="f" x="0" y="0" flags="0x0"/>
      <component glyphName="f" x="828" y="0" flags="0x0"/>
      <component glyphName="dotlessi" x="1656" y="0" flags="0x0"/>
      <component glyphName="dotaccent" x="1702" y="0" flags="0x0"/>
    </TTGlyph>
    <TTGlyph name="f_f_i_trk" xMin="67" yMin="0" xMax="2285" yMax="1696">
      <component glyphName="f" x="0" y="0" flags="0x0"/>
      <component glyphName="f" x="828" y="0" flags="0x0"/>
      <component glyphName="dotlessi" x="1656" y="0" flags="0x0"/>
      <component glyphName="dotaccent" x="1702" y="0" flags="0x0"/>
    </TTGlyph>
    <TTGlyph name="f_f_l" xMin="67" yMin="0" xMax="2289" yMax="1696">
      <component glyphName="f" x="0" y="0" flags="0x0"/>
      <component glyphName="f" x="828" y="0" flags="0x0"/>
      <component glyphName="l" x="1656" y="0" flags="0x0"/>
    </TTGlyph>
    <TTGlyph name="f_i_trk" xMin="67" yMin="0" xMax="1457" yMax="1696">
      <component glyphName="f" x="0" y="0" flags="0x0"/>
      <component glyphName="dotlessi" x="828" y="0" flags="0x0"/>
      <component glyphName="dotaccent" x="881" y="0" flags="0x0"/>
    </TTGlyph>
    <TTGlyph name="fi" xMin="67" yMin="0" xMax="1457" yMax="1696">
      <contour>
        <pt x="258" y="127" on="1"/>
        <pt x="258" y="991" on="1"/>
        <pt x="67" y="991" on="1"/>
        <pt x="67" y="1090" on="1"/>
        <pt x="258" y="1135" on="1"/>
        <pt x="258" y="1227" on="1"/>
        <pt x="258" y="1353" on="0"/>
        <pt x="384" y="1569" on="0"/>
        <pt x="586" y="1696" on="0"/>
        <pt x="694" y="1696" on="1"/>
        <pt x="732" y="1696" on="0"/>
        <pt x="797" y="1685" on="0"/>
        <pt x="814" y="1679" on="1"/>
        <pt x="814" y="1455" on="1"/>
        <pt x="797" y="1472" on="0"/>
        <pt x="686" y="1508" on="0"/>
        <pt x="633" y="1508" on="1"/>
        <pt x="556" y="1508" on="0"/>
        <pt x="486" y="1417" on="0"/>
        <pt x="486" y="1308" on="1"/>
        <pt x="487" y="1135" on="1"/>
        <pt x="762" y="1135" on="1"/>
        <pt x="762" y="991" on="1"/>
        <pt x="487" y="991" on="1"/>
        <pt x="487" y="126" on="1"/>
        <pt x="704" y="108" on="1"/>
        <pt x="704" y="0" on="1"/>
        <pt x="89" y="0" on="1"/>
        <pt x="89" y="108" on="1"/>
      </contour>
      <contour>
        <pt x="1020" y="1557" on="0"/>
        <pt x="1099" y="1651" on="0"/>
        <pt x="1170" y="1651" on="1"/>
        <pt x="1171" y="1651" on="1"/>
        <pt x="1213" y="1651" on="0"/>
        <pt x="1275" y="1612" on="0"/>
        <pt x="1308" y="1548" on="0"/>
        <pt x="1308" y="1512" on="1"/>
        <pt x="1308" y="1442" on="0"/>
        <pt x="1228" y="1352" on="0"/>
        <pt x="1152" y="1352" on="1"/>
        <pt x="1151" y="1352" on="1"/>
        <pt x="1093" y="1352" on="0"/>
        <pt x="1020" y="1430" on="0"/>
        <pt x="1020" y="1489" on="1"/>
      </contour>
      <contour>
        <pt x="1068" y="126" on="1"/>
        <pt x="1068" y="964" on="1"/>
        <pt x="923" y="1005" on="1"/>
        <pt x="923" y="1123" on="1"/>
        <pt x="1241" y="1164" on="1"/>
        <pt x="1246" y="1164" on="1"/>
        <pt x="1297" y="1125" on="1"/>
        <pt x="1297" y="126" on="1"/>
        <pt x="1457" y="109" on="1"/>
        <pt x="1457" y="0" on="1"/>
        <pt x="906" y="0" on="1"/>
        <pt x="906" y="109" on="1"/>
      </contour>
    </TTGlyph>
    <TTGlyph name="five" xMin="180" yMin="-332" xMax="1071" yMax="1310">
      <contour>
        <pt x="439" y="-216" on="0"/>
        <pt x="675" y="-100" on="0"/>
        <pt x="814" y="109" on="0"/>
        <pt x="814" y="242" on="1"/>
        <pt x="814" y="561" on="0"/>
        <pt x="510" y="561" on="1"/>
        <pt x="449" y="561" on="0"/>
        <pt x="300" y="522" on="0"/>
        <pt x="243" y="492" on="1"/>
        <pt x="185" y="535" on="1"/>
        <pt x="275" y="1271" on="1"/>
        <pt x="849" y="1271" on="1"/>
        <pt x="870" y="1310" on="1"/>
        <pt x="1007" y="1310" on="1"/>
        <pt x="968" y="1083" on="1"/>
        <pt x="435" y="1083" on="1"/>
        <pt x="355" y="627" on="1"/>
        <pt x="415" y="661" on="0"/>
        <pt x="579" y="705" on="0"/>
        <pt x="659" y="705" on="1"/>
        <pt x="856" y="705" on="0"/>
        <pt x="1071" y="491" on="0"/>
        <pt x="1071" y="275" on="1"/>
        <pt x="1071" y="116" on="0"/>
        <pt x="880" y="-164" on="0"/>
        <pt x="539" y="-332" on="0"/>
        <pt x="323" y="-332" on="1"/>
        <pt x="244" y="-332" on="0"/>
        <pt x="180" y="-317" on="1"/>
        <pt x="181" y="-210" on="1"/>
        <pt x="249" y="-216" on="0"/>
        <pt x="299" y="-216" on="1"/>
      </contour>
    </TTGlyph>
    <TTGlyph name="five.numr" xMin="163" yMin="529" xMax="882" yMax="1549">
      <contour>
        <pt x="237" y="632" on="0"/>
        <pt x="319" y="632" on="1"/>
        <pt x="420" y="632" on="0"/>
        <pt x="580" y="689" on="0"/>
        <pt x="671" y="796" on="0"/>
        <pt x="671" y="869" on="1"/>
        <pt x="671" y="959" on="0"/>
        <pt x="565" y="1054" on="0"/>
        <pt x="459" y="1054" on="1"/>
        <pt x="390" y="1054" on="0"/>
        <pt x="273" y="1023" on="0"/>
        <pt x="237" y="1007" on="1"/>
        <pt x="163" y="1060" on="1"/>
        <pt x="213" y="1549" on="1"/>
        <pt x="842" y="1549" on="1"/>
        <pt x="836" y="1406" on="1"/>
        <pt x="349" y="1406" on="1"/>
        <pt x="310" y="1124" on="1"/>
        <pt x="341" y="1139" on="0"/>
        <pt x="487" y="1173" on="0"/>
        <pt x="552" y="1173" on="1"/>
        <pt x="723" y="1173" on="0"/>
        <pt x="882" y="1024" on="0"/>
        <pt x="882" y="888" on="1"/>
        <pt x="882" y="787" on="0"/>
        <pt x="754" y="623" on="0"/>
        <pt x="518" y="529" on="0"/>
        <pt x="363" y="529" on="1"/>
        <pt x="244" y="529" on="0"/>
        <pt x="177" y="547" on="1"/>
        <pt x="196" y="642" on="1"/>
      </contour>
    </TTGlyph>
    <TTGlyph name="fiveeighths" xMin="163" yMin="-161" xMax="2311" yMax="1672">
      <contour>
        <pt x="1477" y="1672" on="1"/>
        <pt x="1629" y="1650" on="1"/>
        <pt x="888" y="-161" on="1"/>
        <pt x="734" y="-143" on="1"/>
      </contour>
      <contour>
        <pt x="237" y="632" on="0"/>
        <pt x="319" y="632" on="1"/>
        <pt x="420" y="632" on="0"/>
        <pt x="580" y="689" on="0"/>
        <pt x="671" y="796" on="0"/>
        <pt x="671" y="869" on="1"/>
        <pt x="671" y="959" on="0"/>
        <pt x="565" y="1054" on="0"/>
        <pt x="459" y="1054" on="1"/>
        <pt x="390" y="1054" on="0"/>
        <pt x="273" y="1023" on="0"/>
        <pt x="237" y="1007" on="1"/>
        <pt x="163" y="1060" on="1"/>
        <pt x="213" y="1549" on="1"/>
        <pt x="842" y="1549" on="1"/>
        <pt x="836" y="1406" on="1"/>
        <pt x="349" y="1406" on="1"/>
        <pt x="310" y="1124" on="1"/>
        <pt x="341" y="1139" on="0"/>
        <pt x="487" y="1173" on="0"/>
        <pt x="552" y="1173" on="1"/>
        <pt x="723" y="1173" on="0"/>
        <pt x="882" y="1024" on="0"/>
        <pt x="882" y="888" on="1"/>
        <pt x="882" y="787" on="0"/>
        <pt x="754" y="623" on="0"/>
        <pt x="518" y="529" on="0"/>
        <pt x="363" y="529" on="1"/>
        <pt x="244" y="529" on="0"/>
        <pt x="177" y="547" on="1"/>
        <pt x="196" y="642" on="1"/>
      </contour>
      <contour>
        <pt x="1479" y="345" on="0"/>
        <pt x="1580" y="469" on="0"/>
        <pt x="1680" y="509" on="1"/>
        <pt x="1608" y="553" on="0"/>
        <pt x="1527" y="667" on="0"/>
        <pt x="1527" y="748" on="1"/>
        <pt x="1527" y="835" on="0"/>
        <pt x="1627" y="962" on="0"/>
        <pt x="1795" y="1028" on="0"/>
        <pt x="1897" y="1028" on="1"/>
        <pt x="2010" y="1028" on="0"/>
        <pt x="2173" y="963" on="0"/>
        <pt x="2257" y="850" on="0"/>
        <pt x="2257" y="780" on="1"/>
        <pt x="2257" y="713" on="0"/>
        <pt x="2168" y="581" on="0"/>
        <pt x="2086" y="534" on="1"/>
        <pt x="2190" y="486" on="0"/>
        <pt x="2308" y="369" on="0"/>
        <pt x="2309" y="281" on="1"/>
        <pt x="2311" y="192" on="0"/>
        <pt x="2203" y="55" on="0"/>
        <pt x="2017" y="-20" on="0"/>
        <pt x="1905" y="-20" on="1"/>
        <pt x="1798" y="-20" on="0"/>
        <pt x="1603" y="42" on="0"/>
        <pt x="1479" y="173" on="0"/>
        <pt x="1479" y="271" on="1"/>
      </contour>
      <contour>
        <pt x="2036" y="608" on="0"/>
        <pt x="2092" y="708" on="0"/>
        <pt x="2092" y="754" on="1"/>
        <pt x="2092" y="836" on="0"/>
        <pt x="1981" y="935" on="0"/>
        <pt x="1893" y="935" on="1"/>
        <pt x="1842" y="935" on="0"/>
        <pt x="1756" y="897" on="0"/>
        <pt x="1706" y="829" on="0"/>
        <pt x="1706" y="786" on="1"/>
        <pt x="1706" y="737" on="0"/>
        <pt x="1781" y="665" on="0"/>
        <pt x="1886" y="615" on="0"/>
        <pt x="1986" y="576" on="1"/>
      </contour>
      <contour>
        <pt x="1717" y="440" on="0"/>
        <pt x="1663" y="352" on="0"/>
        <pt x="1663" y="302" on="1"/>
        <pt x="1663" y="235" on="0"/>
        <pt x="1719" y="132" on="0"/>
        <pt x="1826" y="74" on="0"/>
        <pt x="1901" y="74" on="1"/>
        <pt x="1951" y="74" on="0"/>
        <pt x="2044" y="115" on="0"/>
        <pt x="2102" y="187" on="0"/>
        <pt x="2102" y="231" on="1"/>
        <pt x="2102" y="276" on="0"/>
        <pt x="2039" y="343" on="0"/>
        <pt x="1944" y="391" on="0"/>
        <pt x="1861" y="424" on="1"/>
        <pt x="1790" y="453" on="0"/>
        <pt x="1764" y="465" on="1"/>
      </contour>
    </TTGlyph>
    <TTGlyph name="fl" xMin="67" yMin="0" xMax="1459" yMax="1696">
      <contour>
        <pt x="258" y="127" on="1"/>
        <pt x="258" y="991" on="1"/>
        <pt x="67" y="991" on="1"/>
        <pt x="67" y="1090" on="1"/>
        <pt x="258" y="1135" on="1"/>
        <pt x="258" y="1227" on="1"/>
        <pt x="258" y="1353" on="0"/>
        <pt x="384" y="1569" on="0"/>
        <pt x="586" y="1696" on="0"/>
        <pt x="694" y="1696" on="1"/>
        <pt x="732" y="1696" on="0"/>
        <pt x="797" y="1685" on="0"/>
        <pt x="814" y="1679" on="1"/>
        <pt x="814" y="1455" on="1"/>
        <pt x="797" y="1472" on="0"/>
        <pt x="686" y="1508" on="0"/>
        <pt x="633" y="1508" on="1"/>
        <pt x="556" y="1508" on="0"/>
        <pt x="486" y="1417" on="0"/>
        <pt x="486" y="1308" on="1"/>
        <pt x="487" y="1135" on="1"/>
        <pt x="762" y="1135" on="1"/>
        <pt x="762" y="991" on="1"/>
        <pt x="487" y="991" on="1"/>
        <pt x="487" y="126" on="1"/>
        <pt x="704" y="108" on="1"/>
        <pt x="704" y="0" on="1"/>
        <pt x="89" y="0" on="1"/>
        <pt x="89" y="108" on="1"/>
      </contour>
      <contour>
        <pt x="1061" y="126" on="1"/>
        <pt x="1061" y="1521" on="1"/>
        <pt x="897" y="1541" on="1"/>
        <pt x="897" y="1636" on="1"/>
        <pt x="1238" y="1679" on="1"/>
        <pt x="1240" y="1679" on="1"/>
        <pt x="1289" y="1645" on="1"/>
        <pt x="1289" y="126" on="1"/>
        <pt x="1459" y="109" on="1"/>
        <pt x="1459" y="0" on="1"/>
        <pt x="899" y="0" on="1"/>
        <pt x="899" y="109" on="1"/>
      </contour>
    </TTGlyph>
    <TTGlyph name="florin" xMin="203" yMin="-356" xMax="1041" yMax="1685">
      <contour>
        <pt x="203" y="987" on="1"/>
        <pt x="211" y="1079" on="1"/>
        <pt x="421" y="1135" on="1"/>
        <pt x="432" y="1217" on="1"/>
        <pt x="443" y="1360" on="0"/>
        <pt x="580" y="1573" on="0"/>
        <pt x="781" y="1685" on="0"/>
        <pt x="885" y="1685" on="1"/>
        <pt x="945" y="1685" on="0"/>
        <pt x="1026" y="1674" on="0"/>
        <pt x="1041" y="1667" on="1"/>
        <pt x="1019" y="1481" on="1"/>
        <pt x="996" y="1494" on="0"/>
        <pt x="914" y="1515" on="0"/>
        <pt x="852" y="1515" on="1"/>
        <pt x="796" y="1515" on="0"/>
        <pt x="716" y="1477" on="0"/>
        <pt x="662" y="1374" on="0"/>
        <pt x="654" y="1279" on="1"/>
        <pt x="637" y="1135" on="1"/>
        <pt x="947" y="1135" on="1"/>
        <pt x="935" y="987" on="1"/>
        <pt x="624" y="987" on="1"/>
        <pt x="508" y="-356" on="1"/>
        <pt x="293" y="-356" on="1"/>
        <pt x="407" y="987" on="1"/>
      </contour>
    </TTGlyph>
    <TTGlyph name="four" xMin="66" yMin="-332" xMax="1267" yMax="1395">
      <contour>
        <pt x="191" y="331" on="0"/>
        <pt x="534" y="1059" on="0"/>
        <pt x="682" y="1395" on="1"/>
        <pt x="736" y="1395" on="1"/>
        <pt x="916" y="1296" on="1"/>
        <pt x="360" y="254" on="1"/>
        <pt x="276" y="127" on="1"/>
        <pt x="801" y="157" on="1"/>
        <pt x="808" y="536" on="1"/>
        <pt x="1003" y="554" on="1"/>
        <pt x="1003" y="168" on="1"/>
        <pt x="1267" y="184" on="1"/>
        <pt x="1267" y="0" on="1"/>
        <pt x="1003" y="0" on="1"/>
        <pt x="1003" y="-332" on="1"/>
        <pt x="801" y="-332" on="1"/>
        <pt x="801" y="0" on="1"/>
        <pt x="124" y="0" on="1"/>
        <pt x="66" y="100" on="1"/>
      </contour>
    </TTGlyph>
    <TTGlyph name="four.dnom" xMin="59" yMin="0" xMax="977" yMax="1086">
      <contour>
        <pt x="194" y="537" on="1"/>
        <pt x="462" y="1023" on="0"/>
        <pt x="494" y="1086" on="1"/>
        <pt x="678" y="1086" on="1"/>
        <pt x="713" y="1045" on="1"/>
        <pt x="325" y="412" on="1"/>
        <pt x="247" y="310" on="1"/>
        <pt x="619" y="328" on="1"/>
        <pt x="632" y="586" on="1"/>
        <pt x="802" y="599" on="1"/>
        <pt x="802" y="337" on="1"/>
        <pt x="977" y="346" on="1"/>
        <pt x="977" y="199" on="1"/>
        <pt x="802" y="199" on="1"/>
        <pt x="802" y="0" on="1"/>
        <pt x="619" y="0" on="1"/>
        <pt x="618" y="199" on="1"/>
        <pt x="130" y="199" on="1"/>
        <pt x="59" y="289" on="1"/>
      </contour>
    </TTGlyph>
    <TTGlyph name="fraction" xMin="-261" yMin="-161" xMax="634" yMax="1672">
      <contour>
        <pt x="482" y="1672" on="1"/>
        <pt x="634" y="1650" on="1"/>
        <pt x="-107" y="-161" on="1"/>
        <pt x="-261" y="-143" on="1"/>
      </contour>
    </TTGlyph>
    <TTGlyph name="franc" xMin="101" yMin="0" xMax="1262" yMax="1522">
      <contour>
        <pt x="311" y="451" on="1"/>
        <pt x="311" y="1380" on="1"/>
        <pt x="140" y="1408" on="1"/>
        <pt x="140" y="1522" on="1"/>
        <pt x="1243" y="1522" on="1"/>
        <pt x="1262" y="1170" on="1"/>
        <pt x="1113" y="1170" on="1"/>
        <pt x="1046" y="1391" on="1"/>
        <pt x="561" y="1404" on="1"/>
        <pt x="561" y="836" on="1"/>
        <pt x="898" y="840" on="1"/>
        <pt x="939" y="1001" on="1"/>
        <pt x="1066" y="1001" on="1"/>
        <pt x="1066" y="531" on="1"/>
        <pt x="939" y="531" on="1"/>
        <pt x="898" y="700" on="1"/>
        <pt x="561" y="709" on="1"/>
        <pt x="561" y="451" on="1"/>
        <pt x="803" y="451" on="1"/>
        <pt x="803" y="307" on="1"/>
        <pt x="561" y="307" on="1"/>
        <pt x="561" y="138" on="1"/>
        <pt x="795" y="112" on="1"/>
        <pt x="795" y="0" on="1"/>
        <pt x="151" y="0" on="1"/>
        <pt x="151" y="112" on="1"/>
        <pt x="311" y="138" on="1"/>
        <pt x="311" y="307" on="1"/>
        <pt x="101" y="307" on="1"/>
        <pt x="101" y="451" on="1"/>
      </contour>
    </TTGlyph>
</ttFont>
